<svg width="132" height="93" viewBox="0 0 132 93" fill="none" xmlns="http://www.w3.org/2000/svg">
<circle cx="66" cy="69" r="24" fill="black"/>
<g filter="url(#filter0_d_2210_19588)">
<rect width="105.002" height="21.2663" transform="translate(13.5 8)" fill="black"/>
<path d="M31.3103 13.8613L27.7216 23.2451H26.5785L22.9766 13.8613H24.1595L27.1501 21.9026L30.1406 13.8613H31.3103Z" fill="white"/>
<path d="M35.7544 22.0356C35.8962 21.9026 36.0114 21.7476 36.1 21.5704C36.1886 21.3843 36.2418 21.1849 36.2595 20.9722H37.3228C37.2696 21.6457 37.0127 22.1995 36.5519 22.6337C36.2683 22.8818 35.9316 23.0723 35.5417 23.2052C35.1519 23.3293 34.7177 23.3913 34.2392 23.3913C33.5126 23.3913 32.8923 23.2451 32.3784 22.9527C31.8644 22.6603 31.4923 22.2438 31.2619 21.7033C31.0404 21.2514 30.9296 20.6887 30.9296 20.0153C30.9296 19.6697 30.9562 19.3596 31.0094 19.0849C31.0625 18.8102 31.1467 18.5532 31.2619 18.314C31.5011 17.7823 31.8689 17.3703 32.3651 17.0779C32.8613 16.7766 33.4594 16.6259 34.1594 16.6259C34.8594 16.6259 35.4531 16.7722 35.9405 17.0646C36.4367 17.357 36.8 17.7601 37.0304 18.2741C37.1544 18.5576 37.2386 18.8545 37.2829 19.1646C37.3361 19.4747 37.3627 19.838 37.3627 20.2545H32.0062C32.0328 20.7241 32.1126 21.1096 32.2455 21.4109C32.405 21.7653 32.6531 22.04 32.9898 22.2349C33.3265 22.421 33.7385 22.514 34.2259 22.514C34.5449 22.514 34.8329 22.4742 35.0898 22.3944C35.3557 22.3147 35.5772 22.1951 35.7544 22.0356ZM34.1727 17.5165C33.2157 17.5165 32.5733 17.8886 32.2455 18.633C32.1391 18.8811 32.0682 19.1513 32.0328 19.4437H36.2728C36.2373 19.1159 36.1664 18.8235 36.0601 18.5665C35.9095 18.2209 35.6747 17.9595 35.3557 17.7823C35.0367 17.6051 34.6424 17.5165 34.1727 17.5165Z" fill="white"/>
<path d="M41.7734 16.6259C42.5798 16.6259 43.1912 16.8563 43.6077 17.3171C44.033 17.769 44.2457 18.4424 44.2457 19.3374V23.2451H43.1823V19.5368C43.1823 18.8545 43.045 18.3538 42.7703 18.0348C42.4956 17.7158 42.0747 17.5563 41.5076 17.5563C40.9051 17.5563 40.4399 17.7291 40.112 18.0747C39.793 18.4203 39.6335 18.9209 39.6335 19.5766V23.2451H38.5702V16.7854H39.6335V17.6627C40.0766 16.9715 40.7899 16.6259 41.7734 16.6259Z" fill="white"/>
<path d="M51.3185 16.7854V23.2451H50.2551V22.3546C49.8032 23.0546 49.0899 23.4046 48.1152 23.4046C47.3089 23.4046 46.693 23.1786 46.2677 22.7267C45.8424 22.2659 45.6297 21.5881 45.6297 20.6931V16.7854H46.693V20.4938C46.693 21.176 46.8304 21.6767 47.1051 21.9957C47.3886 22.3147 47.814 22.4742 48.3811 22.4742C48.9836 22.4742 49.4444 22.3014 49.7634 21.9558C50.0912 21.6102 50.2551 21.114 50.2551 20.4672V16.7854H51.3185Z" fill="white"/>
<path d="M57.34 22.0356C57.4818 21.9026 57.597 21.7476 57.6856 21.5704C57.7742 21.3843 57.8274 21.1849 57.8451 20.9722H58.9084C58.8552 21.6457 58.5983 22.1995 58.1375 22.6337C57.8539 22.8818 57.5172 23.0723 57.1273 23.2052C56.7375 23.3293 56.3033 23.3913 55.8248 23.3913C55.0982 23.3913 54.4779 23.2451 53.964 22.9527C53.45 22.6603 53.0779 22.2438 52.8475 21.7033C52.626 21.2514 52.5152 20.6887 52.5152 20.0153C52.5152 19.6697 52.5418 19.3596 52.595 19.0849C52.6481 18.8102 52.7323 18.5532 52.8475 18.314C53.0867 17.7823 53.4545 17.3703 53.9507 17.0779C54.4469 16.7766 55.045 16.6259 55.745 16.6259C56.445 16.6259 57.0387 16.7722 57.5261 17.0646C58.0223 17.357 58.3856 17.7601 58.616 18.2741C58.74 18.5576 58.8242 18.8545 58.8685 19.1646C58.9217 19.4747 58.9483 19.838 58.9483 20.2545H53.5918C53.6184 20.7241 53.6981 21.1096 53.8311 21.4109C53.9906 21.7653 54.2387 22.04 54.5754 22.2349C54.9121 22.421 55.3241 22.514 55.8115 22.514C56.1305 22.514 56.4185 22.4742 56.6754 22.3944C56.9413 22.3147 57.1628 22.1951 57.34 22.0356ZM55.7583 17.5165C54.8013 17.5165 54.1589 17.8886 53.8311 18.633C53.7247 18.8811 53.6538 19.1513 53.6184 19.4437H57.8584C57.8229 19.1159 57.752 18.8235 57.6457 18.5665C57.4951 18.2209 57.2602 17.9595 56.9413 17.7823C56.6223 17.6051 56.2279 17.5165 55.7583 17.5165Z" fill="white"/>
<path d="M62.6372 13.8613H63.7536V22.2615H66.917V23.2451H62.6372V13.8613Z" fill="white"/>
<path d="M70.4642 23.4046C69.7554 23.4046 69.1528 23.2539 68.6566 22.9527C68.1693 22.6514 67.806 22.2349 67.5667 21.7033C67.3452 21.2248 67.2344 20.6621 67.2344 20.0153C67.2344 19.3861 67.3452 18.8235 67.5667 18.3272C67.806 17.7956 68.1693 17.3791 68.6566 17.0779C69.1528 16.7766 69.7554 16.6259 70.4642 16.6259C71.1731 16.6259 71.7712 16.7766 72.2586 17.0779C72.7548 17.3791 73.1225 17.7956 73.3618 18.3272C73.5833 18.8412 73.6941 19.4039 73.6941 20.0153C73.6941 20.6267 73.5833 21.1893 73.3618 21.7033C73.1225 22.2349 72.7548 22.6514 72.2586 22.9527C71.7712 23.2539 71.1731 23.4046 70.4642 23.4046ZM70.4642 22.4742C70.925 22.4742 71.3105 22.3811 71.6206 22.1951C71.9307 22.0001 72.1656 21.7299 72.325 21.3843C72.4845 21.0298 72.5643 20.5735 72.5643 20.0153C72.5643 19.4482 72.4845 18.9918 72.325 18.6462C72.1656 18.3007 71.9307 18.0348 71.6206 17.8488C71.3105 17.6538 70.925 17.5563 70.4642 17.5563C70.0035 17.5563 69.6136 17.6538 69.2946 17.8488C68.9845 18.0348 68.7541 18.3007 68.6034 18.6462C68.444 18.9918 68.3642 19.4482 68.3642 20.0153C68.3642 20.5735 68.444 21.0298 68.6034 21.3843C68.7629 21.7299 68.9978 22.0001 69.3079 22.1951C69.618 22.3811 70.0035 22.4742 70.4642 22.4742Z" fill="white"/>
<path d="M77.771 23.3913C77.0887 23.3913 76.4995 23.2495 76.0032 22.966C75.507 22.6735 75.1393 22.2615 74.9001 21.7299C74.6874 21.2336 74.5811 20.6621 74.5811 20.0153C74.5811 19.3596 74.6874 18.7924 74.9001 18.314C75.1393 17.7734 75.5026 17.357 75.99 17.0646C76.4862 16.7722 77.0799 16.6259 77.771 16.6259C78.6837 16.6259 79.4147 16.8741 79.9641 17.3703C80.2033 17.5918 80.3894 17.8532 80.5223 18.1545C80.6641 18.4557 80.7394 18.788 80.7483 19.1513H79.6052C79.5698 18.6817 79.4014 18.2962 79.1001 17.995C78.9407 17.8532 78.7457 17.7469 78.5153 17.676C78.2938 17.5962 78.0457 17.5563 77.771 17.5563C77.3368 17.5563 76.9647 17.6538 76.6545 17.8488C76.3533 18.0348 76.1229 18.3007 75.9634 18.6462C75.8039 18.9918 75.7241 19.4482 75.7241 20.0153C75.7241 20.5735 75.8039 21.0298 75.9634 21.3843C76.1229 21.721 76.3533 21.9868 76.6545 22.1818C76.9647 22.3678 77.3368 22.4609 77.771 22.4609C78.0546 22.4609 78.3071 22.4254 78.5286 22.3546C78.759 22.2748 78.9495 22.164 79.1001 22.0223C79.2508 21.8894 79.366 21.7254 79.4457 21.5305C79.5343 21.3355 79.5831 21.1229 79.5919 20.8925H80.7483C80.704 21.628 80.447 22.2172 79.9774 22.6603C79.7116 22.8995 79.3881 23.0812 79.0071 23.2052C78.6349 23.3293 78.2229 23.3913 77.771 23.3913Z" fill="white"/>
<path d="M87.2388 17.9019C87.416 18.2829 87.5046 18.788 87.5046 19.4171V23.2451H86.4413V22.328C85.9716 23.0457 85.1742 23.4046 84.0488 23.4046C83.4994 23.4046 83.0298 23.3115 82.6399 23.1255C82.25 22.9394 81.9754 22.6691 81.8159 22.3147C81.7095 22.0577 81.6564 21.7742 81.6564 21.464C81.6564 21.1539 81.7095 20.8792 81.8159 20.64C82.0197 20.188 82.3785 19.8779 82.8925 19.7096C83.4153 19.5323 84.0798 19.4437 84.8862 19.4437H86.4413V19.2311C86.4413 19.0361 86.428 18.8633 86.4014 18.7127C86.3748 18.5621 86.3305 18.4159 86.2685 18.2741C86.047 17.769 85.5242 17.5165 84.7001 17.5165C83.8583 17.5165 83.3222 17.7557 83.0918 18.2342C83.0121 18.4203 82.9722 18.6108 82.9722 18.8057H81.8956C81.9133 18.4159 81.9798 18.1013 82.095 17.862C82.2722 17.4456 82.5823 17.1355 83.0254 16.9316C83.4773 16.7278 84.0311 16.6259 84.6868 16.6259C85.3602 16.6259 85.9052 16.7323 86.3216 16.9449C86.747 17.1487 87.0527 17.4677 87.2388 17.9019ZM84.3146 22.514C84.7931 22.514 85.1919 22.4299 85.5109 22.2615C85.8387 22.0843 86.078 21.8273 86.2286 21.4906C86.3704 21.1805 86.4413 20.7906 86.4413 20.321V20.2545H84.9659C84.4077 20.2545 83.9425 20.3077 83.5703 20.414C83.207 20.5115 82.9678 20.6887 82.8526 20.9457C82.7906 21.0874 82.7595 21.2292 82.7595 21.371C82.7595 21.5305 82.7906 21.69 82.8526 21.8495C82.9501 22.0799 83.1273 22.2482 83.3842 22.3546C83.6412 22.4609 83.9513 22.514 84.3146 22.514Z" fill="white"/>
<path d="M91.2345 23.3514C90.5788 23.3514 90.0959 23.1875 89.7857 22.8596C89.4756 22.5318 89.3205 22.0178 89.3205 21.3178V17.6893H88.2439V16.7854H89.3205V15.2171H90.3838V16.7854H92.3908V17.6893H90.3838V21.1583C90.3838 21.5836 90.4769 21.9026 90.663 22.1153C90.849 22.3191 91.1282 22.421 91.5003 22.421C91.7573 22.421 92.0364 22.3856 92.3377 22.3147V23.2185C91.9567 23.3071 91.5889 23.3514 91.2345 23.3514Z" fill="white"/>
<path d="M93.9683 15.6291C93.7467 15.6291 93.5695 15.5715 93.4366 15.4563C93.3126 15.3322 93.2505 15.1683 93.2505 14.9645C93.2505 14.7696 93.317 14.6101 93.4499 14.486C93.5828 14.362 93.7556 14.2999 93.9683 14.2999C94.1632 14.2999 94.3271 14.362 94.4601 14.486C94.593 14.6101 94.6594 14.7696 94.6594 14.9645C94.6594 15.1595 94.593 15.319 94.4601 15.443C94.3271 15.5671 94.1632 15.6291 93.9683 15.6291ZM93.4233 16.7854H94.4866V23.2451H93.4233V16.7854Z" fill="white"/>
<path d="M98.9162 23.4046C98.2073 23.4046 97.6048 23.2539 97.1086 22.9527C96.6212 22.6514 96.2579 22.2349 96.0187 21.7033C95.7972 21.2248 95.6864 20.6621 95.6864 20.0153C95.6864 19.3861 95.7972 18.8235 96.0187 18.3272C96.2579 17.7956 96.6212 17.3791 97.1086 17.0779C97.6048 16.7766 98.2073 16.6259 98.9162 16.6259C99.6251 16.6259 100.223 16.7766 100.711 17.0779C101.207 17.3791 101.575 17.7956 101.814 18.3272C102.035 18.8412 102.146 19.4039 102.146 20.0153C102.146 20.6267 102.035 21.1893 101.814 21.7033C101.575 22.2349 101.207 22.6514 100.711 22.9527C100.223 23.2539 99.6251 23.4046 98.9162 23.4046ZM98.9162 22.4742C99.377 22.4742 99.7624 22.3811 100.073 22.1951C100.383 22.0001 100.618 21.7299 100.777 21.3843C100.937 21.0298 101.016 20.5735 101.016 20.0153C101.016 19.4482 100.937 18.9918 100.777 18.6462C100.618 18.3007 100.383 18.0348 100.073 17.8488C99.7624 17.6538 99.377 17.5563 98.9162 17.5563C98.4554 17.5563 98.0656 17.6538 97.7466 17.8488C97.4364 18.0348 97.2061 18.3007 97.0554 18.6462C96.8959 18.9918 96.8162 19.4482 96.8162 20.0153C96.8162 20.5735 96.8959 21.0298 97.0554 21.3843C97.2149 21.7299 97.4497 22.0001 97.7599 22.1951C98.07 22.3811 98.4554 22.4742 98.9162 22.4742Z" fill="white"/>
<path d="M106.556 16.6259C107.363 16.6259 107.974 16.8563 108.39 17.3171C108.816 17.769 109.028 18.4424 109.028 19.3374V23.2451H107.965V19.5368C107.965 18.8545 107.828 18.3538 107.553 18.0348C107.278 17.7158 106.857 17.5563 106.29 17.5563C105.688 17.5563 105.223 17.7291 104.895 18.0747C104.576 18.4203 104.416 18.9209 104.416 19.5766V23.2451H103.353V16.7854H104.416V17.6627C104.859 16.9715 105.573 16.6259 106.556 16.6259Z" fill="white"/>
<path d="M65.9999 40.3049L56.5273 29.2656H75.4725L65.9999 40.3049Z" fill="black"/>
</g>
<defs>
<filter id="filter0_d_2210_19588" x="-3.11565" y="0.0251417" width="138.231" height="58.8875" filterUnits="userSpaceOnUse" color-interpolation-filters="sRGB">
<feFlood flood-opacity="0" result="BackgroundImageFix"/>
<feColorMatrix in="SourceAlpha" type="matrix" values="0 0 0 0 0 0 0 0 0 0 0 0 0 0 0 0 0 0 127 0" result="hardAlpha"/>
<feOffset dy="5.31657"/>
<feGaussianBlur stdDeviation="6.64572"/>
<feComposite in2="hardAlpha" operator="out"/>
<feColorMatrix type="matrix" values="0 0 0 0 0 0 0 0 0 0 0 0 0 0 0 0 0 0 0.12 0"/>
<feBlend mode="normal" in2="BackgroundImageFix" result="effect1_dropShadow_2210_19588"/>
<feBlend mode="normal" in="SourceGraphic" in2="effect1_dropShadow_2210_19588" result="shape"/>
</filter>
</defs>
</svg>
