<svg width="24" height="30" viewBox="0 0 24 30" fill="none" xmlns="http://www.w3.org/2000/svg">
<path d="M11.907 14.6329C12.6578 14.6329 13.2998 14.3656 13.8331 13.8309C14.3663 13.2962 14.6329 12.6534 14.6329 11.9026C14.6329 11.1517 14.3656 10.5097 13.8309 9.97645C13.2962 9.44322 12.6534 9.1766 11.9026 9.1766C11.1517 9.1766 10.5097 9.44395 9.97645 9.97865C9.44322 10.5133 9.1766 11.1561 9.1766 11.907C9.1766 12.6578 9.44395 13.2998 9.97865 13.8331C10.5133 14.3663 11.1561 14.6329 11.907 14.6329ZM11.9048 29.7619C7.91171 26.3641 4.92932 23.2081 2.95759 20.2939C0.985863 17.3797 0 14.6825 0 12.2024C0 8.48214 1.19668 5.51835 3.59003 3.31101C5.98338 1.10367 8.75496 0 11.9048 0C15.0546 0 17.8261 1.10367 20.2195 3.31101C22.6128 5.51835 23.8095 8.48214 23.8095 12.2024C23.8095 14.6825 22.8237 17.3797 20.8519 20.2939C18.8802 23.2081 15.8978 26.3641 11.9048 29.7619Z" fill="#C8D200"/>
</svg>
