<svg width="80" height="80" viewBox="0 0 80 80" fill="none" xmlns="http://www.w3.org/2000/svg">
<mask id="mask0_716_15560" style="mask-type:alpha" maskUnits="userSpaceOnUse" x="0" y="0" width="80" height="80">
<rect width="80" height="80" fill="#D9D9D9"/>
</mask>
<g mask="url(#mask0_716_15560)">
<path d="M39.8139 39.2659C41.3156 39.2659 42.5997 38.7312 43.6661 37.6618C44.7326 36.5924 45.2659 35.3068 45.2659 33.8051C45.2659 32.3034 44.7312 31.0194 43.6618 29.9529C42.5924 28.8864 41.3068 28.3532 39.8051 28.3532C38.3034 28.3532 37.0194 28.8879 35.9529 29.9573C34.8864 31.0267 34.3532 32.3122 34.3532 33.8139C34.3532 35.3156 34.8879 36.5997 35.9573 37.6662C37.0267 38.7326 38.3122 39.2659 39.8139 39.2659ZM39.8095 69.5238C31.8234 62.7282 25.8586 56.4162 21.9152 50.5878C17.9717 44.7594 16 39.3651 16 34.4048C16 26.9643 18.3934 21.0367 23.1801 16.622C27.9668 12.2073 33.5099 10 39.8095 10C46.1091 10 51.6523 12.2073 56.439 16.622C61.2257 21.0367 63.619 26.9643 63.619 34.4048C63.619 39.3651 61.6473 44.7594 57.7039 50.5878C53.7604 56.4162 47.7956 62.7282 39.8095 69.5238Z" fill="#181A1B"/>
</g>
</svg>
