<svg width="235" height="48" viewBox="0 0 235 48" fill="none" xmlns="http://www.w3.org/2000/svg">
<path d="M101.119 39.1182H93.0684L86.7588 29.5884L80.4491 39.1182H72.4424L82.7554 23.5399L72.6164 8.22262H80.6667L86.8023 17.4478L92.8944 8.22262H100.901L90.8057 23.4963L101.119 39.1182Z" fill="black"/>
<path d="M115.707 39.5533C106.96 39.5533 99.6932 33.1131 99.6932 23.6704C99.6932 14.2277 106.96 7.78748 115.707 7.78748C115.831 7.78748 134.501 7.78879 134.624 7.7914C143.163 7.97179 150.266 14.3624 150.266 23.6704C150.266 32.9785 143.163 39.369 134.624 39.5494C134.501 39.552 115.831 39.5533 115.707 39.5533ZM115.707 33.0261C115.831 33.0261 134.501 33.0237 134.624 33.019C139.33 32.8382 143.173 29.2254 143.173 23.6704C143.173 18.1155 139.33 14.5026 134.624 14.3218C134.501 14.3171 115.831 14.3147 115.707 14.3147C110.833 14.3147 106.786 17.97 106.786 23.6704C106.786 29.3709 110.833 33.0261 115.707 33.0261Z" fill="black"/>
<path d="M164.588 32.8085H176.076V39.1182H157.713V8.22262H164.588V32.8085Z" fill="black"/>
<path d="M201.014 39.1182L199.274 34.201H186.741L185.001 39.1182H177.56L189.352 8.22262H196.663L208.455 39.1182H201.014ZM189.048 27.8478H196.967L193.008 16.708L189.048 27.8478Z" fill="black"/>
<path d="M229.169 21.8428C232.041 22.6696 235 25.1064 235 29.893C235 35.4194 231.258 39.1182 224.252 39.1182H210.789V8.22262H224.47C229.561 8.22262 232.999 11.4427 232.999 15.7072C232.999 19.0143 230.91 21.016 229.169 21.8428ZM222.99 14.2277H217.665V19.9716H223.121C225.34 19.9716 226.384 18.7532 226.384 17.0561C226.384 15.2285 225.21 14.2277 222.99 14.2277ZM223.817 33.1131C226.82 33.1131 228.169 31.5901 228.169 29.1968C228.169 26.8905 226.82 25.2805 223.73 25.2805H217.665V33.1131H223.817Z" fill="black"/>
<path fill-rule="evenodd" clip-rule="evenodd" d="M11.759 0.257538C11.9372 -0.0842918 12.4239 -0.0862326 12.6049 0.254067C16.1558 6.92868 20.7682 14.7849 20.7682 14.7849L19.4958 11.111C23.3986 6.7258 28.7653 4.32238 35.0826 4.32238C43.9813 4.32238 51.3056 9.75331 53.9299 15.8232L52.6575 10.1526L61.7297 3.33767C62.034 3.10914 62.4691 3.31194 62.4918 3.6928L63.402 18.9783C63.6775 23.6057 60.7924 27.8313 56.3951 29.2408L63.2736 30.2696C63.5782 30.3152 63.7607 30.6344 63.6463 30.9216L62.132 34.7235C60.9726 37.6347 58.1651 39.5436 55.0432 39.5436L56.3951 44.3356H53.6463C51.7987 44.3356 50.1836 43.084 49.7151 41.289C45.8977 44.9106 40.7483 47.1309 35.0826 47.1309C30.5922 47.1309 26.4262 45.7362 22.9906 43.3547L21.8218 43.9664C19.4405 45.2127 16.6316 45.3347 14.152 44.2994L10.9867 42.9778L15.9968 40.4221L15.7262 40.4395C8.15904 40.9247 1.41763 35.6716 0.00577167 28.1895C-0.0320843 27.9889 0.121086 27.8032 0.324397 27.8032H10.9867L7.35159 24.766C3.9516 21.9252 2.98819 17.0858 5.03923 13.1506L11.759 0.257538ZM25.1009 31.849L28.5216 32.751L29.4218 38.3437C27.6214 38.3437 24.5608 35.0061 25.1009 31.849ZM44.1225 32.751L47.5432 31.849C48.0833 35.0061 45.0227 38.3437 43.2223 38.3437L44.1225 32.751Z" fill="black"/>
</svg>
