<svg width="108" height="39" viewBox="0 0 108 39" fill="none" xmlns="http://www.w3.org/2000/svg">
<g clip-path="url(#clip0_4588_46936)">
<path d="M31.5885 0H0.322266L8.53148 38.623H23.3793L31.5885 0Z" fill="white"/>
<path d="M40.0656 38.623H25.2188L33.428 0H48.2757L40.0656 38.623Z" fill="white"/>
<path d="M62.2272 0L58.2941 18.39H54.0741L50.1152 0H54.4392L56.1846 11.0443L57.9033 0H62.2272Z" fill="white"/>
<path d="M63.1465 0H72.8261V3.82919H67.4704V6.90248H72.748V10.6278H67.4704V14.5875H72.8261V18.391H63.1465V0Z" fill="white"/>
<path d="M73.747 0H77.602L81.3006 8.49153V0H85.4939V18.39H81.7171L77.9137 9.71551V18.39H73.7461V0H73.747Z" fill="white"/>
<path d="M88.6937 18.208C87.9029 17.8429 87.3263 17.2875 86.9612 16.5407C86.5961 15.794 86.4141 14.8303 86.4141 13.6495V0H90.738V13.5971C90.738 14.4661 91.0939 14.8993 91.8056 14.8993C92.5174 14.8993 92.9257 14.4652 92.9257 13.5971V0H97.2496V13.6495C97.2496 15.3867 96.8202 16.6713 95.9604 17.5045C95.1006 18.3376 93.7156 18.7551 91.8056 18.7551C90.5201 18.7551 89.4828 18.573 88.6928 18.208H88.6937Z" fill="white"/>
<path d="M98.1699 0H107.85V3.82919H102.494V6.90248H107.771V10.6278H102.494V14.5875H107.85V18.391H98.1699V0Z" fill="white"/>
<path d="M63.4883 20.2339L60.3865 38.635H56.0855L54.6519 28.8873L53.2182 38.635H48.9697L45.8164 20.2339H50.0125L51.3156 30.3209L52.6186 20.2339H56.7108L58.0139 30.4248L59.2912 20.2339H63.4873H63.4883Z" fill="white"/>
<path d="M64.4082 20.2339H68.7349V38.635H64.4082V20.2339Z" fill="white"/>
<path d="M71.8043 38.3609C70.9785 37.9351 70.3927 37.3402 70.0451 36.576C69.9412 36.3157 69.8584 36.072 69.7978 35.8458C69.7371 35.6205 69.6975 35.272 69.68 34.803C69.6626 34.334 69.6543 33.7602 69.6543 33.0824H74.2155C74.2155 33.7078 74.2192 34.151 74.2284 34.4113C74.2366 34.6715 74.2587 34.8545 74.2937 34.9584C74.4325 35.2711 74.6845 35.4274 75.0496 35.4274C75.4146 35.4274 75.6491 35.2885 75.753 35.0108C75.7705 34.9419 75.7834 34.8149 75.7926 34.6329C75.8009 34.4508 75.8055 34.1593 75.8055 33.7602C75.8055 33.3261 75.7963 33.0263 75.7797 32.8608C75.7622 32.6962 75.719 32.5261 75.6491 32.3523C75.5277 32.0746 75.3273 31.8529 75.0496 31.6874C74.7718 31.5228 74.3801 31.3352 73.8771 31.1274L73.1469 30.789C72.3993 30.4073 71.7914 30.0248 71.3224 29.6422C70.8534 29.2606 70.4966 28.8082 70.2539 28.2868C70.0975 27.9051 69.989 27.483 69.9283 27.0223C69.8676 26.5625 69.8373 25.9142 69.8373 25.0801C69.8373 24.3674 69.863 23.8157 69.9155 23.4249C69.9679 23.034 70.0801 22.6561 70.2548 22.291C70.6199 21.5093 71.202 20.9098 72.0011 20.4923C72.8002 20.0757 73.7998 19.8669 74.9981 19.8669C77.3605 19.8669 78.9073 20.6403 79.6374 22.1862C79.7588 22.4464 79.8462 22.6901 79.8977 22.9163C79.9501 23.1425 79.9841 23.4855 80.0016 23.9463C80.019 24.407 80.0273 24.9845 80.0273 25.6797H75.6482C75.6482 25.0544 75.639 24.6029 75.6225 24.3242C75.605 24.0465 75.5792 23.8552 75.5443 23.7504C75.4404 23.5076 75.2224 23.3853 74.8923 23.3853C74.5447 23.3853 74.3277 23.5159 74.2403 23.7761C74.2228 23.846 74.21 23.9545 74.2008 24.1017C74.1916 24.2497 74.1879 24.4888 74.1879 24.818C74.1879 25.1831 74.1962 25.448 74.2136 25.6126C74.2311 25.7781 74.2743 25.9473 74.3442 26.1211C74.4481 26.3473 74.6265 26.534 74.8785 26.6811C75.1305 26.8292 75.5342 27.0241 76.0905 27.2678L76.6644 27.5023C77.5674 27.9198 78.2755 28.3189 78.7886 28.7015C79.3008 29.084 79.6788 29.553 79.9225 30.1085C80.0963 30.526 80.2131 30.96 80.2747 31.4115C80.3354 31.864 80.3657 32.5408 80.3657 33.4448C80.3657 34.2614 80.3354 34.8784 80.2747 35.295C80.214 35.7116 80.0963 36.1208 79.9225 36.5199C79.5574 37.319 78.9496 37.9315 78.098 38.3572C77.2465 38.783 76.2036 38.9954 74.9705 38.9954C73.7373 38.9954 72.6292 38.7821 71.8034 38.3572L71.8043 38.3609Z" fill="white"/>
<path d="M81.2852 20.2338H90.9694V24.0649H85.6119V27.14H90.8912V30.8671H85.6119V34.8287H90.9694V38.634H81.2852V20.2329V20.2338Z" fill="white"/>
</g>
<defs>
<clipPath id="clip0_4588_46936">
<rect width="107.526" height="39" fill="white" transform="translate(0.322266)"/>
</clipPath>
</defs>
</svg>
