<svg width="24" height="24" viewBox="0 0 24 24" fill="none" xmlns="http://www.w3.org/2000/svg">
<mask id="mask0_2151_13492" style="mask-type:alpha" maskUnits="userSpaceOnUse" x="0" y="0" width="24" height="24">
<rect width="24" height="24" fill="#D9D9D9"/>
</mask>
<g mask="url(#mask0_2151_13492)">
<path d="M2.48212 22.2034C2.27662 22.2034 2.11104 22.1405 1.98538 22.0149C1.85971 21.8892 1.79688 21.7236 1.79688 21.5181V19.9284H15.6891V21.5181C15.6891 21.7236 15.6264 21.8892 15.5009 22.0149C15.3752 22.1405 15.2095 22.2034 15.0039 22.2034H2.48212ZM1.79688 17.9284V16.3386C1.79688 16.1331 1.85971 15.9675 1.98538 15.8419C2.11104 15.7162 2.27662 15.6534 2.48212 15.6534H6.74313V13.6534H10.7431V15.6534H15.0039C15.2095 15.6534 15.3752 15.7162 15.5009 15.8419C15.6264 15.9675 15.6891 16.1331 15.6891 16.3386V17.9284H1.79688ZM17.8686 22.2034V15.9659C17.2446 15.2745 16.7444 14.5834 16.3679 13.8924C15.9912 13.2012 15.8029 12.3632 15.8029 11.3784V1.79688H22.2034V11.3784C22.2034 12.3642 22.0192 13.2056 21.6509 13.9026C21.2825 14.5995 20.7801 15.2872 20.1436 15.9659V19.9284H22.2034V22.2034H17.8686ZM18.0779 7.92238H19.9284V4.07188H18.0779V7.92238ZM19.0061 13.8649C19.2901 13.5229 19.5149 13.1408 19.6804 12.7186C19.8457 12.2965 19.9284 11.8497 19.9284 11.3784V9.92238H18.0779V11.3784C18.0779 11.838 18.1552 12.2819 18.3099 12.7099C18.4645 13.1379 18.6966 13.5229 19.0061 13.8649Z" fill="#181A1B"/>
</g>
</svg>
