<svg width="40" height="41" viewBox="0 0 40 41" fill="none" xmlns="http://www.w3.org/2000/svg">
<path d="M19.907 19.9005C20.6578 19.9005 21.2998 19.6332 21.8331 19.0985C22.3663 18.5638 22.6329 17.921 22.6329 17.1701C22.6329 16.4193 22.3656 15.7773 21.8309 15.244C21.2962 14.7108 20.6534 14.4442 19.9026 14.4442C19.1517 14.4442 18.5097 14.7115 17.9765 15.2462C17.4432 15.7809 17.1766 16.4237 17.1766 17.1745C17.1766 17.9254 17.4439 18.5674 17.9786 19.1007C18.5133 19.6339 19.1561 19.9005 19.907 19.9005ZM19.9048 35.0295C15.9117 31.6317 12.9293 28.4757 10.9576 25.5615C8.98586 22.6473 8 19.9501 8 17.47C8 13.7497 9.19668 10.7859 11.59 8.57859C13.9834 6.37125 16.755 5.26758 19.9048 5.26758C23.0546 5.26758 25.8261 6.37125 28.2195 8.57859C30.6128 10.7859 31.8095 13.7497 31.8095 17.47C31.8095 19.9501 30.8237 22.6473 28.8519 25.5615C26.8802 28.4757 23.8978 31.6317 19.9048 35.0295Z" fill="black"/>
</svg>