<svg width="32" height="32" viewBox="0 0 32 32" fill="none" xmlns="http://www.w3.org/2000/svg">
<path d="M24.3132 0.0570313C24.3701 0.0285156 24.4271 0 24.484 0L31.8861 7.40195V32H8.88257V28.5836H27.9004V12.6406H8.88257V0.114063H24.1424C24.1993 0.114063 24.2563 0.0855469 24.3132 0.0570313Z" fill="#CFE5B7"/>
<path d="M10.0111 22.2176L9.09907 19.2797H9.07988L8.16787 22.2176H10.0111Z" fill="#CFE5B7"/>
<path fill-rule="evenodd" clip-rule="evenodd" d="M25.5089 15.2H0V26.5879H25.5089V15.2ZM14.0838 24.5309C14.6086 24.832 15.2422 24.9824 15.9846 24.9824C16.4454 24.9824 16.8742 24.9117 17.271 24.7711C17.6742 24.6301 18.0198 24.4285 18.3078 24.1664C18.5702 23.9359 18.775 23.6574 18.9222 23.3309C19.0694 23.0047 19.1462 22.6527 19.1526 22.275H17.2998C17.2934 22.4477 17.255 22.6078 17.1846 22.7551C17.141 22.8508 17.087 22.9363 17.0226 23.0117C16.9924 23.0469 16.9601 23.0797 16.9254 23.1102C16.695 23.3344 16.3622 23.4461 15.927 23.4461C15.287 23.4461 14.8518 23.1965 14.6214 22.6973C14.5574 22.5438 14.5094 22.368 14.4774 22.1695C14.4686 22.0984 14.4612 22.0215 14.4554 21.9387C14.4445 21.7816 14.439 21.6023 14.439 21.4016C14.439 21.107 14.4518 20.8637 14.4774 20.6719C14.5094 20.4734 14.5606 20.2941 14.631 20.1344C14.7398 19.8848 14.903 19.6957 15.1206 19.568C15.2574 19.4875 15.4131 19.4324 15.5879 19.4023C15.6911 19.3848 15.8009 19.3758 15.9174 19.3758C16.135 19.3758 16.3206 19.4016 16.4742 19.4527C16.6278 19.5039 16.7654 19.584 16.887 19.6926C17.1302 19.9168 17.2614 20.2207 17.2806 20.6047H19.1238C19.1174 20.2141 19.0374 19.8496 18.8838 19.5102C18.7366 19.1711 18.5286 18.8797 18.2598 18.6367C17.9718 18.3805 17.6326 18.1855 17.2422 18.0512C16.8582 17.9102 16.439 17.8398 15.9846 17.8398C15.2422 17.8398 14.6086 17.9965 14.0838 18.3102C13.559 18.6176 13.1686 19.0559 12.9126 19.6254C12.6886 20.1309 12.5766 20.7262 12.5766 21.4109C12.5766 22.0957 12.6886 22.691 12.9126 23.1965C13.1686 23.7789 13.559 24.2238 14.0838 24.5309ZM2.02529 18.0223H5.85571V19.4527H3.76289V20.6813H5.83647V22.0832H3.76289V24.8H2.02529V18.0223ZM10.4143 23.523H7.76465L7.37105 24.8H5.56626L7.79346 18.0223H10.3854L12.6126 24.8H10.8079L10.4143 23.523ZM20.7998 19.4527H19.3406V18.0223H23.987V19.4527H22.5374V24.8H20.7998V19.4527Z" fill="#CFE5B7"/>
</svg>
