<svg width="32" height="32" viewBox="0 0 32 32" fill="none" xmlns="http://www.w3.org/2000/svg">
<path d="M24.3132 0.0570313C24.3701 0.0285156 24.4271 0 24.484 0L31.8861 7.40195V32H8.88257V28.5836H27.9004V12.6406H8.88257V0.114063H24.1424C24.1993 0.114063 24.2563 0.0855469 24.3132 0.0570313Z" fill="#F7A19C"/>
<path d="M6.13896 20.8543C5.9854 20.9117 5.79019 20.9406 5.55337 20.9406H4.82378V19.3184H5.5438C5.79336 19.3184 5.9918 19.3469 6.13896 19.4047C6.29258 19.4621 6.40137 19.5582 6.46538 19.6926C6.5166 19.827 6.54219 19.9711 6.54219 20.1246C6.54219 20.2781 6.5166 20.4223 6.46538 20.5566C6.40137 20.691 6.29258 20.7902 6.13896 20.8543Z" fill="#F7A19C"/>
<path d="M14.053 23.1102C13.797 23.2512 13.4642 23.3215 13.0546 23.3215H12.2098V19.5008H13.0546C13.4642 19.5008 13.7938 19.5711 14.0434 19.7117C14.2994 19.8461 14.4914 20.0512 14.6194 20.3262C14.6834 20.4605 14.7282 20.6176 14.7538 20.7965C14.7794 20.9695 14.7922 21.1742 14.7922 21.4109C14.7922 21.648 14.7794 21.8527 14.7538 22.0254C14.7282 22.1984 14.6834 22.352 14.6194 22.4863C14.4978 22.7613 14.309 22.9695 14.053 23.1102Z" fill="#F7A19C"/>
<path fill-rule="evenodd" clip-rule="evenodd" d="M25.5089 15.2H0V26.5879H25.5089V15.2ZM6.04297 18.0223H3.08618V24.8H4.82378V22.1984H6.04297C6.58057 22.1984 7.02217 22.1086 7.36777 21.9293C7.71978 21.7504 7.97578 21.4848 8.13579 21.1328C8.26377 20.8254 8.32778 20.4863 8.32778 20.1152C8.32778 19.7055 8.26377 19.3469 8.13579 19.0398C7.98218 18.6879 7.72939 18.432 7.37739 18.2719C7.03179 18.1055 6.58696 18.0223 6.04297 18.0223ZM13.333 18.0223H10.4722V24.8H13.333C14.0754 24.8 14.6994 24.6559 15.205 24.368C15.717 24.0797 16.0914 23.6672 16.3282 23.1293C16.437 22.8992 16.517 22.643 16.5682 22.3613C16.6194 22.0797 16.645 21.7629 16.645 21.4109C16.645 21.059 16.6194 20.7422 16.5682 20.4605C16.517 20.1789 16.437 19.923 16.3282 19.6926C16.0914 19.1551 15.717 18.7422 15.205 18.4543C14.6994 18.1664 14.0754 18.0223 13.333 18.0223ZM18.927 18.0223H22.7573V19.4527H20.6646V20.6816H22.7381V22.0832H20.6646V24.8H18.927V18.0223Z" fill="#F7A19C"/>
</svg>
