  <svg width="32" height="32" viewBox="0 0 32 32" fill="none"
    xmlns="http://www.w3.org/2000/svg">
    <mask id="mask0_4163_49306" style="mask-type:alpha"
        maskUnits="userSpaceOnUse" x="0" y="0" width="32" height="32">
        <rect width="32" height="32" fill="#D9D9D9" />
    </mask>
    <g mask="url(#mask0_4163_49306)">
        <path
            d="M21.1026 29.8687L15.3693 24.1021L17.4693 22.0021L21.1026 25.6021L28.9359 17.8021L31.0359 19.9021L21.1026 29.8687ZM15.9359 14.0688L26.7693 7.63542H5.1026L15.9359 14.0688ZM15.9359 16.8354L4.96927 10.2688V23.9688H12.3693L15.5026 27.1021H4.96927C4.10149 27.1021 3.36233 26.7968 2.75177 26.1863C2.14122 25.5757 1.83594 24.8365 1.83594 23.9688V7.63542C1.83594 6.75846 2.14122 6.01145 2.75177 5.39438C3.36233 4.77729 4.10149 4.46875 4.96927 4.46875H26.9359C27.8129 4.46875 28.5599 4.77729 29.177 5.39438C29.7941 6.01145 30.1026 6.75846 30.1026 7.63542V13.7688L26.9359 16.9021V10.2688L15.9359 16.8354Z"
            fill="#363636" />
    </g>
</svg>