<svg width="100" height="100" viewBox="0 0 100 100" fill="none" xmlns="http://www.w3.org/2000/svg">
<mask id="mask0_2564_63855" style="mask-type:alpha" maskUnits="userSpaceOnUse" x="0" y="0" width="100" height="100">
<rect width="100" height="100" fill="#D9D9D9"/>
</mask>
<g mask="url(#mask0_2564_63855)">
<path d="M7.875 97.4361V97.6861H8.125H91.8747H92.1247V97.4361V34.6239V34.499L92.0249 34.424L50.15 2.96419L49.9998 2.85137L49.8497 2.96419L7.97484 34.424L7.875 34.499V34.6239V97.4361ZM85.2898 37.5206V90.8513H14.7098V37.5206L49.9998 11.6449L85.2898 37.5206Z" fill="#E3E3E3" stroke="#E3E3E3" stroke-width="0.5"/>
<path d="M54.1285 80.3795H46.7422V51.2085H54.1285V80.3795Z" fill="#E3E3E3"/>
<path d="M53.0821 39.3554C52.3845 40.0795 51.5094 40.4415 50.4569 40.4415C49.4044 40.4415 48.5222 40.0868 47.8101 39.3773C47.0982 38.6679 46.7422 37.778 46.7422 36.7075C46.7422 35.6372 47.091 34.7399 47.7886 34.0158C48.4862 33.2917 49.3612 32.9297 50.4138 32.9297C51.4663 32.9297 52.3485 33.2844 53.0606 33.9939C53.7725 34.7033 54.1285 35.5933 54.1285 36.6637C54.1285 37.7341 53.7797 38.6313 53.0821 39.3554Z" fill="#E3E3E3"/>
</g>
</svg>
