<svg width="32" height="32" viewBox="0 0 32 32" fill="none" xmlns="http://www.w3.org/2000/svg">
<mask id="mask0_4076_59357" style="mask-type:alpha" maskUnits="userSpaceOnUse" x="0" y="0" width="32" height="32">
<rect width="31.4652" height="32" fill="#E3E3E3"/>
</mask>
<g mask="url(#mask0_4076_59357)">
<mask id="mask1_4076_59357" style="mask-type:alpha" maskUnits="userSpaceOnUse" x="1" y="2" width="29" height="28">
<rect x="1.73438" y="2" width="28" height="28" fill="#D9D9D9"/>
</mask>
<g mask="url(#mask1_4076_59357)">
<path d="M8.21173 27.8375C7.67509 27.8375 7.20973 27.6405 6.81567 27.2464C6.42163 26.8524 6.22461 26.387 6.22461 25.8504V6.14256C6.22461 5.60401 6.42163 5.13702 6.81567 4.7416C7.20973 4.34616 7.67509 4.14844 8.21173 4.14844H18.7548L25.247 10.6406V25.8504C25.247 26.387 25.0493 26.8524 24.6538 27.2464C24.2584 27.6405 23.7914 27.8375 23.2529 27.8375H8.21173ZM17.7404 11.5676V6.14256H8.21173V25.8504H23.2529V11.5676H17.7404Z" fill="black"/>
</g>
</g>
</svg>
