<svg width="25" height="24" viewBox="0 0 25 24" fill="none" xmlns="http://www.w3.org/2000/svg">
<mask id="mask0_2918_11034" style="mask-type:alpha" maskUnits="userSpaceOnUse" x="0" y="0" width="25" height="24">
<rect x="0.679688" width="24" height="24" fill="#D9D9D9"/>
</mask>
<g mask="url(#mask0_2918_11034)">
<path d="M12.6797 20.9984L11.2297 19.6984C9.54635 18.1818 8.15469 16.8734 7.05469 15.7734C5.95469 14.6734 5.07969 13.6859 4.42969 12.8109C3.77969 11.9359 3.32552 11.1318 3.06719 10.3984C2.80885 9.6651 2.67969 8.9151 2.67969 8.14844C2.67969 6.58177 3.20469 5.27344 4.25469 4.22344C5.30469 3.17344 6.61302 2.64844 8.17969 2.64844C9.04635 2.64844 9.87135 2.83177 10.6547 3.19844C11.438 3.5651 12.113 4.08177 12.6797 4.74844C13.2464 4.08177 13.9214 3.5651 14.7047 3.19844C15.488 2.83177 16.313 2.64844 17.1797 2.64844C18.7464 2.64844 20.0547 3.17344 21.1047 4.22344C22.1547 5.27344 22.6797 6.58177 22.6797 8.14844C22.6797 8.9151 22.5505 9.6651 22.2922 10.3984C22.0339 11.1318 21.5797 11.9359 20.9297 12.8109C20.2797 13.6859 19.4047 14.6734 18.3047 15.7734C17.2047 16.8734 15.813 18.1818 14.1297 19.6984L12.6797 20.9984Z" fill="#F0FA00"/>
</g>
</svg>
