<svg width="100" height="100" viewBox="0 0 100 100" fill="none" xmlns="http://www.w3.org/2000/svg">
<mask id="mask0_2918_40063" style="mask-type:alpha" maskUnits="userSpaceOnUse" x="0" y="0" width="100" height="100">
<rect width="100" height="100" fill="#D9D9D9"/>
</mask>
<g mask="url(#mask0_2918_40063)">
<path d="M50.0007 87.4279L45.1396 83.053C37.905 76.4502 31.9238 70.7543 27.1962 65.9654C22.4686 61.1765 18.7044 56.8897 15.9035 53.105C13.1025 49.3203 11.1407 45.877 10.018 42.7752C8.89534 39.6733 8.33398 36.5252 8.33398 33.3307C8.33398 26.981 10.4636 21.6783 14.7228 17.4226C18.9821 13.1669 24.2599 11.0391 30.5562 11.0391C34.3988 11.0391 37.9868 11.9187 41.3201 13.6779C44.6535 15.4372 47.547 17.9604 50.0007 21.2474C52.7321 17.8215 55.7298 15.2636 58.9937 13.5738C62.2576 11.884 65.7414 11.0391 69.4451 11.0391C75.7414 11.0391 81.0192 13.1669 85.2785 17.4226C89.5377 21.6783 91.6673 26.981 91.6673 33.3307C91.6673 36.5252 91.106 39.6733 89.9833 42.7752C88.8606 45.877 86.8988 49.3203 84.0978 53.105C81.2969 56.8897 77.5327 61.1765 72.8051 65.9654C68.0775 70.7543 62.0964 76.4502 54.8617 83.053L50.0007 87.4279ZM50.0007 78.1919C56.9098 71.8958 62.5954 66.4966 67.0575 61.9942C71.5196 57.4917 75.0585 53.5565 77.6743 50.1883C80.2901 46.8203 82.1188 43.8195 83.1604 41.1859C84.2021 38.5523 84.7229 35.9373 84.7229 33.3407C84.7229 28.8896 83.2877 25.2173 80.4173 22.3238C77.547 19.4302 73.8948 17.9834 69.4608 17.9834C65.9874 17.9834 62.7727 19.0193 59.8167 21.0911C56.8607 23.1629 54.584 25.9927 52.9867 29.5807H46.9451C45.3942 26.0391 43.1407 23.2208 40.1846 21.1258C37.2286 19.0309 34.014 17.9834 30.5406 17.9834C26.1065 17.9834 22.4543 19.4302 19.584 22.3238C16.7136 25.2173 15.2784 28.8936 15.2784 33.3526C15.2784 35.9538 15.7992 38.5796 16.8409 41.23C17.8825 43.8805 19.7112 46.9013 22.327 50.2925C24.9428 53.6838 28.496 57.619 32.9868 62.0981C37.4775 66.5773 43.1488 71.9419 50.0007 78.1919Z" fill="#E3E3E3"/>
</g>
</svg>
