<svg width="25" height="24" viewBox="0 0 25 24" fill="none" xmlns="http://www.w3.org/2000/svg">
<mask id="mask0_16_13849" style="mask-type:alpha" maskUnits="userSpaceOnUse" x="0" y="0" width="25" height="24">
<rect x="1" y="0.5" width="23" height="23" fill="#D9D9D9" stroke="black"/>
</mask>
<g mask="url(#mask0_16_13849)">
<path d="M2.4 22V22.2414L2.57071 22.0707L6.54142 18.1H21C21.4283 18.1 21.8032 17.9382 22.1207 17.6207C22.4382 17.3032 22.6 16.9283 22.6 16.5V3.5C22.6 3.07174 22.4382 2.69678 22.1207 2.37929C21.8032 2.0618 21.4283 1.9 21 1.9H4C3.57174 1.9 3.19678 2.0618 2.87929 2.37929C2.5618 2.69678 2.4 3.07174 2.4 3.5V22ZM5.85 16.4H5.80628L5.77659 16.4321L4.1 18.2446V3.6H20.9V16.4H5.85Z" fill="white" stroke="white" stroke-width="0.2"/>
<path d="M12.7078 15.25C12.94 15.25 13.1361 15.1698 13.296 15.0095C13.4559 14.8492 13.5359 14.6529 13.5359 14.4207C13.5359 14.1884 13.4557 13.9924 13.2954 13.8324C13.135 13.6725 12.9388 13.5926 12.7066 13.5926C12.4743 13.5926 12.2783 13.6727 12.1183 13.8331C11.9584 13.9934 11.8784 14.1897 11.8784 14.4219C11.8784 14.6541 11.9586 14.8502 12.1189 15.0101C12.2793 15.17 12.4756 15.25 12.7078 15.25ZM11.9875 12.0223H13.2306C13.2306 11.8043 13.2451 11.6116 13.2742 11.4444C13.3033 11.2772 13.3542 11.1137 13.4268 10.9537C13.4995 10.7938 13.6013 10.6339 13.7322 10.4739C13.863 10.314 14.024 10.1385 14.2151 9.94741C14.6928 9.46971 15.0261 9.04548 15.2151 8.67473C15.4042 8.30399 15.4987 7.91507 15.4987 7.50798C15.4987 6.73741 15.2515 6.12677 14.7572 5.67606C14.2628 5.22535 13.5975 5 12.7612 5C12.0071 5 11.3661 5.1781 10.8383 5.53431C10.3105 5.89051 9.92294 6.38121 9.67578 7.00638L10.8316 7.48617C11.0352 7.07908 11.2983 6.77012 11.6211 6.55931C11.9439 6.34849 12.3204 6.24309 12.7508 6.24309C13.216 6.24309 13.5831 6.3594 13.8521 6.59202C14.1211 6.82465 14.2556 7.14522 14.2556 7.55373C14.2556 7.84309 14.1756 8.12225 14.0157 8.39122C13.8557 8.6602 13.5868 8.97996 13.2088 9.35051C12.9616 9.57606 12.7617 9.78229 12.609 9.96922C12.4564 10.1562 12.3292 10.3535 12.2274 10.5612C12.1413 10.7702 12.0797 10.9896 12.0428 11.2195C12.0059 11.4494 11.9875 11.717 11.9875 12.0223Z" fill="white" stroke="white" stroke-width="0.5"/>
</g>
</svg>
