<svg width="110" height="40" viewBox="0 0 110 40" fill="none" xmlns="http://www.w3.org/2000/svg">
<path d="M31.995 0H0L8.40399 39.6222H23.591L31.995 0Z" fill="#C8D200"/>
<path d="M40.6733 39.6222H25.4613L33.8653 0H49.0524L40.6733 39.6222Z" fill="#C8D200"/>
<path d="M63.3416 0L59.3017 18.8487H54.9875L50.9476 0H55.3616L57.1571 11.3242L58.9027 0H63.3416Z" fill="#C8D200"/>
<path d="M64.2643 0H74.1895V3.92473H68.7032V7.07451H74.0898V10.8992H68.7032V14.949H74.1895V18.8487H64.2643V0Z" fill="#C8D200"/>
<path d="M75.1122 0H79.0524L82.8429 8.69939V0H87.1322V18.8487H83.2668L79.3766 9.9743V18.8487H75.1122V0Z" fill="#C8D200"/>
<path d="M90.399 18.6737C89.6317 18.3276 89.0065 17.7273 88.6284 16.9738C88.2544 16.1989 88.0798 15.1989 88.0798 13.999V0H92.4938V13.949C92.4938 14.824 92.8678 15.2739 93.591 15.2739C94.3142 15.2739 94.7382 14.824 94.7382 13.949V0H99.1771V13.999C99.1771 15.7739 98.7282 17.0988 97.8554 17.9487C96.9825 18.7987 95.5611 19.2237 93.591 19.2237C92.2693 19.2237 91.222 19.0487 90.399 18.6737Z" fill="#C8D200"/>
<path d="M100.1 0H110V3.92473H104.539V7.07451H109.925V10.8992H104.539V14.949H110V18.8487H100.1V0Z" fill="#C8D200"/>
<path d="M64.6135 20.7486L61.4464 39.6222H57.0574L55.586 29.6229L54.1147 39.6222H49.7756L46.5337 20.7486H50.8479L52.1696 31.0978L53.5162 20.7486H57.6808L59.0274 31.1978L60.3242 20.7486H64.6135Z" fill="#C8D200"/>
<path d="M65.5611 20.7486H70V39.6222H65.5611V20.7486Z" fill="#C8D200"/>
<path d="M73.1421 39.3473C72.352 38.9558 71.7122 38.3145 71.3217 37.5224L71.0723 36.7724C71.0051 36.4176 70.9634 36.0584 70.9476 35.6975C70.9476 35.2225 70.9227 34.6226 70.9227 33.9226H75.586C75.586 34.5726 75.611 35.0226 75.611 35.2975C75.5997 35.484 75.6251 35.6709 75.6858 35.8475C75.7442 36.0029 75.8509 36.1353 75.99 36.2253C76.1292 36.3153 76.2936 36.3581 76.4589 36.3475C76.612 36.3629 76.766 36.3271 76.8968 36.2457C77.0275 36.1643 77.1278 36.0419 77.182 35.8975C77.182 35.8475 77.207 35.6975 77.207 35.5225C77.231 35.2232 77.2393 34.9228 77.2319 34.6226C77.2319 34.1726 77.207 33.8726 77.207 33.6976C77.1804 33.5168 77.1301 33.3403 77.0574 33.1727C76.9291 32.8931 76.7208 32.6582 76.4589 32.4977C76.1596 32.3227 75.7606 32.1478 75.2618 31.9228L74.5137 31.5728C73.8446 31.2595 73.2164 30.8649 72.6434 30.3979C72.1832 30.0241 71.8089 29.5551 71.5461 29.023C71.3829 28.6054 71.2739 28.1685 71.2219 27.7231C71.1412 27.0597 71.1079 26.3914 71.1222 25.7232C71.1144 25.1556 71.1394 24.588 71.197 24.0233C71.2522 23.624 71.37 23.2359 71.5461 22.8734C71.9178 22.0704 72.551 21.418 73.3417 21.0235C74.296 20.5596 75.349 20.3365 76.409 20.3736C78.803 20.3736 80.399 21.1735 81.1471 22.7484C81.2525 22.9931 81.3441 23.2434 81.4215 23.4984C81.4769 23.8459 81.5102 24.1965 81.5212 24.5483C81.5461 25.0233 81.5461 25.6232 81.5461 26.3482H77.0574C77.0574 25.6982 77.0574 25.2232 77.0324 24.9483C77.0298 24.7461 77.0047 24.5449 76.9576 24.3483C76.9001 24.2219 76.8037 24.1172 76.6825 24.0497C76.5613 23.9822 76.4218 23.9555 76.2843 23.9733C76.1435 23.9556 76.001 23.9886 75.8823 24.0665C75.7635 24.1443 75.6762 24.2619 75.6359 24.3983C75.5989 24.5025 75.582 24.6128 75.586 24.7233C75.586 24.8733 75.5611 25.1232 75.5611 25.4482C75.5611 25.7732 75.586 26.0982 75.586 26.2732C75.6126 26.454 75.6629 26.6305 75.7357 26.7981C75.8496 27.0456 76.0427 27.248 76.2843 27.3731C76.5337 27.5231 76.9576 27.7231 77.5062 27.973L78.1047 28.198C78.8655 28.5454 79.5919 28.9638 80.2743 29.4479C80.7828 29.8118 81.187 30.3032 81.4464 30.8728C81.6267 31.3037 81.7443 31.7583 81.7955 32.2227C81.8789 32.911 81.9122 33.6045 81.8953 34.2976C81.9118 34.9325 81.8785 35.5678 81.7955 36.1975C81.7407 36.629 81.6231 37.0501 81.4464 37.4474C81.0618 38.2791 80.4006 38.9507 79.5761 39.3473C78.5668 39.8056 77.4667 40.0279 76.3591 39.9972C75.0624 39.9972 73.9651 39.7722 73.1421 39.3473Z" fill="#C8D200"/>
<path d="M82.8429 20.7486H92.7431V24.6733H87.2569V27.8231H92.6683V31.6478H87.2569V35.7225H92.7431V39.6222H82.8429V20.7486Z" fill="#C8D200"/>
</svg>