<svg width="101" height="100" viewBox="0 0 101 100" fill="none" xmlns="http://www.w3.org/2000/svg">
<mask id="mask0_2892_147513" style="mask-type:alpha" maskUnits="userSpaceOnUse" x="1" y="0" width="100" height="100">
<rect x="1.5" y="0.5" width="99" height="99" fill="#D9D9D9" stroke="black"/>
</mask>
<g mask="url(#mask0_2892_147513)">
<path d="M9.35898 91.6089V14.5859C9.35898 12.9263 9.98103 11.4742 11.2267 10.2286C12.4723 8.98299 13.9244 8.36094 15.584 8.36094H86.4173C88.0769 8.36094 89.529 8.98299 90.7747 10.2286C92.0203 11.4742 92.6423 12.9263 92.6423 14.5859V68.7526C92.6423 70.4122 92.0203 71.8643 90.7747 73.1099C89.529 74.3556 88.0769 74.9776 86.4173 74.9776H26.0007H25.9903L25.983 74.9849L9.35898 91.6089ZM86.4173 68.7776H86.4423V68.7526V14.5859V14.5609H86.4173H15.584H15.559V14.5859V77.0859V77.1498L15.6023 77.1029L23.3032 68.7776H86.4173Z" fill="#E3E3E3" stroke="#E3E3E3" stroke-width="0.05"/>
<path d="M51.8657 63.5443C52.8333 63.5443 53.6503 63.2102 54.3166 62.5422C54.983 61.8741 55.3162 61.0563 55.3162 60.0887C55.3162 59.1211 54.9822 58.3042 54.3141 57.6378C53.646 56.9714 52.8282 56.6382 51.8606 56.6382C50.8931 56.6382 50.0761 56.9723 49.4097 57.6403C48.7434 58.3084 48.4102 59.1262 48.4102 60.0938C48.4102 61.0614 48.7442 61.8783 49.4123 62.5447C50.0803 63.2111 50.8982 63.5443 51.8657 63.5443ZM48.8645 50.0957H54.044C54.044 49.187 54.1046 48.3843 54.2258 47.6877C54.3469 46.991 54.559 46.3095 54.8619 45.6431C55.1648 44.9767 55.5888 44.3104 56.134 43.644C56.6792 42.9776 57.3499 42.2463 58.1461 41.4502C60.1366 39.4597 61.5256 37.6921 62.3131 36.1473C63.1006 34.6026 63.4944 32.9821 63.4944 31.2858C63.4944 28.0752 62.4645 25.5308 60.4049 23.6529C58.3452 21.7749 55.573 20.8359 52.0883 20.8359C48.9463 20.8359 46.2756 21.578 44.0763 23.0622C41.8769 24.5464 40.2623 26.591 39.2324 29.1959L44.0485 31.195C44.8966 29.4988 45.9931 28.2115 47.3379 27.3331C48.6828 26.4547 50.2518 26.0155 52.0449 26.0155C53.9835 26.0155 55.5131 26.5001 56.6338 27.4694C57.7545 28.4386 58.3149 29.7743 58.3149 31.4765C58.3149 32.6821 57.9817 33.8453 57.3153 34.966C56.6489 36.0868 55.5282 37.4191 53.9532 38.9631C52.9233 39.9028 52.0904 40.7622 51.4543 41.541C50.8182 42.3199 50.2881 43.142 49.8641 44.0075C49.5053 44.8783 49.2489 45.7927 49.0951 46.7506C48.9414 47.7085 48.8645 48.8235 48.8645 50.0957Z" fill="#E3E3E3" stroke="#E3E3E3" stroke-width="1.5"/>
</g>
</svg>
