<svg width="24"
height="24"
viewBox="0 0 24 24"
fill="none"
xmlns="http://www.w3.org/2000/svg">
<mask id="mask0_1262_7457"
      style="mask-type: alpha"
      maskUnits="userSpaceOnUse"
      x="0"
      y="0"
      width="24"
      height="24">
      <rect width="24"
            height="24"
            fill="#D9D9D9" />
</mask>
<g mask="url(#mask0_1262_7457)">
      <path id="heart_stroke"
            d="M17.2714 15.4213C16.1797 16.5131 14.7951 17.815 13.1157 19.3281C13.1156 19.3282 13.1155 19.3283 13.1153 19.3284L12 20.3284L10.8847 19.3284C10.8845 19.3283 10.8844 19.3282 10.8843 19.3281C9.20494 17.815 7.82026 16.5131 6.72855 15.4213C5.63918 14.332 4.78211 13.3633 4.15137 12.5142C3.52024 11.6646 3.09558 10.9051 2.85909 10.2338C2.61929 9.55304 2.5 8.85918 2.5 8.1499C2.5 6.70773 2.97791 5.5291 3.92855 4.57846C4.8792 3.62781 6.05783 3.1499 7.5 3.1499C8.29356 3.1499 9.04619 3.3172 9.76303 3.65275C10.4807 3.98866 11.0982 4.46103 11.619 5.07373L12 5.52193L12.381 5.07373C12.9018 4.46103 13.5193 3.98866 14.237 3.65275C14.9538 3.3172 15.7064 3.1499 16.5 3.1499C17.9422 3.1499 19.1208 3.62781 20.0714 4.57846C21.0221 5.5291 21.5 6.70773 21.5 8.1499C21.5 8.85918 21.3807 9.55304 21.1409 10.2338C20.9044 10.9051 20.4798 11.6646 19.8486 12.5142C19.2179 13.3633 18.3608 14.332 17.2714 15.4213Z"
            stroke="#999999" />
</g>
</svg>