<svg width="24" height="24" viewBox="0 0 24 24" fill="none" xmlns="http://www.w3.org/2000/svg">
<mask id="mask0_425_6419" style="mask-type:alpha" maskUnits="userSpaceOnUse" x="0" y="0" width="24" height="24">
<rect width="24" height="24" fill="#D9D9D9"/>
</mask>
<g mask="url(#mask0_425_6419)">
<path d="M14.75 18.9999H8.36537C7.90512 18.9999 7.52083 18.8457 7.2125 18.5374C6.90417 18.229 6.75 17.8447 6.75 17.3845V6.99986H7.75V17.3845C7.75 17.5383 7.8141 17.6793 7.9423 17.8076C8.07052 17.9358 8.21154 17.9999 8.36537 17.9999H14.75V18.9999ZM10.75 6.49986C10.2769 6.49986 9.87662 6.33608 9.54905 6.00851C9.22148 5.68094 9.0577 5.28062 9.0577 4.80753C9.0577 4.33447 9.22148 3.93415 9.54905 3.60658C9.87662 3.27902 10.2769 3.11523 10.75 3.11523C11.2231 3.11523 11.6234 3.27902 11.951 3.60658C12.2785 3.93415 12.4423 4.33447 12.4423 4.80753C12.4423 5.28062 12.2785 5.68094 11.951 6.00851C11.6234 6.33608 11.2231 6.49986 10.75 6.49986ZM16.25 21.4999V16.9999H10.25C9.8282 16.9999 9.47275 16.8553 9.18365 16.5662C8.89455 16.2771 8.75 15.9217 8.75 15.4999V9.73064C8.75 9.15884 8.94038 8.68255 9.32115 8.30179C9.70192 7.92102 10.1782 7.73064 10.75 7.73064C11.3218 7.73064 11.7981 7.92102 12.1788 8.30179C12.5596 8.68255 12.75 9.15884 12.75 9.73064V14.9999H15.75C16.1718 14.9999 16.5273 15.1444 16.8163 15.4335C17.1054 15.7226 17.25 16.0781 17.25 16.4999V21.4999H16.25Z" fill="#181A1B"/>
</g>
</svg>
