<svg width="100" height="120" viewBox="0 0 100 120" fill="none" xmlns="http://www.w3.org/2000/svg">
<g opacity="0.3">
<path opacity="0.3" d="M69.8338 24.6223C67.0999 24.621 64.4783 23.5344 62.5451 21.6012C60.6119 19.668 59.5253 17.0464 59.5239 14.3124V0.00250244H13.4548C11.6875 0.00250232 9.93751 0.350669 8.30478 1.02715C6.67205 1.70364 5.18847 2.69517 3.93902 3.9451C2.68956 5.19504 1.69868 6.67889 1.02281 8.3119C0.346939 9.9449 -0.000655825 11.6951 9.28927e-07 13.4624V94.5669C-0.000655825 96.3342 0.346939 98.0844 1.02281 99.7174C1.69868 101.35 2.68956 102.834 3.93902 104.084C5.18847 105.334 6.67205 106.326 8.30478 107.002C9.93751 107.679 11.6875 108.027 13.4548 108.027H68.7538C70.5211 108.027 72.2711 107.679 73.9038 107.002C75.5365 106.326 77.02 105.334 78.2695 104.084C79.5189 102.834 80.5099 101.35 81.1858 99.7174C81.8617 98.0844 82.2092 96.3342 82.2086 94.5669V24.6273L69.8338 24.6223Z" fill="#00C650"/>
</g>
<path d="M82.2085 24.62H69.8335C67.0995 24.6187 64.4779 23.532 62.5447 21.5988C60.6115 19.6656 59.5248 17.044 59.5234 14.31V0L82.2085 24.62Z" fill="#00C650"/>
<path d="M91.9706 85.3002H29.4518C25.017 85.3002 21.4219 88.8954 21.4219 93.3302V111.97C21.4219 116.405 25.017 120 29.4518 120H91.9706C96.4054 120 100 116.405 100 111.97V93.3302C100 88.8954 96.4054 85.3002 91.9706 85.3002Z" fill="#00C650"/>
<path d="M42.1086 106.683V110.323H38.3438V106.683H42.1086Z" fill="white"/>
<path d="M53.2842 95.2884V105.558C53.2842 107.135 52.8558 108.347 51.9991 109.193C51.5209 109.634 50.9589 109.975 50.3464 110.194C49.7339 110.413 49.0836 110.506 48.4342 110.468C47.723 110.507 47.0112 110.403 46.3401 110.165C45.669 109.926 45.0517 109.557 44.5242 109.078C43.5608 108.148 43.0776 106.815 43.0742 105.078H46.6692C46.6692 106.483 47.2042 107.183 48.2642 107.183C49.1892 107.183 49.6492 106.643 49.6492 105.568V95.2984L53.2842 95.2884Z" fill="white"/>
<path d="M59.3147 105.048V110.323H55.6797V95.2884H61.5697C63.353 95.2884 64.713 95.7301 65.6497 96.6134C66.1237 97.0779 66.4939 97.6376 66.7361 98.2555C66.9782 98.8734 67.0869 99.5356 67.0547 100.198C67.0684 101.072 66.8529 101.934 66.4297 102.698C65.9943 103.444 65.3468 104.043 64.5697 104.418C63.6336 104.863 62.6055 105.079 61.5697 105.048H59.3147ZM63.3546 100.198C63.3546 98.8651 62.6247 98.1985 61.1647 98.1985H59.3147V102.113H61.1647C62.6247 102.127 63.3546 101.488 63.3546 100.198V100.198Z" fill="white"/>
<path d="M80.5402 96.5009C81.7507 97.4113 82.5652 98.752 82.8152 100.246H78.9652C78.7046 99.7227 78.2937 99.2892 77.7852 99.0009C77.2125 98.6607 76.5561 98.4875 75.8901 98.5009C75.3732 98.4799 74.8579 98.5728 74.3809 98.7733C73.9039 98.9738 73.4769 99.2768 73.1301 99.6609C72.3968 100.536 72.0234 101.656 72.0852 102.796C72.0852 104.226 72.4502 105.324 73.1802 106.091C73.5907 106.489 74.0798 106.797 74.6162 106.995C75.1526 107.193 75.7245 107.277 76.2952 107.241C77.111 107.256 77.9095 107.005 78.5702 106.526C79.2448 106.022 79.7322 105.308 79.9552 104.496H75.3601V101.881H82.9951V105.476C82.7034 106.371 82.2417 107.201 81.6351 107.921C80.9783 108.697 80.1612 109.321 79.2401 109.751C78.1988 110.232 77.0621 110.471 75.9152 110.451C74.5201 110.488 73.1401 110.155 71.9152 109.486C70.7946 108.856 69.8823 107.912 69.2902 106.771C68.6539 105.535 68.336 104.16 68.3651 102.771C68.3401 101.39 68.658 100.024 69.2902 98.7959C69.8813 97.6573 70.7895 96.7143 71.9052 96.0809C73.1122 95.4175 74.4731 95.0845 75.8501 95.1159C77.524 95.0429 79.1745 95.5303 80.5402 96.5009V96.5009Z" fill="white"/>
<path d="M52.1501 73.2034H30.0652C27.9032 73.2007 25.8304 72.3407 24.3016 70.8119C22.7728 69.2831 21.9128 67.2104 21.9102 65.0483V42.9634C21.9128 40.8014 22.7728 38.7286 24.3016 37.1998C25.8304 35.671 27.9032 34.811 30.0652 34.8083H52.1501C54.3117 34.811 56.3839 35.6712 57.9119 37.2001C59.4399 38.7291 60.2988 40.8018 60.3002 42.9634V65.0483C60.2988 67.2099 59.4399 69.2827 57.9119 70.8116C56.3839 72.3405 54.3117 73.2007 52.1501 73.2034ZM30.0652 38.4133C28.8589 38.4147 27.7022 38.8945 26.8492 39.7475C25.9962 40.6005 25.5165 41.7571 25.5151 42.9634V65.0483C25.5165 66.2547 25.9962 67.4112 26.8492 68.2642C27.7022 69.1172 28.8589 69.597 30.0652 69.5983H52.1501C53.356 69.597 54.512 69.1171 55.3643 68.2639C56.2165 67.4108 56.6952 66.2542 56.6952 65.0483V42.9634C56.6952 41.7575 56.2165 40.6009 55.3643 39.7478C54.512 38.8947 53.356 38.4147 52.1501 38.4133H30.0652Z" fill="#00C650"/>
<path d="M58.4998 60.8496V65.0496C58.4984 66.7333 57.829 68.3477 56.6384 69.5383C55.4479 70.7288 53.8335 71.3983 52.1498 71.3997H30.0648C28.3807 71.3997 26.7656 70.7306 25.5747 69.5397C24.3839 68.3489 23.7148 66.7337 23.7148 65.0496V57.9996C27.2498 57.2396 32.6348 56.9996 39.1698 59.6096L43.2198 55.7496L45.9797 62.7496C45.9797 62.7496 46.7197 60.1746 49.1097 60.5396C51.4997 60.9046 55.3698 62.1996 57.0248 61.0946C57.4707 60.8374 57.9946 60.7504 58.4998 60.8496Z" fill="#00C650"/>
<path d="M50.7635 47.4761C52.1194 47.4761 53.2186 46.377 53.2186 45.0211C53.2186 43.6653 52.1194 42.5661 50.7635 42.5661C49.4077 42.5661 48.3086 43.6653 48.3086 45.0211C48.3086 46.377 49.4077 47.4761 50.7635 47.4761Z" fill="#00C650"/>
</svg>
