<svg width="100" height="120" viewBox="0 0 100 120" fill="none" xmlns="http://www.w3.org/2000/svg">
<g opacity="0.3">
<path opacity="0.3" d="M69.8337 24.6265C67.1002 24.6239 64.4794 23.5368 62.5465 21.604C60.6136 19.6711 59.5265 17.0503 59.5239 14.3169V0.00250244H13.4547C9.88631 0.00250244 6.46407 1.42006 3.94081 3.94327C1.41756 6.46647 0 9.88858 0 13.4569V94.5638C0.00529908 98.1286 1.42518 101.546 3.94786 104.065C6.47054 106.583 9.88978 107.998 13.4547 107.998H68.7587C72.3237 107.998 75.7429 106.583 78.2656 104.065C80.7883 101.546 82.2082 98.1286 82.2135 94.5638V24.6265H69.8337Z" fill="#FF3E4C"/>
</g>
<path d="M82.2134 24.625H69.8334C67.0999 24.6224 64.479 23.5352 62.5461 21.6023C60.6132 19.6694 59.5261 17.0485 59.5234 14.3149V0L82.2134 24.625Z" fill="#FF3E4C"/>
<path d="M65.2987 75.418H13.6797C13.1824 75.418 12.7055 75.2204 12.3538 74.8688C12.0022 74.5171 11.8047 74.0402 11.8047 73.543C11.806 73.0466 12.0041 72.5709 12.3556 72.2203C12.7071 71.8698 13.1832 71.673 13.6797 71.673H65.2987C65.7946 71.673 66.2703 71.8699 66.621 72.2206C66.9716 72.5713 67.1686 73.047 67.1686 73.543C67.1693 73.789 67.1214 74.0327 67.0277 74.2601C66.9341 74.4876 66.7964 74.6942 66.6227 74.8684C66.449 75.0426 66.2427 75.1809 66.0155 75.2751C65.7883 75.3694 65.5447 75.418 65.2987 75.418Z" fill="#FF3E4C"/>
<path d="M65.2987 54.2977H13.6797C13.1832 54.2977 12.7071 54.1008 12.3556 53.7502C12.0041 53.3997 11.806 52.9241 11.8047 52.4277C11.8047 51.9304 12.0022 51.4534 12.3538 51.1018C12.7055 50.7501 13.1824 50.5527 13.6797 50.5527H65.2987C65.5447 50.5527 65.7883 50.6012 66.0155 50.6955C66.2427 50.7898 66.449 50.928 66.6227 51.1021C66.7964 51.2763 66.9341 51.4831 67.0277 51.7105C67.1214 51.938 67.1693 52.1817 67.1686 52.4277C67.1686 52.9237 66.9716 53.3993 66.621 53.75C66.2703 54.1007 65.7946 54.2977 65.2987 54.2977Z" fill="#FF3E4C"/>
<path d="M65.2987 64.8559H13.6797C13.1824 64.8559 12.7055 64.6583 12.3538 64.3067C12.0022 63.9551 11.8047 63.4782 11.8047 62.9809C11.806 62.4845 12.0041 62.0088 12.3556 61.6583C12.7071 61.3077 13.1832 61.1109 13.6797 61.1109H65.2987C65.7946 61.1109 66.2703 61.3079 66.621 61.6586C66.9716 62.0093 67.1686 62.4849 67.1686 62.9809C67.1693 63.2269 67.1214 63.4706 67.0277 63.6981C66.9341 63.9255 66.7964 64.1323 66.6227 64.3065C66.449 64.4806 66.2427 64.6188 66.0155 64.7131C65.7883 64.8074 65.5447 64.8559 65.2987 64.8559Z" fill="#FF3E4C"/>
<path d="M44.9397 43.7395H13.6797C13.1833 43.7395 12.7071 43.5427 12.3556 43.1922C12.0041 42.8416 11.806 42.366 11.8047 41.8695C11.8047 41.3723 12.0022 40.8954 12.3539 40.5437C12.7055 40.1921 13.1824 39.9945 13.6797 39.9945H44.9397C45.4361 39.9959 45.9117 40.194 46.2623 40.5454C46.6128 40.8969 46.8097 41.3731 46.8097 41.8695C46.8084 42.3651 46.6109 42.8399 46.2605 43.1903C45.9101 43.5407 45.4352 43.7382 44.9397 43.7395V43.7395Z" fill="#FF3E4C"/>
<path d="M44.9397 33.1774H13.6797C13.1833 33.1774 12.7071 32.9805 12.3556 32.6299C12.0041 32.2794 11.806 31.8038 11.8047 31.3074C11.8047 30.8102 12.0022 30.3331 12.3539 29.9815C12.7055 29.6299 13.1824 29.4324 13.6797 29.4324H44.9397C45.4361 29.4338 45.9117 29.6319 46.2623 29.9833C46.6128 30.3348 46.8097 30.811 46.8097 31.3074C46.8084 31.803 46.6109 32.2778 46.2605 32.6282C45.9101 32.9786 45.4352 33.1761 44.9397 33.1774Z" fill="#FF3E4C"/>
<path d="M91.9706 85.3014H29.4517C25.017 85.3014 21.4219 88.8964 21.4219 93.331V111.97C21.4219 116.405 25.017 120 29.4517 120H91.9706C96.4053 120 100 116.405 100 111.97V93.331C100 88.8964 96.4053 85.3014 91.9706 85.3014Z" fill="#FF3E4C"/>
<path d="M41.9319 106.687V110.322H38.1719V106.687H41.9319Z" fill="white"/>
<path d="M47.4592 105.045V110.32H43.8242V95.2853H49.7142C51.4992 95.2853 52.8642 95.7303 53.7992 96.6153C54.2724 97.0802 54.6417 97.64 54.883 98.2579C55.1243 98.8758 55.2321 99.5377 55.1992 100.2C55.2174 101.074 55.0016 101.938 54.5742 102.7C54.1377 103.446 53.4906 104.046 52.7142 104.425C51.7777 104.868 50.7496 105.082 49.7142 105.05L47.4592 105.045ZM51.4992 100.2C51.4992 98.8669 50.7692 98.2003 49.3092 98.2003H47.4592V102.115H49.3092C50.7692 102.129 51.4992 101.49 51.4992 100.2Z" fill="white"/>
<path d="M69.5633 106.698C68.9373 107.835 67.9916 108.763 66.8433 109.368C65.5512 110.03 64.1144 110.358 62.6633 110.323H56.9883V95.2881H62.6633C64.1155 95.2516 65.5544 95.5726 66.8533 96.2231C67.9984 96.8149 68.9417 97.7339 69.5633 98.8631C70.2139 100.062 70.5412 101.409 70.5133 102.773C70.5404 104.141 70.2132 105.494 69.5633 106.698V106.698ZM65.6533 105.943C66.0597 105.526 66.3746 105.028 66.5778 104.483C66.781 103.937 66.868 103.355 66.8333 102.773C66.8682 102.192 66.7813 101.611 66.5781 101.066C66.3749 100.521 66.0599 100.024 65.6533 99.6081C64.7439 98.8101 63.5559 98.4039 62.3483 98.4781H60.6233V107.068H62.3483C63.5549 107.141 64.742 106.737 65.6533 105.943V105.943Z" fill="white"/>
<path d="M82.3792 95.2853V98.1804H76.2142V101.475H80.9742V104.24H76.2142V110.32H72.5742V95.2853H82.3792Z" fill="white"/>
<path d="M64.3839 29.4324H55.5439C54.003 29.4324 52.7539 30.6816 52.7539 32.2224V41.0624C52.7539 42.6033 54.003 43.8524 55.5439 43.8524H64.3839C65.9248 43.8524 67.1739 42.6033 67.1739 41.0624V32.2224C67.1739 30.6816 65.9248 29.4324 64.3839 29.4324Z" fill="#FF3E4C"/>
</svg>
