<svg width="100" height="120" viewBox="0 0 100 120" fill="none" xmlns="http://www.w3.org/2000/svg">
<g opacity="0.3">
<path opacity="0.3" d="M78.835 24.6275C76.1015 24.6249 73.4806 23.5377 71.5477 21.6048C69.6147 19.6719 68.5277 17.051 68.525 14.3174V0.00250337H22.46C20.6927 0.0018466 18.9425 0.349325 17.3094 1.02521C15.6764 1.70109 14.1926 2.69211 12.9427 3.94159C11.6927 5.19107 10.7012 6.67455 10.0247 8.30731C9.34823 9.94007 9 11.6901 9 13.4575V94.5674C9 96.3348 9.34823 98.085 10.0247 99.7177C10.7012 101.35 11.6927 102.834 12.9427 104.083C14.1926 105.333 15.6764 106.324 17.3094 107C18.9425 107.676 20.6927 108.023 22.46 108.023H77.76C79.5269 108.023 81.2766 107.675 82.909 106.998C84.5414 106.322 86.0248 105.331 87.2742 104.082C88.5236 102.832 89.5146 101.349 90.1908 99.7165C90.867 98.0841 91.215 96.3344 91.215 94.5674V24.6275H78.835Z" fill="#464646"/>
</g>
<path d="M91.2134 24.625H78.8334C76.0999 24.6224 73.479 23.5352 71.5461 21.6023C69.6132 19.6694 68.5261 17.0485 68.5234 14.3149V0L91.2134 24.625Z" fill="#464646"/>
<path d="M74.2987 41.8661H22.6786C22.1826 41.8661 21.707 41.6691 21.3563 41.3184C21.0056 40.9677 20.8086 40.492 20.8086 39.9961C20.8079 39.7501 20.8558 39.5064 20.9495 39.2789C21.0432 39.0515 21.1808 38.8447 21.3546 38.6705C21.5283 38.4964 21.7347 38.3582 21.9619 38.2639C22.1891 38.1696 22.4326 38.1211 22.6786 38.1211H74.2987C74.7959 38.1211 75.2728 38.3187 75.6245 38.6703C75.9761 39.0219 76.1737 39.4988 76.1737 39.9961C76.1723 40.4925 75.9742 40.9682 75.6227 41.3187C75.2712 41.6693 74.7951 41.8661 74.2987 41.8661V41.8661Z" fill="#464646"/>
<path d="M74.2987 53.0497H22.6786C22.1826 53.0497 21.707 52.8526 21.3563 52.502C21.0056 52.1513 20.8086 51.6756 20.8086 51.1797C20.8079 50.9337 20.8558 50.69 20.9495 50.4625C21.0432 50.2351 21.1808 50.0283 21.3546 49.8541C21.5283 49.68 21.7347 49.5418 21.9619 49.4475C22.1891 49.3532 22.4326 49.3047 22.6786 49.3047H74.2987C74.7959 49.3047 75.2728 49.5021 75.6245 49.8538C75.9761 50.2054 76.1737 50.6824 76.1737 51.1797C76.1723 51.6761 75.9742 52.1516 75.6227 52.5022C75.2712 52.8527 74.7951 53.0497 74.2987 53.0497V53.0497Z" fill="#464646"/>
<path d="M74.2987 64.2333H22.6786C22.4326 64.2333 22.1891 64.1847 21.9619 64.0905C21.7347 63.9962 21.5283 63.858 21.3546 63.6838C21.1808 63.5097 21.0432 63.3029 20.9495 63.0754C20.8558 62.848 20.8079 62.6043 20.8086 62.3583C20.8086 61.8623 21.0056 61.3867 21.3563 61.036C21.707 60.6853 22.1826 60.4883 22.6786 60.4883H74.2987C74.7951 60.4883 75.2712 60.6851 75.6227 61.0356C75.9742 61.3862 76.1723 61.8619 76.1737 62.3583C76.1737 62.8556 75.9761 63.3325 75.6245 63.6841C75.2728 64.0357 74.7959 64.2333 74.2987 64.2333Z" fill="#464646"/>
<path d="M53.9386 75.4208H22.6786C22.4326 75.4208 22.1891 75.3722 21.9619 75.278C21.7347 75.1837 21.5283 75.0454 21.3546 74.8712C21.1808 74.697 21.0432 74.4904 20.9495 74.2629C20.8558 74.0355 20.8079 73.7918 20.8086 73.5458C20.8086 73.0498 21.0056 72.5741 21.3563 72.2234C21.707 71.8727 22.1826 71.6758 22.6786 71.6758H53.9386C54.4346 71.6758 54.9102 71.8727 55.2609 72.2234C55.6116 72.5741 55.8086 73.0498 55.8086 73.5458C55.8093 73.7918 55.7614 74.0355 55.6677 74.2629C55.5741 74.4904 55.4364 74.697 55.2627 74.8712C55.089 75.0454 54.8826 75.1837 54.6554 75.278C54.4282 75.3722 54.1846 75.4208 53.9386 75.4208Z" fill="#464646"/>
<path d="M77.584 85H35.416C32.4248 85 30 88.6262 30 93.0994V111.901C30 116.374 32.4248 120 35.416 120H77.584C80.5752 120 83 116.374 83 111.901V93.0994C83 88.6262 80.5752 85 77.584 85Z" fill="#464646"/>
<path d="M47.1088 106.691V110.326H43.3438V106.691H47.1088Z" fill="white"/>
<g clip-path="url(#clip0_1459_14312)">
<path d="M54.1147 107.408L58.4495 102.93L52.1641 101.758L53.8438 96.9067L59.5332 99.6254L58.7205 93.4417H63.8681L63.0011 99.6254L68.7447 96.9067L70.3703 101.758L64.0848 102.93L68.4738 107.408L64.2474 110.394L61.2672 104.903L58.2328 110.394L54.1147 107.408Z" fill="white"/>
</g>
<defs>
<clipPath id="clip0_1459_14312">
<rect width="19" height="18" fill="white" transform="translate(52 93)"/>
</clipPath>
</defs>
</svg>