<svg width="100" height="120" viewBox="0 0 100 120" fill="none" xmlns="http://www.w3.org/2000/svg">
<g opacity="0.3">
<path opacity="0.3" d="M69.831 24.6275C67.0976 24.6249 64.4769 23.5377 62.544 21.6048C60.6112 19.6719 59.5242 17.051 59.5215 14.3174V0.00250337H13.4592C11.692 0.0018466 9.94189 0.349325 8.30897 1.02521C6.67605 1.70109 5.19227 2.69211 3.9424 3.94159C2.69253 5.19107 1.70105 6.67455 1.0246 8.30731C0.348148 9.94007 -1.22023e-07 11.6901 0 13.4575V94.5674C-1.22023e-07 96.3348 0.348148 98.085 1.0246 99.7177C1.70105 101.35 2.69253 102.834 3.9424 104.083C5.19227 105.333 6.67605 106.324 8.30897 107C9.94189 107.676 11.692 108.023 13.4592 108.023H68.756C72.3243 108.023 75.7464 106.605 78.2696 104.082C80.7927 101.558 82.2102 98.1359 82.2102 94.5674V24.6275H69.831Z" fill="#0072FF"/>
</g>
<path d="M82.2082 24.625H69.829C67.0956 24.6224 64.4749 23.5352 62.5421 21.6023C60.6092 19.6694 59.5222 17.0485 59.5195 14.3149V0L82.2082 24.625Z" fill="#0072FF"/>
<path d="M65.2955 41.8661H13.6785C13.1826 41.8661 12.707 41.6691 12.3563 41.3184C12.0056 40.9677 11.8086 40.492 11.8086 39.9961C11.8079 39.7501 11.8558 39.5064 11.9495 39.2789C12.0432 39.0515 12.1808 38.8447 12.3545 38.6705C12.5282 38.4964 12.7345 38.3582 12.9617 38.2639C13.1889 38.1696 13.4325 38.1211 13.6785 38.1211H65.2955C65.7927 38.1211 66.2696 38.3187 66.6212 38.6703C66.9728 39.0219 67.1704 39.4988 67.1704 39.9961C67.1691 40.4925 66.9709 40.9682 66.6195 41.3187C66.268 41.6693 65.7919 41.8661 65.2955 41.8661V41.8661Z" fill="#0072FF"/>
<path d="M65.2955 53.0497H13.6785C13.1826 53.0497 12.707 52.8526 12.3563 52.502C12.0056 52.1513 11.8086 51.6756 11.8086 51.1797C11.8079 50.9337 11.8558 50.69 11.9495 50.4625C12.0432 50.2351 12.1808 50.0283 12.3545 49.8541C12.5282 49.68 12.7345 49.5418 12.9617 49.4475C13.1889 49.3532 13.4325 49.3047 13.6785 49.3047H65.2955C65.7927 49.3047 66.2696 49.5021 66.6212 49.8538C66.9728 50.2054 67.1704 50.6824 67.1704 51.1797C67.1691 51.6761 66.9709 52.1516 66.6195 52.5022C66.268 52.8527 65.7919 53.0497 65.2955 53.0497V53.0497Z" fill="#0072FF"/>
<path d="M65.2955 64.2333H13.6785C13.4325 64.2333 13.1889 64.1847 12.9617 64.0905C12.7345 63.9962 12.5282 63.858 12.3545 63.6838C12.1808 63.5097 12.0432 63.3029 11.9495 63.0754C11.8558 62.848 11.8079 62.6043 11.8086 62.3583C11.8086 61.8623 12.0056 61.3867 12.3563 61.036C12.707 60.6853 13.1826 60.4883 13.6785 60.4883H65.2955C65.7919 60.4883 66.268 60.6851 66.6195 61.0356C66.9709 61.3862 67.1691 61.8619 67.1704 62.3583C67.1704 62.8556 66.9728 63.3325 66.6212 63.6841C66.2696 64.0357 65.7927 64.2333 65.2955 64.2333Z" fill="#0072FF"/>
<path d="M44.9267 75.4208H13.6785C13.4325 75.4208 13.1889 75.3722 12.9617 75.278C12.7345 75.1837 12.5282 75.0454 12.3545 74.8712C12.1808 74.697 12.0432 74.4904 11.9495 74.2629C11.8558 74.0355 11.8079 73.7918 11.8086 73.5458C11.8086 73.0498 12.0056 72.5741 12.3563 72.2234C12.707 71.8727 13.1826 71.6758 13.6785 71.6758H44.9267C45.4226 71.6758 45.8982 71.8727 46.2489 72.2234C46.5995 72.5741 46.7966 73.0498 46.7966 73.5458C46.7972 73.7918 46.7493 74.0355 46.6556 74.2629C46.562 74.4904 46.4243 74.697 46.2506 74.8712C46.0769 75.0454 45.8706 75.1837 45.6434 75.278C45.4162 75.3722 45.1727 75.4208 44.9267 75.4208Z" fill="#0072FF"/>
<path d="M91.9717 85.3047H29.4553C25.0207 85.3047 21.4258 88.8998 21.4258 93.3347V111.975C21.4258 116.41 25.0207 120.005 29.4553 120.005H91.9717C96.4063 120.005 100.001 116.41 100.001 111.975V93.3347C100.001 88.8998 96.4063 85.3047 91.9717 85.3047Z" fill="#0072FF"/>
<path d="M30.5892 106.691V110.326H26.8242V106.691H30.5892Z" fill="white"/>
<path d="M45.0605 106.702C44.4331 107.837 43.4877 108.765 42.3405 109.372C41.0482 110.033 39.6115 110.361 38.1605 110.327H32.4805V95.2917H38.1605C39.6125 95.2564 41.0512 95.5773 42.3505 96.2266C43.4942 96.8204 44.437 97.7389 45.0605 98.8666C45.7069 100.067 46.0325 101.414 46.0055 102.777C46.0312 104.144 45.7059 105.496 45.0605 106.702ZM41.1505 105.947C41.5569 105.529 41.8718 105.032 42.075 104.486C42.2782 103.94 42.3652 103.358 42.3305 102.777C42.3655 102.196 42.2785 101.614 42.0753 101.069C41.8721 100.524 41.557 100.028 41.1505 99.6116C40.2395 98.8129 39.0497 98.4067 37.8405 98.4816H36.1205V107.072H37.8405C39.0487 107.146 40.2376 106.742 41.1505 105.947Z" fill="white"/>
<path d="M59.0709 96.0433C60.2149 96.693 61.1604 97.6419 61.8059 98.7883C62.4826 99.9989 62.8275 101.367 62.8059 102.753C62.8312 104.144 62.4861 105.515 61.8059 106.728C61.1617 107.88 60.214 108.833 59.0659 109.483C57.8971 110.151 56.5719 110.496 55.2259 110.483C53.8799 110.496 52.5548 110.151 51.3859 109.483C50.2379 108.833 49.2901 107.88 48.6459 106.728C47.9657 105.515 47.6206 104.144 47.6459 102.753C47.62 101.366 47.9652 99.9972 48.6459 98.7883C49.2934 97.6417 50.2406 96.6929 51.3859 96.0433C52.5548 95.3758 53.8799 95.0307 55.2259 95.0433C56.5734 95.0315 57.9 95.3765 59.0709 96.0433ZM52.3709 99.5932C51.6333 100.476 51.2581 101.605 51.3209 102.753C51.2579 103.897 51.6334 105.022 52.3709 105.898C52.7302 106.289 53.1706 106.596 53.6613 106.798C54.1519 107 54.6808 107.092 55.2109 107.068C55.7392 107.09 56.2661 106.997 56.7548 106.795C57.2435 106.593 57.6823 106.287 58.0409 105.898C58.782 105.023 59.1612 103.898 59.1009 102.753C59.1609 101.61 58.7858 100.486 58.0509 99.6082C57.6918 99.2175 57.2514 98.9102 56.7608 98.7081C56.2701 98.5059 55.741 98.4138 55.2109 98.4382C54.6822 98.4139 54.1544 98.5047 53.6641 98.7041C53.1738 98.9035 52.7326 99.2068 52.3709 99.5932Z" fill="white"/>
<path d="M76.4661 96.6519C77.7343 97.6837 78.5967 99.1306 78.9011 100.737H75.0512C74.7914 100.071 74.3365 99.4995 73.7462 99.0968C73.1239 98.6917 72.3935 98.4843 71.6511 98.5018C71.1609 98.4861 70.6737 98.5835 70.2271 98.7864C69.7806 98.9893 69.3868 99.2923 69.0762 99.6719C68.3803 100.563 68.0257 101.673 68.0762 102.802C68.0253 103.927 68.3802 105.032 69.0762 105.917C69.3893 106.293 69.784 106.592 70.2302 106.792C70.6764 106.992 71.1624 107.088 71.6511 107.072C72.3938 107.092 73.1248 106.884 73.7462 106.477C74.3332 106.081 74.7879 105.519 75.0512 104.862H78.9011C78.5917 106.463 77.73 107.906 76.4661 108.937C75.1061 109.975 73.4259 110.506 71.7161 110.437C70.369 110.465 69.0391 110.13 67.8662 109.467C66.7685 108.829 65.8779 107.888 65.3012 106.757C64.6798 105.517 64.3692 104.144 64.3961 102.757C64.3694 101.37 64.68 99.9972 65.3012 98.7569C65.8779 97.6258 66.7685 96.6849 67.8662 96.0469C69.0391 95.3836 70.369 95.0484 71.7161 95.0768C73.4348 95.0313 75.1152 95.5886 76.4661 96.6519Z" fill="white"/>
<path d="M90.0644 110.324L86.8943 105.644L84.1744 110.324H80.0044L84.8144 102.584L79.8594 95.2891H84.1744L87.2594 99.819L89.9144 95.2891H94.0644L89.3194 102.859L94.3794 110.324H90.0644Z" fill="white"/>
</svg>
