<svg width="100" height="120" viewBox="0 0 100 120" fill="none" xmlns="http://www.w3.org/2000/svg">
<g opacity="0.3">
<path opacity="0.3" d="M69.831 24.6265C67.0976 24.6239 64.4769 23.5368 62.5441 21.604C60.6113 19.6711 59.5243 17.0503 59.5216 14.3169V0.00250337H13.4593C11.692 0.00184663 9.94189 0.349312 8.30897 1.02517C6.67605 1.70103 5.19233 2.69201 3.94246 3.94144C2.69259 5.19087 1.70111 6.67429 1.02466 8.30699C0.34821 9.93969 -1.22023e-07 11.6896 0 13.4569V94.5638C-1.22023e-07 96.331 0.34821 98.0811 1.02466 99.7138C1.70111 101.347 2.69259 102.83 3.94246 104.079C5.19233 105.329 6.67605 106.32 8.30897 106.996C9.94189 107.671 11.692 108.019 13.4593 108.018H68.7561C70.5229 108.018 72.2724 107.67 73.9048 106.994C75.5371 106.318 77.0203 105.327 78.2697 104.078C79.519 102.828 80.51 101.345 81.1861 99.7126C81.8623 98.0802 82.2103 96.3306 82.2103 94.5638V24.6265H69.831Z" fill="#0072FF"/>
</g>
<path d="M82.2082 24.624H69.8289C67.0955 24.6214 64.4748 23.5343 62.542 21.6015C60.6092 19.6686 59.5222 17.0478 59.5195 14.3144V0L82.2082 24.624Z" fill="#0072FF"/>
<path d="M65.2956 41.8644H13.6785C13.1826 41.8644 12.707 41.6674 12.3563 41.3167C12.0056 40.9661 11.8086 40.4905 11.8086 39.9945C11.8079 39.7485 11.8558 39.5048 11.9495 39.2774C12.0432 39.0499 12.1808 38.8432 12.3545 38.669C12.5282 38.4948 12.7346 38.3567 12.9618 38.2624C13.189 38.1681 13.4325 38.1196 13.6785 38.1196H65.2956C65.7928 38.1196 66.2697 38.3172 66.6213 38.6688C66.9729 39.0204 67.1705 39.4973 67.1705 39.9945C67.1692 40.4909 66.971 40.9666 66.6195 41.3171C66.2681 41.6676 65.792 41.8644 65.2956 41.8644V41.8644Z" fill="#0072FF"/>
<path d="M65.2956 53.0476H13.6785C13.1826 53.0476 12.707 52.8506 12.3563 52.4999C12.0056 52.1492 11.8086 51.6736 11.8086 51.1777C11.8079 50.9317 11.8558 50.688 11.9495 50.4606C12.0432 50.2331 12.1808 50.0264 12.3545 49.8522C12.5282 49.678 12.7346 49.5399 12.9618 49.4456C13.189 49.3513 13.4325 49.3028 13.6785 49.3028H65.2956C65.7928 49.3028 66.2697 49.5002 66.6213 49.8518C66.9729 50.2034 67.1705 50.6804 67.1705 51.1777C67.1692 51.6741 66.971 52.1496 66.6195 52.5001C66.2681 52.8507 65.792 53.0476 65.2956 53.0476V53.0476Z" fill="#0072FF"/>
<path d="M65.2956 64.2308H13.6785C13.4325 64.2308 13.189 64.1822 12.9618 64.088C12.7346 63.9937 12.5282 63.8555 12.3545 63.6814C12.1808 63.5072 12.0432 63.3004 11.9495 63.073C11.8558 62.8455 11.8079 62.6018 11.8086 62.3559C11.8086 61.8599 12.0056 61.3843 12.3563 61.0336C12.707 60.683 13.1826 60.4859 13.6785 60.4859H65.2956C65.792 60.4859 66.2681 60.6827 66.6195 61.0333C66.971 61.3838 67.1692 61.8595 67.1705 62.3559C67.1705 62.8531 66.9729 63.33 66.6213 63.6816C66.2697 64.0332 65.7928 64.2308 65.2956 64.2308Z" fill="#0072FF"/>
<path d="M44.9367 75.4178H13.6785C13.4325 75.4178 13.189 75.3693 12.9618 75.275C12.7346 75.1807 12.5282 75.0425 12.3545 74.8683C12.1808 74.6941 12.0432 74.4875 11.9495 74.26C11.8558 74.0326 11.8079 73.7889 11.8086 73.5429C11.8086 73.047 12.0056 72.5712 12.3563 72.2206C12.707 71.8699 13.1826 71.673 13.6785 71.673H44.9367C45.4326 71.673 45.9083 71.8699 46.259 72.2206C46.6096 72.5712 46.8066 73.047 46.8066 73.5429C46.8073 73.7889 46.7594 74.0326 46.6657 74.26C46.5721 74.4875 46.4344 74.6941 46.2607 74.8683C46.087 75.0425 45.8807 75.1807 45.6535 75.275C45.4263 75.3693 45.1827 75.4178 44.9367 75.4178Z" fill="#0072FF"/>
<path d="M91.9717 85.3014H29.4553C25.0207 85.3014 21.4258 88.8964 21.4258 93.331V111.97C21.4258 116.405 25.0207 120 29.4553 120H91.9717C96.4063 120 100.001 116.405 100.001 111.97V93.331C100.001 88.8964 96.4063 85.3014 91.9717 85.3014Z" fill="#0072FF"/>
<path d="M38.1049 106.687V110.322H34.3398V106.687H38.1049Z" fill="white"/>
<path d="M52.5761 106.698C51.9501 107.835 51.0044 108.763 49.8561 109.368C48.5639 110.029 47.1271 110.357 45.6761 110.323H39.9961V95.2881H45.6761C47.1282 95.2521 48.567 95.5731 49.8661 96.223C51.0098 96.8168 51.9526 97.7352 52.5761 98.863C53.2226 100.063 53.5481 101.41 53.5211 102.773C53.5468 104.141 53.2215 105.492 52.5761 106.698V106.698ZM48.6661 105.943C49.0726 105.526 49.3874 105.028 49.5906 104.483C49.7938 103.937 49.8809 103.354 49.8461 102.773C49.8811 102.192 49.7942 101.611 49.5909 101.066C49.3877 100.521 49.0727 100.024 48.6661 99.608C47.7552 98.8093 46.5654 98.4031 45.3561 98.478H43.6411V107.068H45.3611C46.5676 107.141 47.7546 106.737 48.6661 105.943V105.943Z" fill="white"/>
<path d="M66.5915 96.0396C67.7355 96.6893 68.681 97.6382 69.3265 98.7846C70.0029 99.9952 70.3479 101.363 70.3265 102.75C70.3494 104.14 70.0044 105.511 69.3265 106.725C68.6789 107.875 67.7299 108.828 66.5815 109.48C65.4126 110.147 64.0874 110.492 62.7415 110.48C61.3956 110.491 60.0706 110.146 58.9015 109.48C57.7534 108.829 56.8057 107.876 56.1615 106.725C55.4814 105.512 55.1362 104.14 55.1615 102.75C55.1356 101.362 55.4808 99.9935 56.1615 98.7846C56.809 97.638 57.7561 96.6892 58.9015 96.0396C60.0706 95.3728 61.3956 95.0277 62.7415 95.0396C64.0906 95.0269 65.4191 95.3719 66.5915 96.0396V96.0396ZM59.8915 99.5895C59.1539 100.472 58.7786 101.601 58.8415 102.75C58.7785 103.893 59.154 105.018 59.8915 105.895C60.2508 106.285 60.6912 106.592 61.1818 106.794C61.6725 106.996 62.2014 107.089 62.7315 107.064C63.26 107.087 63.7869 106.994 64.2757 106.792C64.7645 106.59 65.2033 106.284 65.5615 105.895C66.3026 105.02 66.6818 103.895 66.6215 102.75C66.6815 101.606 66.3064 100.482 65.5715 99.6045C65.2124 99.2138 64.772 98.9065 64.2813 98.7044C63.7906 98.5022 63.2617 98.41 62.7315 98.4345C62.2028 98.4102 61.675 98.5009 61.1847 98.7004C60.6944 98.8998 60.2532 99.2031 59.8915 99.5895V99.5895Z" fill="white"/>
<path d="M83.9847 96.6481C85.2528 97.68 86.1154 99.1269 86.4198 100.733H82.5698C82.31 100.067 81.8551 99.4957 81.2648 99.0931C80.6425 98.6879 79.9122 98.4805 79.1698 98.4981C78.6796 98.4824 78.1923 98.5798 77.7457 98.7827C77.2992 98.9856 76.9054 99.2886 76.5948 99.6682C75.8985 100.559 75.5438 101.669 75.5948 102.798C75.5439 103.923 75.8988 105.028 76.5948 105.913C76.9079 106.289 77.3026 106.588 77.7488 106.788C78.195 106.988 78.681 107.084 79.1698 107.068C79.9124 107.088 80.6434 106.88 81.2648 106.473C81.8518 106.078 82.3065 105.515 82.5698 104.858H86.4198C86.1103 106.46 85.2485 107.902 83.9847 108.933C82.6247 109.972 80.9445 110.502 79.2347 110.433C77.8876 110.462 76.5577 110.126 75.3848 109.463C74.2871 108.825 73.3965 107.884 72.8198 106.753C72.2 105.512 71.8911 104.14 71.9198 102.753C71.8915 101.367 72.2003 99.9939 72.8198 98.7531C73.3965 97.622 74.2871 96.6812 75.3848 96.0432C76.5577 95.3799 77.8876 95.0447 79.2347 95.0731C80.9534 95.0276 82.6338 95.5848 83.9847 96.6481Z" fill="white"/>
</svg>
