<svg width="100" height="120" viewBox="0 0 100 120" fill="none" xmlns="http://www.w3.org/2000/svg">
<g opacity="0.3">
<path opacity="0.3" d="M69.8337 24.6223C67.1002 24.6197 64.4794 23.5326 62.5465 21.5997C60.6136 19.6668 59.5265 17.046 59.5239 14.3124V0.00250244H13.4547C9.88631 0.00250244 6.46407 1.42008 3.94081 3.94336C1.41756 6.46665 0 9.88894 0 13.4574V94.5669C0.00529908 98.1319 1.42518 101.549 3.94786 104.068C6.47054 106.587 9.88978 108.002 13.4547 108.002H68.7587C72.3246 108.002 75.7445 106.586 78.2674 104.066C80.7902 101.546 82.2095 98.1277 82.2135 94.5619V24.6223H69.8337Z" fill="#005FAD"/>
</g>
<path d="M82.2134 24.62H69.8334C67.0999 24.6173 64.479 23.5303 62.5461 21.5974C60.6132 19.6644 59.5261 17.0436 59.5234 14.31V0L82.2134 24.62Z" fill="#005FAD"/>
<path d="M91.9706 85.3002H29.4517C25.017 85.3002 21.4219 88.8954 21.4219 93.3302V111.97C21.4219 116.405 25.017 120 29.4517 120H91.9706C96.4053 120 100 116.405 100 111.97V93.3302C100 88.8954 96.4053 85.3002 91.9706 85.3002Z" fill="#005FAD"/>
<path d="M39.5306 106.683V110.318H35.7656V106.683H39.5306Z" fill="white"/>
<path d="M45.0619 105.049V110.32H41.4219V95.2845H47.3119C49.1019 95.2845 50.4635 95.7278 51.3969 96.6145C51.8707 97.0792 52.2408 97.6389 52.4829 98.2567C52.7251 98.8746 52.8338 99.5367 52.8019 100.2C52.8176 101.074 52.6001 101.937 52.1719 102.7C51.7377 103.446 51.0898 104.045 50.3119 104.42C49.3764 104.866 48.3478 105.082 47.3119 105.049H45.0619ZM49.1019 100.2C49.1019 98.8662 48.3719 98.1995 46.9119 98.1995H45.0619V102.115H46.9119C48.3719 102.128 49.1019 101.49 49.1019 100.2V100.2Z" fill="white"/>
<path d="M67.9381 110.32H64.3031L58.2131 101.09V110.32H54.5781V95.2845H58.2131L64.2981 104.6V95.2845H67.9331L67.9381 110.32Z" fill="white"/>
<path d="M82.1435 96.5001C83.3568 97.408 84.172 98.7499 84.4185 100.245H80.5685C80.316 99.7096 79.9106 99.2607 79.4035 98.9551C78.8306 98.6154 78.1744 98.4423 77.5085 98.4551C76.9912 98.4337 76.4755 98.5261 75.9978 98.7256C75.52 98.9252 75.0919 99.2271 74.7435 99.6101C74.013 100.488 73.6415 101.61 73.7035 102.75C73.7035 104.18 74.0685 105.278 74.7985 106.045C75.2088 106.443 75.6979 106.752 76.2344 106.95C76.7708 107.148 77.3428 107.231 77.9135 107.195C78.7292 107.209 79.5275 106.958 80.1885 106.48C80.8618 105.976 81.3475 105.262 81.5685 104.45H76.9785V101.835H84.6135V105.5C84.3178 106.394 83.8545 107.224 83.2485 107.945C82.594 108.721 81.7784 109.346 80.8585 109.775C79.8155 110.257 78.6771 110.496 77.5285 110.475C76.1329 110.51 74.7529 110.176 73.5285 109.505C72.4081 108.877 71.4957 107.935 70.9035 106.795C70.2697 105.568 69.9518 104.201 69.9785 102.82C69.9485 101.431 70.2665 100.055 70.9035 98.8201C71.4949 97.683 72.4032 96.7417 73.5185 96.1101C74.7251 95.4455 76.0863 95.1125 77.4635 95.1451C79.1308 95.0634 80.7778 95.5402 82.1435 96.5001V96.5001Z" fill="white"/>
<path d="M27.3516 33.3592H20.4766V40.2342H27.3516V33.3592Z" fill="#005FAD"/>
<path d="M34.2305 40.2341H27.3555V47.1091H34.2305V40.2341Z" fill="#005FAD"/>
<path d="M41.1055 33.3592H34.2305V40.2342H41.1055V33.3592Z" fill="#005FAD"/>
<path d="M47.9805 40.2341H41.1055V47.1091H47.9805V40.2341Z" fill="#005FAD"/>
<path d="M54.8633 33.3592H47.9883V40.2342H54.8633V33.3592Z" fill="#005FAD"/>
<path d="M61.7383 40.2341H54.8633V47.1091H61.7383V40.2341Z" fill="#005FAD"/>
<path d="M27.3516 47.1013H20.4766V53.9763H27.3516V47.1013Z" fill="#005FAD"/>
<path d="M34.2305 53.9762H27.3555V60.8512H34.2305V53.9762Z" fill="#005FAD"/>
<path d="M41.1055 47.1013H34.2305V53.9763H41.1055V47.1013Z" fill="#005FAD"/>
<path d="M47.9805 53.9762H41.1055V60.8512H47.9805V53.9762Z" fill="#005FAD"/>
<path d="M54.8633 47.1013H47.9883V53.9763H54.8633V47.1013Z" fill="#005FAD"/>
<path d="M61.7383 53.9762H54.8633V60.8512H61.7383V53.9762Z" fill="#005FAD"/>
<path d="M27.3516 60.9059H20.4766V67.7809H27.3516V60.9059Z" fill="#005FAD"/>
<path d="M34.2305 67.7808H27.3555V74.6558H34.2305V67.7808Z" fill="#005FAD"/>
<path d="M41.1055 60.9059H34.2305V67.7809H41.1055V60.9059Z" fill="#005FAD"/>
<path d="M47.9805 67.7808H41.1055V74.6558H47.9805V67.7808Z" fill="#005FAD"/>
<path d="M54.8633 60.9059H47.9883V67.7809H54.8633V60.9059Z" fill="#005FAD"/>
<path d="M61.7383 67.7808H54.8633V74.6558H61.7383V67.7808Z" fill="#005FAD"/>
</svg>
