<svg width="17" height="22" viewBox="0 0 17 22" fill="none" xmlns="http://www.w3.org/2000/svg">
<path d="M8.5019 21.4999C6.27498 21.4999 4.38461 20.7234 2.83077 19.1705C1.27692 17.6176 0.5 15.7274 0.5 13.4999V4.24997C0.5 4.03747 0.571908 3.85935 0.715725 3.7156C0.859542 3.57185 1.03774 3.49997 1.25033 3.49997C1.46293 3.49997 1.64102 3.57185 1.7846 3.7156C1.92818 3.85935 1.99997 4.03747 1.99997 4.24997V10.173H4.32693V2.49997C4.32693 2.28749 4.39883 2.10938 4.54265 1.96563C4.68645 1.82188 4.86465 1.75 5.07725 1.75C5.28983 1.75 5.46792 1.82188 5.6115 1.96563C5.75508 2.10938 5.82687 2.28749 5.82687 2.49997V10.173H8.16345V1.49997C8.16345 1.28749 8.23536 1.10938 8.37917 0.965625C8.52297 0.821875 8.70118 0.75 8.91378 0.75C9.12636 0.75 9.30444 0.821875 9.44802 0.965625C9.59161 1.10938 9.6634 1.28749 9.6634 1.49997V10.173H12V3.49997C12 3.28749 12.0719 3.10938 12.2157 2.96563C12.3595 2.82188 12.5377 2.75 12.7503 2.75C12.9629 2.75 13.141 2.82188 13.2845 2.96563C13.4281 3.10938 13.5 3.28749 13.5 3.49997V9.12497C13.1128 9.44934 12.8173 9.83778 12.6134 10.2903C12.4096 10.7428 12.3077 11.2165 12.3077 11.7115V12.9615H11.1923C10.1854 12.9615 9.33428 13.3091 8.63903 14.0044C7.94376 14.6996 7.59613 15.5507 7.59613 16.5576V17.4615H8.78842V16.5576C8.78842 15.881 9.01991 15.3112 9.48287 14.8482C9.94584 14.3853 10.5156 14.1538 11.1923 14.1538H13.5V11.7115C13.5 11.0781 13.7198 10.5416 14.1595 10.1019C14.5993 9.66213 15.1358 9.44225 15.7692 9.44225H16.5V13.4999C16.5 15.7274 15.7237 17.6176 14.1711 19.1705C12.6185 20.7234 10.7288 21.4999 8.5019 21.4999Z" fill="#CC0000"/>
</svg>
