<svg width="40" height="41" viewBox="0 0 40 41" fill="none" xmlns="http://www.w3.org/2000/svg">
<mask id="mask0_23_27734" style="mask-type:alpha" maskUnits="userSpaceOnUse" x="0" y="0" width="40" height="41">
<rect y="0.5" width="40" height="40" fill="#D9D9D9"/>
</mask>
<g mask="url(#mask0_23_27734)">
<path d="M6.11173 37.1673C5.36173 37.1673 4.71128 36.8919 4.16036 36.3409C3.60944 35.79 3.33398 35.1396 3.33398 34.3896V6.61174C3.33398 5.86174 3.60944 5.21128 4.16036 4.66036C4.71128 4.10944 5.36173 3.83398 6.11173 3.83398H33.8896C34.6396 3.83398 35.29 4.10944 35.8409 4.66036C36.3919 5.21128 36.6673 5.86174 36.6673 6.61174V34.3896C36.6673 35.1396 36.3919 35.79 35.8409 36.3409C35.29 36.8919 34.6396 37.1673 33.8896 37.1673H6.11173ZM6.11173 34.3896H33.8896V6.61174H6.11173V34.3896ZM11.3062 30.4729H28.6951C29.5933 30.4729 30.327 30.1881 30.8965 29.6187C31.4659 29.0493 31.7507 28.3155 31.7507 27.4173V21.0284C31.7507 20.2599 31.54 19.577 31.1187 18.9798C30.6974 18.3826 30.1766 17.9173 29.5562 17.584V15.5562C29.5562 14.2213 29.089 13.0867 28.1546 12.1523C27.2202 11.2179 26.0855 10.7507 24.7507 10.7507H15.2507C13.9158 10.7507 12.7811 11.2179 11.8467 12.1523C10.9123 13.0867 10.4451 14.2213 10.4451 15.5562V17.6118C9.82472 17.9451 9.30389 18.4104 8.88261 19.0076C8.4613 19.6048 8.25065 20.2877 8.25065 21.0562V27.4173C8.25065 28.3155 8.53537 29.0493 9.10482 29.6187C9.67426 30.1881 10.4081 30.4729 11.3062 30.4729ZM11.3062 28.2507C11.0747 28.2507 10.878 28.1696 10.7159 28.0076C10.5539 27.8456 10.4729 27.6488 10.4729 27.4173V21.039C10.4729 20.5227 10.6326 20.1048 10.952 19.7854C11.2715 19.4659 11.6858 19.3062 12.1951 19.3062C12.7043 19.3062 13.1187 19.4659 13.4382 19.7854C13.7576 20.1048 13.9173 20.5185 13.9173 21.0264V24.6118H26.084V21.0264C26.084 20.5185 26.2437 20.1048 26.5632 19.7854C26.8826 19.4659 27.297 19.3062 27.8062 19.3062C28.3155 19.3062 28.7298 19.4659 29.0493 19.7854C29.3687 20.1048 29.5284 20.5227 29.5284 21.039V27.4173C29.5284 27.6488 29.4474 27.8456 29.2854 28.0076C29.1233 28.1696 28.9266 28.2507 28.6951 28.2507H11.3062ZM16.1395 22.3895V21.0562C16.1395 19.9914 15.8016 19.1118 15.1257 18.4173C14.4497 17.7229 13.6303 17.3433 12.6673 17.2784V15.5562C12.6673 14.8099 12.9117 14.1928 13.4003 13.7048C13.889 13.2168 14.5071 12.9729 15.2544 12.9729H24.7407C25.4881 12.9729 26.1071 13.2168 26.5979 13.7048C27.0886 14.1928 27.334 14.8099 27.334 15.5562V17.2784C26.371 17.3433 25.5516 17.7229 24.8757 18.4173C24.1997 19.1118 23.8618 19.9914 23.8618 21.0562V22.3895H16.1395Z" fill="#1C1B1F"/>
</g>
</svg>
