<svg width="40" height="41" viewBox="0 0 40 41" fill="none" xmlns="http://www.w3.org/2000/svg">
<mask id="mask0_23_27867" style="mask-type:alpha" maskUnits="userSpaceOnUse" x="0" y="0" width="40" height="41">
<rect y="0.5" width="40" height="40" fill="#D9D9D9"/>
</mask>
<g mask="url(#mask0_23_27867)">
<path d="M18.222 27.8609L27.5553 18.5276L25.5693 16.5415L18.222 23.8887L14.4303 20.097L12.4443 22.0831L18.222 27.8609ZM19.972 37.1109C17.9072 37.1109 15.9651 36.7197 14.1456 35.9373C12.3262 35.1549 10.7429 34.0901 9.39563 32.7428C8.04841 31.3956 6.97896 29.8123 6.1873 27.9928C5.39563 26.1734 4.9998 24.2245 4.9998 22.1461C4.9998 20.0677 5.39563 18.1209 6.1873 16.3058C6.97896 14.4907 8.04841 12.9049 9.39563 11.5484C10.7429 10.1919 12.3262 9.12248 14.1456 8.34009C15.9651 7.55767 17.9072 7.16646 19.972 7.16646C22.0368 7.16646 23.979 7.55767 25.7984 8.34009C27.6179 9.12248 29.2058 10.1919 30.5623 11.5484C31.9188 12.9049 32.9882 14.4907 33.7706 16.3058C34.553 18.1209 34.9443 20.0677 34.9443 22.1461C34.9443 24.2245 34.553 26.1734 33.7706 27.9928C32.9882 29.8123 31.9188 31.3956 30.5623 32.7428C29.2058 34.0901 27.6179 35.1549 25.7984 35.9373C23.979 36.7197 22.0368 37.1109 19.972 37.1109ZM9.05534 4.38867L10.9998 6.33313L4.08313 13.0831L2.13867 11.1387L9.05534 4.38867ZM30.8887 4.38867L37.8053 11.1387L35.8609 13.0831L28.9443 6.33313L30.8887 4.38867ZM19.9732 34.3331C23.3706 34.3331 26.2521 33.1499 28.6179 30.7833C30.9836 28.4168 32.1665 25.5349 32.1665 22.1375C32.1665 18.7401 30.9832 15.8586 28.6167 13.4928C26.2501 11.1271 23.3682 9.94421 19.9708 9.94421C16.5735 9.94421 13.6919 11.1275 11.3262 13.494C8.96042 15.8606 7.77755 18.7425 7.77755 22.1399C7.77755 25.5372 8.96082 28.4188 11.3274 30.7845C13.6939 33.1503 16.5759 34.3331 19.9732 34.3331Z" fill="#1C1B1F"/>
</g>
</svg>
