<svg width="60" height="60" viewBox="0 0 60 60" fill="none" xmlns="http://www.w3.org/2000/svg">
<mask id="mask0_32_31529" style="mask-type:alpha" maskUnits="userSpaceOnUse" x="1" y="2" width="58" height="56">
<path fill-rule="evenodd" clip-rule="evenodd" d="M34 8V6C34 3.79086 32.2091 2 30 2C27.7909 2 26 3.79086 26 6V8H34Z" fill="black"/>
<path d="M38 13H22" stroke="black" stroke-width="5"/>
<path fill-rule="evenodd" clip-rule="evenodd" d="M38 32V34C38 36.2091 39.7909 38 42 38C44.2091 38 46 36.2091 46 34V32H38ZM48 32V34C48 36.2091 49.7909 38 52 38C54.2091 38 56 36.2091 56 34V32H48Z" fill="black"/>
<path d="M35 27H59" stroke="black" stroke-width="5"/>
<path fill-rule="evenodd" clip-rule="evenodd" d="M4 32V34C4 36.2091 5.79086 38 8 38C10.2091 38 12 36.2091 12 34V32H4ZM14 32V34C14 36.2091 15.7909 38 18 38C20.2091 38 22 36.2091 22 34V32H14Z" fill="black"/>
<path d="M1 27H25" stroke="black" stroke-width="5"/>
<path fill-rule="evenodd" clip-rule="evenodd" d="M38 52V54C38 56.2091 39.7909 58 42 58C44.2091 58 46 56.2091 46 54V52H38ZM48 52V54C48 56.2091 49.7909 58 52 58C54.2091 58 56 56.2091 56 54V52H48Z" fill="black"/>
<path d="M35 47H59" stroke="black" stroke-width="5"/>
<path fill-rule="evenodd" clip-rule="evenodd" d="M4 52V54C4 56.2091 5.79086 58 8 58C10.2091 58 12 56.2091 12 54V52H4ZM14 52V54C14 56.2091 15.7909 58 18 58C20.2091 58 22 56.2091 22 54V52H14Z" fill="black"/>
<path d="M1 47H25" stroke="black" stroke-width="5"/>
</mask>
<g mask="url(#mask0_32_31529)">
<path d="M60 1H0V61H60V1Z" fill="black"/>
</g>
</svg>
