<svg width="40" height="41" viewBox="0 0 40 41" fill="none" xmlns="http://www.w3.org/2000/svg">
<mask id="mask0_23_27673" style="mask-type:alpha" maskUnits="userSpaceOnUse" x="0" y="0" width="40" height="41">
<rect y="0.5" width="40" height="40" fill="#D9D9D9"/>
</mask>
<g mask="url(#mask0_23_27673)">
<path d="M8.13822 35.5C7.75861 35.5 7.43222 35.3634 7.15906 35.0903C6.88592 34.8171 6.74935 34.4907 6.74935 34.1111V32.3889H6.38822C5.0765 32.3889 3.96153 31.9298 3.04331 31.0116C2.12511 30.0934 1.66602 28.9784 1.66602 27.6667V18.1111C1.66602 16.7037 2.11509 15.5926 3.01322 14.7778C3.91139 13.9629 4.98083 13.5555 6.22156 13.5555V10.0555C6.22156 8.74074 6.65211 7.65278 7.51322 6.79167C8.37433 5.93056 9.46229 5.5 10.7771 5.5H29.2494C30.5642 5.5 31.6475 5.93056 32.4993 6.79167C33.3512 7.65278 33.7771 8.74074 33.7771 10.0555V13.5555C35.0179 13.5555 36.0873 13.9629 36.9855 14.7778C37.8836 15.5926 38.3327 16.7037 38.3327 18.1111V27.6667C38.3327 28.9784 37.8736 30.0934 36.9553 31.0116C36.0372 31.9298 34.9222 32.3889 33.6105 32.3889H33.2493V34.1111C33.2493 34.4907 33.1128 34.8171 32.8396 35.0903C32.5665 35.3634 32.2401 35.5 31.8605 35.5C31.4808 35.5 31.1544 35.3634 30.8813 35.0903C30.6082 34.8171 30.4716 34.4907 30.4716 34.1111V32.3889H9.5271V34.1111C9.5271 34.4907 9.39053 34.8171 9.11739 35.0903C8.84425 35.3634 8.51786 35.5 8.13822 35.5ZM6.38822 29.6111H33.6105C34.1383 29.6111 34.5943 29.419 34.9785 29.0347C35.3628 28.6505 35.5549 28.1944 35.5549 27.6667V18.1111C35.5549 17.5833 35.3906 17.1551 35.0619 16.8264C34.7332 16.4977 34.3049 16.3333 33.7771 16.3333C33.2494 16.3333 32.8211 16.4977 32.4924 16.8264C32.1637 17.1551 31.9993 17.5833 31.9993 18.1111V25.2222H7.99935V18.1111C7.99935 17.5833 7.83499 17.1551 7.50627 16.8264C7.17757 16.4977 6.74933 16.3333 6.22156 16.3333C5.69378 16.3333 5.26554 16.4977 4.93685 16.8264C4.60813 17.1551 4.44377 17.5833 4.44377 18.1111V27.6667C4.44377 28.1944 4.6359 28.6505 5.02018 29.0347C5.40443 29.419 5.86045 29.6111 6.38822 29.6111ZM10.7771 22.4445H29.2216V18.1111C29.2216 17.287 29.4022 16.5833 29.7633 16C30.1244 15.4166 30.5364 14.9352 30.9994 14.5555V10.0555C30.9994 9.52776 30.835 9.09953 30.5063 8.77083C30.1776 8.44211 29.7518 8.27775 29.2288 8.27775H10.7699C10.2469 8.27775 9.82108 8.44211 9.49239 8.77083C9.16367 9.09953 8.99931 9.52776 8.99931 10.0555V14.5555C9.46228 14.9352 9.87432 15.4166 10.2354 16C10.5965 16.5833 10.7771 17.287 10.7771 18.1111V22.4445Z" fill="#1C1B1F"/>
</g>
</svg>
