<svg width="60" height="60" viewBox="0 0 60 60" fill="none" xmlns="http://www.w3.org/2000/svg">
<mask id="mask0_23_31116" style="mask-type:alpha" maskUnits="userSpaceOnUse" x="1" y="2" width="58" height="56">
<path fill-rule="evenodd" clip-rule="evenodd" d="M34 8L34 6C34 3.79086 32.2091 2 30 2C27.7909 2 26 3.79086 26 6L26 8L34 8Z" fill="black"/>
<path d="M38 13L22 13" stroke="black" stroke-width="5"/>
<path fill-rule="evenodd" clip-rule="evenodd" d="M38 32L38 34C38 36.2091 39.7909 38 42 38C44.2091 38 46 36.2091 46 34L46 32L38 32ZM48 32L48 34C48 36.2091 49.7909 38 52 38C54.2091 38 56 36.2091 56 34L56 32L48 32Z" fill="black"/>
<path d="M35 27L59 27" stroke="black" stroke-width="5"/>
<path fill-rule="evenodd" clip-rule="evenodd" d="M4 32L4 34C4 36.2091 5.79086 38 8 38C10.2091 38 12 36.2091 12 34L12 32L4 32ZM14 32L14 34C14 36.2091 15.7909 38 18 38C20.2091 38 22 36.2091 22 34L22 32L14 32Z" fill="black"/>
<path d="M1 27L25 27" stroke="black" stroke-width="5"/>
<path fill-rule="evenodd" clip-rule="evenodd" d="M38 52L38 54C38 56.2091 39.7909 58 42 58C44.2091 58 46 56.2091 46 54L46 52L38 52ZM48 52L48 54C48 56.2091 49.7909 58 52 58C54.2091 58 56 56.2091 56 54L56 52L48 52Z" fill="black"/>
<path d="M35 47L59 47" stroke="black" stroke-width="5"/>
<path fill-rule="evenodd" clip-rule="evenodd" d="M4 52L4 54C4 56.2091 5.79086 58 8 58C10.2091 58 12 56.2091 12 54L12 52L4 52ZM14 52L14 54C14 56.2091 15.7909 58 18 58C20.2091 58 22 56.2091 22 54L22 52L14 52Z" fill="black"/>
<path d="M1 47L25 47" stroke="black" stroke-width="5"/>
</mask>
<g mask="url(#mask0_23_31116)">
<rect y="1" width="60" height="60" fill="black"/>
</g>
</svg>
