<svg width="40" height="41" viewBox="0 0 40 41" fill="none" xmlns="http://www.w3.org/2000/svg">
<mask id="mask0_23_27620" style="mask-type:alpha" maskUnits="userSpaceOnUse" x="0" y="0" width="40" height="41">
<rect y="0.5" width="40" height="40" fill="#D9D9D9"/>
</mask>
<g mask="url(#mask0_23_27620)">
<path d="M1.66602 21.8892V19.1115H11.4438V21.8892H1.66602ZM12.9438 15.3892L9.55489 12.0003L11.4993 10.0559L14.8882 13.4448L12.9438 15.3892ZM18.6105 11.9448V2.16699H21.3882V11.9448H18.6105ZM27.0549 15.3892L25.1105 13.4448L28.4993 10.0559L30.4438 12.0003L27.0549 15.3892ZM28.5549 21.8892V19.1115H38.3327V21.8892H28.5549ZM19.9993 25.0003C18.7493 25.0003 17.6868 24.5628 16.8118 23.6878C15.9368 22.8128 15.4993 21.7503 15.4993 20.5003C15.4993 19.2503 15.9368 18.1878 16.8118 17.3128C17.6868 16.4378 18.7493 16.0003 19.9993 16.0003C21.2493 16.0003 22.3118 16.4378 23.1868 17.3128C24.0618 18.1878 24.4993 19.2503 24.4993 20.5003C24.4993 21.7503 24.0618 22.8128 23.1868 23.6878C22.3118 24.5628 21.2493 25.0003 19.9993 25.0003ZM28.6383 31.0837L25.1105 27.5559L27.0549 25.6115L30.5827 29.1392L28.6383 31.0837ZM11.3604 31.0837L9.41602 29.1392L12.9438 25.6115L14.8882 27.5559L11.3604 31.0837ZM18.6105 38.8337V29.0559H21.3882V38.8337H18.6105Z" fill="#181A1B"/>
</g>
</svg>
