<svg width="40" height="40" viewBox="0 0 40 40" fill="none" xmlns="http://www.w3.org/2000/svg">
<mask id="mask0_4163_100470" style="mask-type:alpha" maskUnits="userSpaceOnUse" x="0" y="0" width="40" height="40">
<rect width="40" height="40" fill="#D9D9D9"/>
</mask>
<g mask="url(#mask0_4163_100470)">
<path d="M9.56009 33.3029C8.18757 33.3029 7.01982 32.8222 6.05684 31.8608C5.09387 30.8994 4.61239 29.732 4.61239 28.3585H1.66797V9.44181C1.66797 8.69181 1.94343 8.04135 2.49434 7.49044C3.04526 6.93952 3.69572 6.66406 4.44572 6.66406H28.3068V13.5252H32.8902L38.3346 20.7752V28.3585H35.2513C35.2513 29.732 34.7709 30.8994 33.8101 31.8608C32.8494 32.8222 31.6827 33.3029 30.3101 33.3029C28.9376 33.3029 27.7698 32.8222 26.8069 31.8608C25.8439 30.8994 25.3624 29.732 25.3624 28.3585H14.5013C14.5013 29.7289 14.0209 30.8955 13.0601 31.8585C12.0993 32.8215 10.9326 33.3029 9.56009 33.3029ZM9.55684 30.5252C10.1587 30.5252 10.6703 30.3145 11.0916 29.8932C11.5129 29.4719 11.7235 28.9604 11.7235 28.3585C11.7235 27.7567 11.5129 27.2451 11.0916 26.8238C10.6703 26.4025 10.1587 26.1918 9.55684 26.1918C8.95498 26.1918 8.4434 26.4025 8.02209 26.8238C7.60082 27.2451 7.39018 27.7567 7.39018 28.3585C7.39018 28.9604 7.60082 29.4719 8.02209 29.8932C8.4434 30.3145 8.95498 30.5252 9.55684 30.5252ZM4.44572 25.5807H5.50126C5.97348 24.9141 6.55257 24.3817 7.23851 23.9835C7.92445 23.5854 8.68836 23.3863 9.53022 23.3863C10.3721 23.3863 11.1402 23.59 11.8346 23.9974C12.5291 24.4048 13.1124 24.9326 13.5846 25.5807H25.5291V9.44181H4.44572V25.5807ZM30.3069 30.5252C30.9087 30.5252 31.4203 30.3145 31.8416 29.8932C32.2629 29.4719 32.4736 28.9604 32.4736 28.3585C32.4736 27.7567 32.2629 27.2451 31.8416 26.8238C31.4203 26.4025 30.9087 26.1918 30.3069 26.1918C29.705 26.1918 29.1934 26.4025 28.7721 26.8238C28.3508 27.2451 28.1402 27.7567 28.1402 28.3585C28.1402 28.9604 28.3508 29.4719 28.7721 29.8932C29.1934 30.3145 29.705 30.5252 30.3069 30.5252ZM28.3068 22.0807H35.8346L31.5013 16.3029H28.3068V22.0807Z" fill="black"/>
</g>
</svg>
