<svg width="40" height="41" viewBox="0 0 40 41" fill="none" xmlns="http://www.w3.org/2000/svg">
<mask id="mask0_23_27790" style="mask-type:alpha" maskUnits="userSpaceOnUse" x="0" y="0" width="40" height="41">
<rect y="0.5" width="40" height="40" fill="#D9D9D9"/>
</mask>
<g mask="url(#mask0_23_27790)">
<path d="M9.55814 33.8049C8.18561 33.8049 7.01786 33.3242 6.05489 32.3628C5.09192 31.4014 4.61043 30.2339 4.61043 28.8605H1.66602V9.94377C1.66602 9.19377 1.94147 8.54331 2.49239 7.99239C3.04331 7.44147 3.69377 7.16602 4.44377 7.16602H28.3049V14.0271H32.8882L38.3327 21.2771V28.8605H35.2494C35.2494 30.2339 34.769 31.4014 33.8082 32.3628C32.8474 33.3242 31.6807 33.8049 30.3082 33.8049C28.9356 33.8049 27.7679 33.3242 26.8049 32.3628C25.842 31.4014 25.3605 30.2339 25.3605 28.8605H14.4993C14.4993 30.2308 14.0189 31.3975 13.0581 32.3605C12.0974 33.3234 10.9307 33.8049 9.55814 33.8049ZM9.55489 31.0271C10.1568 31.0271 10.6683 30.8165 11.0896 30.3952C11.5109 29.9739 11.7216 29.4623 11.7216 28.8605C11.7216 28.2586 11.5109 27.747 11.0896 27.3257C10.6683 26.9044 10.1568 26.6938 9.55489 26.6938C8.95303 26.6938 8.44145 26.9044 8.02014 27.3257C7.59886 27.747 7.38822 28.2586 7.38822 28.8605C7.38822 29.4623 7.59886 29.9739 8.02014 30.3952C8.44145 30.8165 8.95303 31.0271 9.55489 31.0271ZM4.44377 26.0827H5.49931C5.97153 25.416 6.55061 24.8836 7.23656 24.4855C7.9225 24.0873 8.6864 23.8882 9.52827 23.8882C10.3701 23.8882 11.1382 24.0919 11.8327 24.4993C12.5271 24.9068 13.1105 25.4345 13.5827 26.0827H25.5271V9.94377H4.44377V26.0827ZM30.3049 31.0271C30.9068 31.0271 31.4183 30.8165 31.8396 30.3952C32.2609 29.9739 32.4716 29.4623 32.4716 28.8605C32.4716 28.2586 32.2609 27.747 31.8396 27.3257C31.4183 26.9044 30.9068 26.6938 30.3049 26.6938C29.7031 26.6938 29.1915 26.9044 28.7702 27.3257C28.3489 27.747 28.1382 28.2586 28.1382 28.8605C28.1382 29.4623 28.3489 29.9739 28.7702 30.3952C29.1915 30.8165 29.7031 31.0271 30.3049 31.0271ZM28.3049 22.5827H35.8327L31.4993 16.8049H28.3049V22.5827Z" fill="#181A1B"/>
</g>
</svg>
