<svg width="40" height="41" viewBox="0 0 40 41" fill="none" xmlns="http://www.w3.org/2000/svg">
<mask id="mask0_23_27904" style="mask-type:alpha" maskUnits="userSpaceOnUse" x="0" y="0" width="40" height="41">
<rect y="0.5" width="40" height="40" fill="#D9D9D9"/>
</mask>
<g mask="url(#mask0_23_27904)">
<path d="M18.1938 26.1658L27.666 16.6936L25.7077 14.763L18.2771 22.1936L14.3049 18.2214L12.291 20.2352L18.1938 26.1658ZM19.9993 37.138C16.1197 36.1658 12.9276 33.9227 10.423 30.4089C7.91834 26.895 6.66602 23.0269 6.66602 18.8047V8.80469L19.9993 3.80469L33.3327 8.80469V18.8047C33.3327 23.0269 32.0804 26.895 29.5757 30.4089C27.0711 33.9227 23.879 36.1658 19.9993 37.138ZM19.9993 34.2491C23.092 33.2399 25.6244 31.3001 27.5966 28.4297C29.5688 25.5593 30.5549 22.351 30.5549 18.8047V10.7352L19.9993 6.76302L9.44377 10.7352V18.8047C9.44377 22.351 10.4299 25.5593 12.4021 28.4297C14.3743 31.3001 16.9067 33.2399 19.9993 34.2491Z" fill="#1C1B1F"/>
</g>
</svg>
