<svg width="40" height="41" viewBox="0 0 40 41" fill="none" xmlns="http://www.w3.org/2000/svg">
<mask id="mask0_23_27648" style="mask-type:alpha" maskUnits="userSpaceOnUse" x="0" y="0" width="40" height="41">
<rect y="0.5" width="40" height="40" fill="#D9D9D9"/>
</mask>
<g mask="url(#mask0_23_27648)">
<path d="M6.66602 37.1673V26.6117C6.66602 25.8617 6.94147 25.2113 7.49239 24.6604C8.04331 24.1094 8.69377 23.834 9.44377 23.834H30.5549C31.3049 23.834 31.9554 24.1094 32.5063 24.6604C33.0572 25.2113 33.3327 25.8617 33.3327 26.6117V37.1673H6.66602ZM9.44377 30.5007H30.5549V26.6117H9.44377V30.5007ZM19.9993 23.834L11.6938 12.1673C11.6938 9.86176 12.5036 7.89648 14.1232 6.27148C15.7428 4.64648 17.7015 3.83398 19.9993 3.83398C22.2972 3.83398 24.2559 4.64648 25.8755 6.27148C27.4951 7.89648 28.3049 9.86176 28.3049 12.1673L19.9993 23.834ZM19.9993 20.1118L25.5271 12.1673C25.5271 10.6241 24.9896 9.31236 23.9144 8.23211C22.8392 7.15186 21.5337 6.61174 19.9977 6.61174C18.4618 6.61174 17.1568 7.15186 16.0827 8.23211C15.0086 9.31236 14.4716 10.6241 14.4716 12.1673L19.9993 20.1118Z" fill="#181A1B"/>
</g>
</svg>
