<?xml version="1.0" standalone="no"?>
<!DOCTYPE svg PUBLIC "-//W3C//DTD SVG 1.1//EN" "http://www.w3.org/Graphics/SVG/1.1/DTD/svg11.dtd">
<svg xmlns="http://www.w3.org/2000/svg">
<metadata>Copyright (C) 2024 by original authors @ fontello.com</metadata>
<defs>
<font id="va-dashboard-icons" horiz-adv-x="1000" >
<font-face font-family="va-dashboard-icons" font-weight="400" font-stretch="normal" units-per-em="1000" ascent="850" descent="-150" />
<missing-glyph horiz-adv-x="1000" />
<glyph glyph-name="preview" unicode="&#xe800;" d="M208-25c-23 0-42 8-58 24-17 17-25 36-25 59v584c0 23 8 42 25 59 16 16 35 24 58 24h292v-83h-292v-584h584v292h83v-292c0-23-8-42-24-59-17-16-36-24-59-24h-584z m196 221l-58 58 387 388h-150v83h292v-292h-83v150l-388-387z" horiz-adv-x="1000" />

<glyph glyph-name="favorite" unicode="&#xe801;" d="M500-25l-60 54c-71 63-128 118-174 164-46 46-83 87-110 123-27 37-46 70-56 101-11 30-17 62-17 94 0 65 22 119 66 163 44 44 98 66 164 66 36 0 70-8 103-23 32-15 60-37 84-65 24 28 52 50 84 65 33 15 67 23 104 23 65 0 119-22 163-66 44-44 66-98 66-163 0-32-6-64-16-94-11-31-30-64-57-101-27-36-64-77-110-123-45-46-103-101-174-164l-60-54z" horiz-adv-x="1000" />

<glyph glyph-name="menu-brief" unicode="&#xe802;" d="M801 195l34 34 33-34-33-34-34 34z m-380 280v-4h4 275 5v4 63 4h-5-275-4v-4-63z m0-107v-4h4 275 5v4 65 5h-5-275-4v-5-65z m76-418h4v4 63 4h-4-247c-11 0-20 3-27 11-7 7-10 16-10 26v54h294 2l1 1 63 63 7 7h-10-232v496h450v-297-6l5 2c10 5 20 8 30 9 10 2 21 3 31 2l4 0v4 353 4h-4-583-4v-4-563h-121-4v-4-121c0-30 10-56 31-77 21-21 47-31 77-31h247z m87 4v-4h4 110 2l1 1 225 225 0 0 0 1c6 5 10 11 12 18 2 7 4 13 4 20 0 7-2 13-4 20-3 6-7 12-11 18l0 0-1 0-38 39 0 0c-5 5-11 9-18 12l-2-4 2 4c-7 2-14 4-21 4-6 0-13-1-19-4l1-4-1 4c-7-2-13-6-19-12l-226-225-1-1v-2-110z" horiz-adv-x="1000" />

<glyph glyph-name="ampty-venue" unicode="&#xe803;" d="M87-124v-3h2 838 2v3 628 1l-1 1-418 314-2 2-1-2-419-314-1-1v-1-628z m774 599v-534h-706v534l353 259 353-259z m-311-429h-74v292h74v-292z m-11 410c-7-7-16-10-26-10-11 0-20 3-27 10-7 7-10 16-10 27 0 11 3 20 10 27 7 7 16 11 26 11 11 0 20-4 27-11 7-7 11-16 11-27 0-10-4-19-11-27z" horiz-adv-x="1010" />

<glyph glyph-name="360" unicode="&#xe804;" d="M367 19l5-4 4 4 160 161 4 4-4 5-160 158-4 4-5-4-44-45-5-4 5-5 71-69c-87 17-149 36-185 57-39 22-57 47-57 75 0 9 6 20 20 33 14 14 36 29 65 46 56 33 144 50 263 50 120 0 208-17 264-50 29-17 50-32 64-46 14-13 20-24 20-33 0-7-3-14-11-24-8-9-19-19-35-30-32-22-75-40-131-53l-4-1v-5-68-8l7 2c74 17 134 42 180 74 45 32 69 70 69 113 0 59-43 107-124 146-82 39-182 58-299 58-117 0-216-19-298-58-82-39-125-87-125-146 0-57 33-103 96-140 60-34 135-57 224-68l-74-75-5-4 5-5 44-45z" horiz-adv-x="1000" />

<glyph glyph-name="arrow-left" unicode="&#xe805;" d="M583 100l-250 250 250 250 59-58-192-192 192-192-59-58z" horiz-adv-x="1000" />

<glyph glyph-name="approval" unicode="&#xe806;" d="M167-67v250c0 23 8 43 24 59 17 17 36 25 59 25h500c23 0 43-8 59-25 16-16 24-36 24-59v-250h-666z m83 167h500v83h-500v-83z m250 167l-208 291c0 58 20 107 61 148 40 40 89 61 147 61 58 0 107-21 147-61 41-41 61-90 61-148l-208-291z m0 116l125 175c0 35-12 65-36 89-25 24-54 36-89 36-35 0-64-12-88-36-25-24-37-54-37-89l125-175z" horiz-adv-x="1000" />

<glyph glyph-name="arrow-down" unicode="&#xe807;" d="M500 209l-250 250 58 59 192-192 192 192 58-59-250-250z" horiz-adv-x="1000" />

<glyph glyph-name="bar" unicode="&#xe808;" d="M244-31v95h209v196l-336 379v95h767v-95l-337-379v-196h209v-95h-512z m71 589h370l73 81h-516l73-81z m185-208l111 125h-222l111-125z" horiz-adv-x="1000" />

<glyph glyph-name="bus" unicode="&#xe809;" d="M250-25c-12 0-22 4-30 12-8 8-12 18-12 30v85c-12 14-22 29-30 46-7 17-11 36-11 56v396c0 58 26 100 80 127 53 26 138 40 253 40 119 0 205-13 256-39 52-26 77-68 77-128v-396c0-20-3-39-11-56-8-17-18-32-30-46v-85c0-12-4-22-12-30-8-8-18-12-30-12h-42c-11 0-21 4-29 12-8 8-12 18-12 30v41h-334v-41c0-12-4-22-12-30-8-8-17-12-29-12h-42z m0 458h500v125h-500v-125z m104-250c18 0 32 6 44 19 13 12 19 27 19 44 0 17-6 32-19 44-12 12-26 18-44 18-17 0-32-6-44-18-12-12-18-27-18-44 0-17 6-32 18-44 12-13 27-19 44-19z m292 0c17 0 32 6 44 19 12 12 18 27 18 44 0 17-6 32-18 44-12 12-27 18-44 18-17 0-32-6-44-18-13-12-19-27-19-44 0-17 6-32 19-44 12-13 27-19 44-19z m-377 459h466c-10 12-32 21-67 29-34 8-89 12-166 12-74 0-129-4-163-13-34-8-58-18-70-28z m64-500h334c23 0 42 8 59 24 16 17 24 36 24 59v125h-500v-125c0-23 8-42 25-59 16-16 35-24 58-24z" horiz-adv-x="1000" />

<glyph glyph-name="browse-video" unicode="&#xe80a;" d="M192 13c-14 0-27 6-38 17-11 11-17 24-17 39v560c0 15 6 28 17 39 11 12 24 18 38 18h626c15 0 28-6 38-18 11-11 16-24 16-39v-560c0-15-5-28-16-39-10-11-23-17-38-17h-626z m0 56h97v98h-97v-98z m529 0h97v98h-97v-98z m-529 153h97v98h-97v-98z m529 0h97v98h-97v-98z m-529 154h97v99h-97v-99z m529 0h97v99h-97v-99z m-529 155h97v98h-97v-98z m529 0h97v98h-97v-98z m-377-462h323v560h-323v-560z" horiz-adv-x="1000" />

<glyph glyph-name="check-box" unicode="&#xe80b;" d="M442 175l293 294-58 58-235-235-119 118-58-58 177-177z m-234-200c-23 0-42 8-58 24-17 17-25 36-25 59v584c0 23 8 42 25 59 16 16 35 24 58 24h584c23 0 42-8 59-24 16-17 24-36 24-59v-584c0-23-8-42-24-59-17-16-36-24-59-24h-584z" horiz-adv-x="1000" />

<glyph glyph-name="arrow-right" unicode="&#xe80c;" d="M525 350l-192 192 59 58 250-250-250-250-59 58 192 192z" horiz-adv-x="1000" />

<glyph glyph-name="check" unicode="&#xe80d;" d="M398 92l-246 245 68 68 178-178 382 382 68-67-450-450z" horiz-adv-x="1000" />

<glyph glyph-name="camera" unicode="&#xe80e;" d="M527 121c52 0 96 18 132 55 37 36 55 80 55 132 0 52-18 97-55 133-36 37-80 55-132 55-53 0-97-18-133-55-37-36-55-81-55-133 0-52 18-96 55-132 36-37 80-55 133-55z m0 83c-30 0-54 10-74 30-21 21-31 45-31 74 0 30 10 54 31 74 20 20 44 31 74 31 29 0 53-11 74-31 20-20 30-44 30-74 0-29-10-53-30-74-21-20-45-30-74-30z m-334-229c-23 0-42 8-59 24-16 17-24 36-24 59v500c0 23 8 43 24 59 17 17 36 25 59 25h131l78 83h250l77-83h131c23 0 42-8 59-25 16-16 24-36 24-59v-500c0-23-8-42-24-59-17-16-36-24-59-24h-667z" horiz-adv-x="1042" />

<glyph glyph-name="menu-brief-1" unicode="&#xe80f;" d="M451 475v-4h4 276 4v4 63 4h-4-276-4v-4-63z m0-107v-4h4 276 4v4 65 5h-4-276-4v-5-65z m76-418h5v4 63 4h-5-246c-11 0-20 3-27 11-7 7-11 16-11 26v54h295 2l1 1 62 63 7 7h-10-232v496h450v-297-6l6 2c10 5 20 8 30 9 10 2 20 3 31 2l4 0v4 353 4h-4-584-4v-4-563h-121-4v-4-121c0-30 11-56 32-77 21-21 46-31 77-31h246z m88 4v-4h4 110 2l1 1 225 225 0 0 0 1c5 5 9 11 12 18 2 7 3 13 3 20 0 7-1 13-4 20-2 6-6 12-11 18l0 0 0 0-39 39 0 0c-5 5-11 9-18 12l-1-4 1 4c-6 2-13 4-20 4-7 0-13-1-20-4l2-4-2 4c-6-2-12-6-18-12l-226-225-1-1v-2-110z m217 241l33 34 33-34-33-34-33 34z" horiz-adv-x="1042" />

<glyph glyph-name="decor" unicode="&#xe810;" d="M167-67c-23 0-43 8-59 25-16 16-25 36-25 59v666c0 23 9 43 25 59 16 17 36 25 59 25h666c23 0 43-8 59-25 17-16 25-36 25-59v-666c0-23-8-43-25-59-16-17-36-25-59-25h-666z m0 84h666v666h-666v-666z m125 83h416c23 0 43 8 59 25 17 16 25 35 25 58v146c0 19-5 36-14 52-10 15-22 28-38 38v56c0 35-13 64-37 89-24 24-54 36-88 36h-230c-34 0-64-12-88-36-24-25-37-54-37-89v-56c-16-10-28-23-38-38-9-16-14-33-14-52v-146c0-23 9-42 25-58 16-17 36-25 59-25z m0 63c-7 0-12 1-15 5-4 4-6 9-6 15v146c0 12 4 22 12 30 8 8 18 12 30 12 11 0 21-4 29-12 8-8 12-18 12-30v-83h292v83c0 12 4 22 12 30 8 8 18 12 30 12 11 0 21-4 29-12 8-8 12-18 12-30v-146c0-6-2-11-6-15-3-4-8-5-15-5h-416z m125 145v21c0 27-9 51-27 70-18 19-41 30-67 32v44c0 18 6 33 18 45 11 12 26 18 44 18h230c18 0 33-6 44-18 12-12 18-27 18-45v-44c-26-2-48-13-67-32-18-19-27-43-27-70v-21h-166z" horiz-adv-x="1000" />

<glyph glyph-name="delete" unicode="&#xe811;" d="M267 58l-59 59 234 233-234 233 59 59 233-234 233 234 59-59-234-233 234-233-59-59-233 234-233-234z" horiz-adv-x="1000" />

<glyph glyph-name="customize" unicode="&#xe812;" d="M788-25l-229 228 88 88 228-229-87-87z m-575 0l-88 87 288 288-71 71-29-29-54 53v-86l-29-29-126 126 29 29h86l-52 52 148 148c14 14 28 24 44 31 16 6 33 9 49 9 17 0 33-3 49-9 16-7 31-17 45-31l-96-95 52-53-29-29 71-71 94 94c-3 8-5 16-7 24-2 9-3 17-3 25 0 41 14 76 43 104 28 28 62 42 103 42 11 0 21-1 30-3 9-2 19-5 29-9l-104-104 75-75 104 104c4-10 8-20 9-29 2-9 3-19 3-30 0-41-14-75-42-103-28-29-63-43-104-43-8 0-16 1-25 2-8 2-16 4-24 8l-468-469z" horiz-adv-x="1000" />

<glyph glyph-name="door" unicode="&#xe813;" d="M117-34v95h83v578c0 26 9 48 28 67 18 18 40 28 67 28h410c27 0 49-10 67-28 19-19 28-41 28-67v-578h84v-95h-767z m588 95v578h-410v-578h410z m-122 247c12 0 22 4 30 12 8 8 12 18 12 30 0 12-4 22-12 30-8 8-18 12-30 12-11 0-21-4-29-12-8-8-12-18-12-30 0-12 4-22 12-30 8-8 18-12 29-12z" horiz-adv-x="1000" />

<glyph glyph-name="duration" unicode="&#xe814;" d="M456 160l236 236-60 59-176-176-88 89-60-60 148-148z m44-227c-52 0-101 10-146 30-46 20-85 47-119 80-34 34-60 73-80 119-20 45-30 94-30 146 0 52 10 101 30 147 20 45 46 85 80 118 34 34 73 61 119 81 45 19 94 29 146 29 52 0 101-10 146-29 46-20 85-47 119-81 34-33 61-73 80-118 20-46 30-95 30-147 0-52-10-101-30-146-19-46-46-85-80-119-34-33-73-60-119-80-45-20-94-30-146-30z m-267 819l59-58-177-177-59 58 177 177z m534 0l177-177-59-58-177 177 59 58z m-267-735c81 0 150 28 207 85 56 56 85 125 85 206 0 82-29 150-85 207-57 57-126 85-207 85-81 0-150-28-207-85-56-57-85-125-85-207 0-81 29-150 85-206 57-57 126-85 207-85z" horiz-adv-x="1000" />

<glyph glyph-name="edit" unicode="&#xe815;" d="M88-88v233l568 611c10 10 20 18 33 23 12 6 25 9 38 9 14 0 27-3 40-9 12-5 24-13 34-24l70-77c10-10 17-22 22-35 5-14 7-28 7-43 0-13-2-27-7-40-5-13-12-25-22-36l-568-612h-215z m639 613l72 77-72 76-71-76 71-77z" horiz-adv-x="1063" />

<glyph glyph-name="menu-project" unicode="&#xe816;" d="M913 117v358c24 9 45 26 60 47 15 22 23 48 23 74 0 17-2 33-8 49-6 16-16 30-27 42-12 12-26 22-41 28-16 7-32 10-49 10-34 0-67-14-91-38-25-24-38-57-38-91-1-11 0-23 4-33-70-22-143-32-217-30-74-2-149 8-221 30 4 10 5 22 5 33 0 17-3 33-9 49-6 16-15 30-27 42-11 12-25 22-41 28-15 7-32 10-48 10-35 0-68-14-92-38-24-24-38-57-38-91 1-27 9-53 25-74 16-22 38-38 63-47v-358h-88v-84h942v84h-87z m-42 521c6 0 11 0 17-2 5-2 10-5 14-9 4-4 7-9 9-14 2-6 2-11 2-17 0-11-5-22-13-30-7-7-18-12-29-12-11 0-22 5-30 12-7 8-12 19-12 30 0 6 0 11 2 17 2 5 5 10 9 14 4 4 9 7 14 9 6 2 11 2 17 2z m-683 0c5 0 11 0 16-2 6-2 11-5 15-9 4-4 7-9 8-14 2-6 3-11 2-17 0-11-4-22-12-30-8-7-18-12-29-12-11 0-22 5-30 12-8 8-12 19-12 30-1 6 0 11 2 17 2 5 5 10 9 14 4 4 9 7 14 9 5 2 11 2 17 2z m41-175c95-39 198-58 300-55 103-4 205 15 300 55v-346h-600v346z" horiz-adv-x="1042" />

<glyph glyph-name="layout-art-museum" unicode="&#xe817;" d="M33 767h434v-400h-434v400z m84-84v-233h266v233h-266z m71-608h625v83h-625v-83z m20-58v16h167v-16c0-46-37-84-83-84-46 0-84 38-84 84z m209 0v16h166v-16c0-46-37-84-83-84-46 0-83 38-83 84z m208 0v16h167v-16c0-46-38-84-84-84-46 0-83 38-83 84z m-92 750v-400h434v400h-434z m84-317v233h266v-233h-266z" horiz-adv-x="1000" />

<glyph glyph-name="empty-avatar" unicode="&#xe818;" d="M508-35c213 0 385 172 385 385 0 213-172 385-385 385-212 0-385-172-385-385 0-213 173-385 385-385z m0 385c-25 0-47 9-65 27-18 18-27 40-27 66 0 25 9 47 27 65 18 18 40 27 65 27 26 0 47-9 65-27 18-18 28-40 28-65 0-26-10-48-28-66-18-18-39-27-65-27z m-185-185v65c0 13 4 25 10 36 7 11 16 19 27 25 24 12 48 21 73 27 25 6 50 9 75 9 26 0 51-3 75-9 25-6 49-15 73-27 11-6 20-14 27-25 7-11 10-23 10-36v-65h-370z" horiz-adv-x="1010" />

<glyph glyph-name="empty-event" unicode="&#xe819;" d="M946 558c0 14-4 27-10 39-7 12-16 22-28 30-11 7-24 12-38 13-14 1-27-1-40-7-12-6-23-14-31-25-9-11-14-24-16-37-2-14-1-27 3-40 5-13 13-25 23-34-12-47-132-97-301-97-171 0-292 51-301 99 12 12 20 27 24 43 3 16 1 33-5 48-7 15-18 28-31 37-14 9-31 13-47 13-17 0-32-6-46-16-13-9-23-23-29-38-6-16-6-33-2-49 4-16 13-30 25-41v-431c0-3 2-6 4-8 2-3 5-4 8-4h798c3 0 6 1 8 4 2 2 3 5 3 8v431c9 8 16 18 21 28 5 11 8 22 8 34z m-82 47c10 0 20-3 28-9 8-6 14-14 17-24 3-10 3-20-1-30-3-9-9-17-18-23h-1c-2-1-4-2-6-3l-3-2-4-1-5-1h-2c-3 0-7 0-11 0h-2l-5 1-3 1-4 2c-2 1-4 2-6 3l-1 0c-8 6-14 14-18 24-3 9-3 20 0 29 3 10 9 19 17 25 8 6 18 9 28 9l0-1z m-714 0c11 0 20-3 29-9 8-6 14-14 17-24 3-10 2-20-1-30-3-9-10-17-18-23l-1-1c-2-1-4-2-6-3l-4-1-3-1-5-1h-3c-3-1-7-1-10 0h-2l-5 1-4 1-3 1c-2 1-4 2-6 3h-1c-9 6-15 14-19 24-3 9-3 20 0 29 3 10 9 19 17 25 8 6 18 9 28 9l0 0z m20-517h-39v390h1l7-1h2c6-1 13-1 19 0h2l7 1h1l0-390z m34 0v355c53-47 167-78 304-78 136 0 248 30 301 76v-353l-605 0z m679 390v-390h-38v390h1l6-1h3c6-1 12-1 18 0h2l7 1 1 0z m37 81c0-29-24-53-53-53-29 0-53 24-53 53 0 29 24 53 53 53 29 0 53-24 53-53z m-718 0c0-29-24-53-53-53-29 0-53 24-53 53 0 29 24 53 53 53 29 0 53-24 53-53z" horiz-adv-x="1010" />

<glyph glyph-name="fav-mobile" unicode="&#xe81a;" d="M310 348c0-37 20-76 60-118 39-41 84-85 134-130 50 45 95 89 134 130 40 42 60 81 60 118 0 31-11 56-32 76-20 20-45 30-75 30-18 0-34-3-49-11-15-7-28-17-38-28-10 11-23 21-39 28-16 8-32 11-49 11-29 0-54-10-75-30-20-20-31-45-31-76z m-139-373v500l333 250 333-250v-500h-666z m83 83h500v375l-250 188-250-188v-375z" horiz-adv-x="1042" />

<glyph glyph-name="layout-banquet-rounds" unicode="&#xe81b;" d="M194 718c0 27 21 49 48 49 27 0 48-22 48-49v-14c-15 4-31 6-48 6-17 0-33-2-48-6v14z m220-141c-9 32-26 61-49 83l13 8c23 13 53 5 66-18 13-23 5-53-18-66l-12-7z m-49-171c23 23 40 52 49 84l12-7c23-14 31-43 18-66-13-23-43-31-66-18l-13 7z m-123-50c17 0 33 3 48 7v-15c0-26-21-48-48-48-27 0-48 22-48 48v15c15-4 31-7 48-7z m-172 134c8-32 25-61 49-84l-13-7c-23-13-53-5-66 18-13 23-6 52 18 66l12 7z m49 170c-24-22-41-51-49-83l-12 7c-24 13-31 43-18 66 13 23 43 31 66 18l13-8z m123 18c-80 0-145-65-145-145 0-80 65-144 145-144 80 0 145 64 145 144 0 80-65 145-145 145z m-62-145c0 34 28 62 62 62 34 0 61-28 61-62 0-34-27-61-61-61-34 0-62 27-62 61z m434 0c0 80 65 145 145 145 80 0 144-65 144-145 0-80-64-144-144-144-80 0-145 64-145 144z m145 62c-34 0-62-28-62-62 0-34 28-61 62-61 34 0 61 27 61 61 0 34-27 62-61 62z m-49 123c0 27 22 49 49 49 26 0 48-22 48-49v-14c-15 4-32 6-48 6-17 0-33-2-49-6v14z m220-141c-8 32-25 61-48 83l13 8c23 13 52 5 66-18 13-23 5-53-18-66l-13-7z m-48-171c23 23 40 52 48 84l13-7c23-14 31-43 18-66-14-23-43-31-66-18l-13 7z m-123-50c16 0 33 3 48 7v-15c0-26-22-48-48-48-27 0-49 22-49 48v15c16-4 32-7 49-7z m-172 134c8-32 25-61 48-84l-13-7c-23-13-52-5-65 18-14 23-6 52 17 66l13 7z m48 170c-23-22-40-51-48-83l-13 7c-23 13-31 43-17 66 13 23 42 31 65 18l13-8z m-271-505c0 80 65 145 145 145 80 0 144-65 144-145 0-80-64-145-144-145-80 0-145 65-145 145z m145 62c-34 0-62-28-62-62 0-34 28-61 62-61 34 0 61 27 61 61 0 34-27 62-61 62z m-49 118c0 27 22 48 49 48 26 0 48-21 48-48v-15c-15 5-32 7-48 7-17 0-33-2-49-7v15z m220-142c-8 33-25 62-48 84l13 7c23 14 52 6 66-17 13-23 5-53-18-66l-13-8z m-48-170c23 23 40 51 48 84l13-8c23-13 31-43 18-66-14-23-43-31-66-17l-13 7z m-123-50c16 0 33 2 48 7v-15c0-27-22-48-48-48-27 0-49 21-49 48v15c16-5 32-7 49-7z m-172 134c8-33 25-61 48-84l-13-7c-23-14-52-6-65 17-14 23-6 53 17 66l13 8z m48 170c-23-22-40-51-48-84l-13 8c-23 13-31 43-17 66 13 23 42 31 65 17l13-7z" horiz-adv-x="1000" />

<glyph glyph-name="furniture" unicode="&#xe81c;" d="M216-150c-13 0-24 5-33 14-9 9-14 20-14 32v58h-12c-43 0-80 15-111 46-31 30-46 67-46 111v319c0 47 15 84 45 111 30 27 66 41 107 41v116c0 44 14 80 43 109 29 29 65 43 109 43h615c44 0 80-14 109-43 28-29 42-65 42-109v-116c42 0 77-14 107-41 30-27 45-64 45-111v-319c0-44-15-81-46-111-30-31-67-46-111-46h-12v-58c0-12-5-23-14-32-9-9-20-14-32-14-13 0-24 5-33 14-9 9-14 20-14 32v58h-698v-58c0-12-4-23-14-32-9-9-20-14-32-14z m-59 196h908c17 0 33 7 45 20 13 12 20 28 20 45v319c0 17-6 32-17 43-11 10-25 16-43 16-17 0-31-6-42-16-11-11-17-26-17-43v-237h-800v237c0 17-5 32-16 43-11 10-26 16-43 16-18 0-32-6-43-16-11-11-16-26-16-43v-319c0-17 6-33 19-45 13-13 28-20 45-20z m147 239h615v145c0 27 6 51 18 70 12 19 25 36 41 48v150c0 18-6 32-17 43-11 11-25 16-42 16h-615c-18 0-32-5-43-16-11-11-17-25-17-43v-150c16-12 30-29 42-48 12-19 18-43 18-70v-145z" horiz-adv-x="1233" />

<glyph glyph-name="empty-primary" unicode="&#xe81d;" d="M868 533v-480h-720v480h720z m0 60h-720c-8 0-15-2-23-5-7-3-14-7-19-13-6-5-10-12-13-19-3-7-5-15-5-23v-480c0-8 2-16 5-23 3-7 7-14 13-20 5-5 12-10 19-13 8-3 15-4 23-4h720c8 0 16 1 23 4 7 3 14 8 20 13 5 6 10 13 13 20 3 7 4 15 4 23v480c0 8-1 16-4 23-3 7-8 14-13 19-6 6-13 10-20 13-7 3-15 5-23 5z m-420-180h-60v60h-60v-60h-60v-60h60v-60h60v60h60v60z m300 0h-180v-60h180v60z m-300 300h-180v-60h180v60z m300 0h-180v-60h180v60z m60-480h-600v-120h600v120z" horiz-adv-x="1010" />

<glyph glyph-name="layout-ceiling-height" unicode="&#xe81e;" d="M33 825h934v-83h-934v83z m0-867h934v-83h-934v83z m431 206v250l-77-76-48 48 159 158 158-158-48-48-77 76v-250h-67z m-431 661h934v-83h-934v83z m0-867h934v-83h-934v83z m431 206v250l-77-76-48 48 159 158 158-158-48-48-77 76v-250h-67z" horiz-adv-x="1000" />

<glyph glyph-name="layout-dimensions" unicode="&#xe81f;" d="M887 523h81v295h-295v-81h214v-214z m-855-641h295v81h-214v214h-81v-295z m0 428h81v81h-81v-81z m0 213h81v82h-81v-82z m0 214h81v81h-81v-81z m214 0h81v81h-81v-81z m214-855h81v81h-81v-81z m0 855h81v81h-81v-81z m213-855h82v81h-82v-81z m214 0h81v81h-81v-81z m0 214h81v81h-81v-81z m0 214h81v81h-81v-81z" horiz-adv-x="1000" />

<glyph glyph-name="layout-cabaret" unicode="&#xe820;" d="M650 733v34c0 37-30 66-67 66-36 0-66-29-66-66v-34h133z m-167 0v34c0 37-29 66-66 66-37 0-67-29-67-66v-34h133z m-88-346c0 81-66 146-147 146-81 0-147-65-147-146 0-82 66-147 147-147 81 0 147 65 147 147z m-147 63c35 0 64-28 64-63 0-35-29-64-64-64-35 0-63 29-63 64 0 35 28 63 63 63z m497 83c-81 0-147-65-147-146 0-82 66-147 147-147 81 0 147 65 147 147 0 81-66 146-147 146z m-64-146c0 35 29 63 64 63 35 0 63-28 63-63 0-35-28-64-63-64-35 0-64 29-64 64z m208-107c20 27 32 58 35 93l16-5c26-7 42-34 35-60-7-26-34-41-60-34l-26 6z m-125-72c34 4 65 17 91 37l6-19c9-25-5-53-30-62-26-9-53 5-62 30l-5 14z m168 230l-13-7c-8 32-26 61-49 84l13 8c23 13 53 5 67-18 13-24 5-53-18-67z m-829-158c-19 27-31 58-34 93l-16-5c-26-7-42-34-35-60 7-26 34-41 60-34l25 6z m126-72c-34 4-65 17-91 37l-6-19c-9-25 4-53 30-62 25-9 53 5 62 30l5 14z m-168 230l13-7c8 32 26 61 49 84l-13 8c-23 13-53 5-67-18-13-24-5-53 18-67z m328-265c48 65 140 79 205 30 65-48 79-140 31-205-48-65-140-79-205-31-66 49-79 140-31 206z m156-37c-29 21-68 15-89-13-21-28-15-68 13-89 28-21 68-15 89 14 21 28 15 68-13 88z m106-157c-20-28-46-47-75-59l9-12c17-21 48-25 69-8 21 17 25 48 8 69l-9 12c-1-1-1-2-2-2z m-251-38c14-10 28-18 43-24l-8-12c-16-21-47-26-69-10-22 16-26 47-10 69l9 12c10-13 21-25 35-35z m-85 117l15-2c-6 33-2 66 11 98l-15 1c-27 3-51-16-54-43-3-27 16-51 43-54z m358-41c13 31 16 65 11 97l15-1c27-3 46-28 43-54-3-27-27-47-54-44l-15 2z m27 675h-400v-84h400v84z" horiz-adv-x="1000" />

<glyph glyph-name="progress-not-completed" unicode="&#xe821;" d="M500-67c-56 1-111 12-162 34-50 20-95 50-134 87-37 39-67 84-87 134-22 51-34 106-34 162 0 56 12 111 34 163 20 49 50 95 87 133 39 37 84 67 134 87 51 23 106 35 162 35 56 0 111-12 163-35 49-20 95-50 133-87 37-38 67-84 87-133 22-52 34-107 34-163 0-56-12-111-34-162-20-50-50-95-87-134-38-37-84-67-133-87-52-22-107-33-163-34z m0 750c-44 1-88-8-129-25-40-17-77-41-108-70-30-32-54-69-71-109-34-83-34-175 0-258 17-40 41-77 71-108 31-30 68-54 108-71 83-34 175-34 258 0 40 17 77 41 109 71 29 31 53 68 70 108 34 83 34 175 0 258-17 40-41 77-70 109-32 29-69 53-109 70-41 17-85 26-129 25z" horiz-adv-x="1000" />

<glyph glyph-name="edit-circle" unicode="&#xe822;" d="M500-150c276 0 500 224 500 500 0 276-224 500-500 500-276 0-500-224-500-500 0-276 224-500 500-500z m-250 208v144l379 379c6 6 14 11 22 14 8 3 17 5 26 5 9 0 17-2 26-5 8-3 16-8 23-15l46-48c7-6 12-13 15-22 3-8 5-17 5-26 0-8-2-17-5-25-3-8-8-16-15-22l-378-379h-144z m427 380l47 47-47 47-48-47 48-47z" horiz-adv-x="1000" />

<glyph glyph-name="layout-max-capacity" unicode="&#xe823;" d="M872 711c29-28 76-28 105 0 29 29 29 76 0 105-29 29-76 29-105 0-29-29-29-76 0-105z m-380-39c29-29 76-29 105 0 29 29 29 76 0 105-29 29-76 29-105 0-29-29-29-76 0-105z m170-170c29-29 76-29 105 0 29 29 29 76 0 105-29 29-76 29-105 0-28-29-28-76 0-105z m171-170c29-29 76-29 104 0 29 29 29 75 0 104-28 29-75 29-104 0-29-29-29-75 0-104z m-721 301c29-29 76-29 105 0 29 29 29 76 0 105-29 29-76 29-105 0-28-29-28-76 0-105z m171-170c29-29 76-29 104 0 29 29 29 75 0 104-28 29-75 29-104 0-29-29-29-75 0-104z m170-171c29-28 76-28 105 0 29 29 29 76 0 105-29 29-76 29-105 0-29-29-29-76 0-105z m170-170c29-29 76-29 105 0 29 29 29 76 0 105-29 29-76 29-105 0-29-29-29-76 0-105z m170-170c29-29 76-29 105 0 29 29 29 76 0 105-29 29-76 29-105 0-29-29-29-76 0-105z m-720 301c29-29 76-29 105 0 29 29 29 76 0 105-29 29-76 29-105 0-29-29-29-76 0-105z m170-170c29-29 76-29 105 0 29 29 29 76 0 105-29 29-76 29-105 0-29-29-29-76 0-105z m171-170c29-29 76-29 104 0 29 29 29 75 0 104-28 29-75 29-104 0-29-29-29-75 0-104z m-380-40c29-29 76-29 105 0 29 29 29 76 0 105-29 29-76 29-105 0-29-29-29-76 0-105z" horiz-adv-x="1000" />

<glyph glyph-name="layout-hollow-square" unicode="&#xe824;" d="M667 833c-37 0-67-29-67-66v-34h133v34c0 37-29 66-66 66z m-100-66v-34h-134v34c0 37 30 66 67 66 37 0 67-29 67-66z m-167 0v-34h-133v34c0 37 30 66 66 66 37 0 67-29 67-66z m-217-100h34v-134h-34c-36 0-66 30-66 67 0 37 30 67 66 67z m0-167h34v-133h-34c-36 0-66 30-66 66 0 37 30 67 66 67z m0-167h34v-133h-34c-36 0-66 30-66 67 0 37 30 66 66 66z m0-166h34v-134h-34c-36 0-66 30-66 67 0 37 30 67 66 67z m84-234v34h133v-34c0-37-30-66-67-66-36 0-66 29-66 66z m166 0v34h134v-34c0-37-30-66-67-66-37 0-67 29-67 66z m167 0v34h133v-34c0-37-29-66-66-66-37 0-67 29-67 66z m217 100h-34v134h34c37 0 66-30 66-67 0-37-29-67-66-67z m0 167h-34v133h34c37 0 66-29 66-66 0-37-29-67-66-67z m0 167h-34v133h34c37 0 66-30 66-67 0-36-29-66-66-66z m0 166h-34v134h34c37 0 66-30 66-67 0-37-29-67-66-67z m-550 150l0-666h466v666l-466 0z m83-583l0 500 300 0v-500h-300z" horiz-adv-x="1000" />

<glyph glyph-name="highlight" unicode="&#xe825;" d="M235 517l-89 87 58 61 90-90-59-58z m223 125v125h84v-125h-84z m309-125l-61 58 90 88 58-59-87-87z m-392-584v209l-125 125v208h500v-208l-125-125v-209h-250z m83 84h84v159l125 125v91h-334v-91l125-125v-159z" horiz-adv-x="1000" />

<glyph glyph-name="layout-eshape" unicode="&#xe826;" d="M400 833c-37 0-67-29-67-66v-34h134v34c0 37-30 66-67 66z m-150-183h33v-133h-33c-37 0-67 30-67 66 0 37 30 67 67 67z m0-167h33v-133h-33c-37 0-67 30-67 67 0 37 30 66 67 66z m0-166h33v-134h-33c-37 0-67 30-67 67 0 37 30 67 67 67z m0-167h33v-133h-33c-37 0-67 30-67 66 0 37 30 67 67 67z m83-217v34h134v-34c0-37-30-66-67-66-37 0-67 29-67 66z m167 0v34h133v-34c0-37-29-66-66-66-37 0-67 29-67 66z m167 0v34h133v-34c0-37-30-66-67-66-36 0-66 29-66 66z m0 834v-34h133v34c0 37-30 66-67 66-36 0-66-29-66-66z m-167-34h133v34c0 37-29 66-66 66-37 0-67-29-67-66v-34z m-175-41h492v-84h-409v-216h409v-84h-409v-216h409v-84h-492v684z m258-192c0-37-29-67-66-67-37 0-67 30-67 67 0 37 30 67 67 67 37 0 66-30 66-67z m150-67c37 0 67 30 67 67 0 37-30 67-67 67-36 0-66-30-66-67 0-37 30-67 66-67z m-150-233c0-37-29-67-66-67-37 0-67 30-67 67 0 37 30 67 67 67 37 0 66-30 66-67z m150-67c37 0 67 30 67 67 0 37-30 67-67 67-36 0-66-30-66-67 0-37 30-67 66-67z" horiz-adv-x="1000" />

<glyph glyph-name="layout-royal-conference" unicode="&#xe827;" d="M500 833c-37 0-67-29-67-66v-34h134v34c0 37-30 66-67 66z m-267-166h34v-134h-34c-36 0-66 30-66 67 0 37 30 67 66 67z m0-167h34v-133h-34c-36 0-66 30-66 66 0 37 30 67 66 67z m0-167h34v-133h-34c-36 0-66 30-66 67 0 37 30 66 66 66z m0-166h34v-134h-34c-36 0-66 30-66 67 0 37 30 67 66 67z m200-234v34h134v-34c0-37-30-66-67-66-37 0-67 29-67 66z m334 100h-34v134h34c37 0 66-30 66-67 0-37-29-67-66-67z m0 167h-34v133h34c37 0 66-29 66-66 0-37-29-67-66-67z m0 167h-34v133h34c37 0 66-30 66-67 0-36-29-66-66-66z m0 166h-34v134h34c37 0 66-30 66-67 0-37-29-67-66-67z m-450 150v-666h366v666h-366z m83-583v500h200v-500h-200z" horiz-adv-x="1000" />

<glyph glyph-name="layout-cocktail-rounds" unicode="&#xe828;" d="M750 842h-500v-84h500v84z m-725-75v-300h83v300h-83z m392-217c37 0 66 30 66 67 0 37-29 66-66 66-37 0-67-29-67-66 0-37 30-67 67-67z m166 0c37 0 67 30 67 67 0 37-30 66-67 66-36 0-66-29-66-66 0-37 30-67 66-67z m-266-150c0-37-30-67-67-67-37 0-67 30-67 67 0 37 30 67 67 67 37 0 67-30 67-67z m100-67c37 0 66 30 66 67 0 37-29 67-66 67-37 0-67-30-67-67 0-37 30-67 67-67z m233 67c0-37-30-67-67-67-36 0-66 30-66 67 0 37 30 67 66 67 37 0 67-30 67-67z m100-67c37 0 67 30 67 67 0 37-30 67-67 67-37 0-67-30-67-67 0-37 30-67 67-67z m-267-150c0-36-29-66-66-66-37 0-67 30-67 66 0 37 30 67 67 67 37 0 66-30 66-67z m100-66c37 0 67 30 67 66 0 37-30 67-67 67-36 0-66-30-66-67 0-36 30-66 66-66z m-266-150c0-37-30-67-67-67-37 0-67 30-67 67 0 37 30 66 67 66 37 0 67-29 67-66z m100-67c37 0 66 30 66 67 0 37-29 66-66 66-37 0-67-29-67-66 0-37 30-67 67-67z m233 67c0-37-30-67-67-67-36 0-66 30-66 67 0 37 30 66 66 66 37 0 67-29 67-66z m100-67c37 0 67 30 67 67 0 37-30 66-67 66-37 0-67-29-67-66 0-37 30-67 67-67z m-725 433v-300h83v300h-83z m867 0h83v-300h-83v300z m0 134v300h83v-300h-83z" horiz-adv-x="1000" />

<glyph glyph-name="layout-trade-expo" unicode="&#xe829;" d="M25 790h950v-695h-176v84h93v528h-784v-528h93v-84h-176v695z m475-432c37 0 67 30 67 68 0 37-30 68-67 68-37 0-67-31-67-68 0-38 30-68 67-68z m-233-34v-357h466v357h-466z m83-274v190h300v-190h-300z" horiz-adv-x="1000" />

<glyph glyph-name="layout-tshape" unicode="&#xe82a;" d="M333 817c-36 0-66-30-66-67v-25c0-3 0-6 0-8h133c0 2 0 5 0 8v25c0 37-30 67-67 67z m400-84c0-5 0-11-2-16h-129c-1 5-2 11-2 16v17c0 37 30 67 67 67 37 0 66-30 66-67v-17z m-166 0c0-5-1-11-2-16h-130c-1 5-2 11-2 16v17c0 37 30 67 67 67 37 0 67-30 67-67v-17z m183-150v100h-500v-100h200v-700h100v700h200z m-383-66h-34c-36 0-66-30-66-67 0-37 30-67 66-67h34v134z m0-167h-34c-36 0-66-30-66-67 0-36 30-66 66-66h34v133z m266 0h34c37 0 66-30 66-67 0-36-29-66-66-66h-34v133z m-266-167h-34c-36 0-66-29-66-66 0-37 30-67 66-67h34v133z m266 0h34c37 0 66-29 66-66 0-37-29-67-66-67h-34v133z m-266-166h-34c-36 0-66-30-66-67 0-37 30-67 66-67h34v134z m266 0h34c37 0 66-30 66-67 0-37-29-67-66-67h-34v134z m0 366v134h34c37 0 66-30 66-67 0-37-29-67-66-67h-34z" horiz-adv-x="1000" />

<glyph glyph-name="layout-venue-size" unicode="&#xe82b;" d="M593 717h340v-268m-526 268h-340v-268m866-183v-283h-340m-526 283v-283h340" horiz-adv-x="1000" />

<glyph glyph-name="light" unicode="&#xe82c;" d="M42 308v84h250v-84h-250z m281 161l-88 87 59 59 87-88-58-58z m135 89v250h84v-250h-84z m219-89l-58 58 87 88 59-59-88-87z m31-161v84h250v-84h-250z m-208-83c-35 0-64 12-88 37-25 24-37 53-37 88 0 35 12 64 37 89 24 24 53 36 88 36 35 0 64-12 89-36 24-25 36-54 36-89 0-35-12-64-36-88-25-25-54-37-89-37z m206-140l-87 88 58 58 88-87-59-59z m-412 0l-59 59 88 87 58-58-87-88z m164-193v250h84v-250h-84z" horiz-adv-x="1000" />

<glyph glyph-name="layout-theater" unicode="&#xe82d;" d="M633 717v33c0 37-29 67-66 67-37 0-67-30-67-67v-33h133z m-166 0v33c0 37-30 67-67 67-37 0-67-30-67-67v-33h134z m-417-334c0-36 30-66 67-66 37 0 66 30 66 66 0 37-29 67-66 67-37 0-67-30-67-67z m650-66c-37 0-67 30-67 66 0 37 30 67 67 67 37 0 67-30 67-67 0-36-30-66-67-66z m0-217c-37 0-67 30-67 67 0 37 30 66 67 66 37 0 67-29 67-66 0-37-30-67-67-67z m-67-150c0-37 30-67 67-67 37 0 67 30 67 67 0 37-30 67-67 67-37 0-67-30-67-67z m250 367c-36 0-66 30-66 66 0 37 30 67 66 67 37 0 67-30 67-67 0-36-30-66-67-66z m-66-150c0-37 30-67 66-67 37 0 67 30 67 67 0 37-30 66-67 66-36 0-66-29-66-66z m66-284c-36 0-66 30-66 67 0 37 30 67 66 67 37 0 67-30 67-67 0-37-30-67-67-67z m-766 217c-37 0-67 30-67 67 0 37 30 66 67 66 37 0 66-29 66-66 0-37-29-67-66-67z m-67-150c0-37 30-67 67-67 37 0 66 30 66 67 0 37-29 67-66 67-37 0-67-30-67-67z m267 367c-37 0-67 30-67 66 0 37 30 67 67 67 37 0 66-30 66-67 0-36-29-66-66-66z m-67-150c0-37 30-67 67-67 37 0 66 30 66 67 0 37-29 66-66 66-37 0-67-29-67-66z m67-284c-37 0-67 30-67 67 0 37 30 67 67 67 37 0 66-30 66-67 0-37-29-67-66-67z m366 792h-400v-83h400v83z" horiz-adv-x="1000" />

<glyph glyph-name="layout-ushape" unicode="&#xe82e;" d="M739 833h-83v-725h-325v725h-83v-808h491v808z m-570-33h35v-133h-35c-37 0-67 30-67 66 0 37 30 67 67 67z m0-200h35v-133h-35c-37 0-67 30-67 66 0 37 30 67 67 67z m649 0h-36v-133h36c37 0 66 30 66 66 0 37-29 67-66 67z m-649-200h35v-133h-35c-37 0-67 30-67 66 0 37 30 67 67 67z m649 0h-36v-133h36c37 0 66 30 66 66 0 37-29 67-66 67z m-649-200h35v-133h-35c-37 0-67 30-67 66 0 37 30 67 67 67z m86-249v32h136v-32c0-37-30-68-68-68-37 0-68 31-68 68z m170 0v32h136v-32c0-37-30-68-68-68-37 0-68 31-68 68z m170 0v32h136v-32c0-37-30-68-68-68-37 0-68 31-68 68z m223 249h-36v-133h36c37 0 66 30 66 66 0 37-29 67-66 67z m-36 600v-133h36c37 0 66 30 66 66 0 37-29 67-66 67h-36z" horiz-adv-x="1000" />

<glyph glyph-name="layout-outdoor" unicode="&#xe82f;" d="M442 283c37 0 66 30 66 67 0 37-29 67-66 67-37 0-67-30-67-67 0-37 30-67 67-67z m-309 542h517v-67h200v-800h125v-83h-208v42h41c-41 0-41 0-41 0v758h-117v-758c0 0 0 0-42 0l42 0v-42h-617v83h100v867z m84-867h350v784h-350v-784z" horiz-adv-x="1000" />

<glyph glyph-name="menu-contact-infos" unicode="&#xe830;" d="M179 682h703c48 0 87-39 87-87v-490c0-48-39-87-87-87h-703c-48 0-87 39-87 87v490c0 48 39 87 87 87z m0-83c-2 0-4-2-4-4v-490c0-2 2-4 4-4h32v69c0 14 3 26 10 38 7 12 17 20 29 27 25 12 51 22 77 28 26 6 52 9 79 9 27 0 54-3 80-9 26-6 51-16 77-28 11-7 21-15 28-27 7-12 11-24 11-38v-69h280c2 0 4 2 4 4v490c0 2-2 4-4 4h-703z m544-238h42v65l56-33 21 37-56 32 56 33-21 36-56-32v65h-42v-65l-56 32-21-36 56-33-56-32 21-37 56 33v-65z m-386-35c19-20 42-29 69-29 27 0 50 9 69 29 19 19 29 42 29 69 0 27-10 50-29 69-19 19-42 28-69 28-27 0-50-9-69-28-19-19-29-42-29-69 0-27 10-50 29-69z" horiz-adv-x="1042" />

<glyph glyph-name="logistics" unicode="&#xe831;" d="M250 17c-35 0-64 12-88 36-25 24-37 54-37 89h-83v458c0 23 8 43 24 59 17 16 36 24 59 24h583v-166h125l125-167v-208h-83c0-35-12-65-36-89-25-24-54-36-89-36-35 0-64 12-88 36-25 24-37 54-37 89h-250c0-35-12-65-36-89-25-24-54-36-89-36z m0 83c12 0 22 4 30 12 8 8 12 18 12 30 0 12-4 21-12 29-8 8-18 12-30 12-12 0-22-4-30-12-8-8-12-17-12-29 0-12 4-22 12-30 8-8 18-12 30-12z m-125 125h33c12 13 26 23 41 30 15 8 32 12 51 12 19 0 36-4 51-12 15-7 29-17 41-30h283v375h-500v-375z m625-125c12 0 22 4 30 12 8 8 12 18 12 30 0 12-4 21-12 29-8 8-18 12-30 12-12 0-22-4-30-12-8-8-12-17-12-29 0-12 4-22 12-30 8-8 18-12 30-12z m-42 208h177l-93 125h-84v-125z" horiz-adv-x="1000" />

<glyph glyph-name="location" unicode="&#xe832;" d="M500 350c23 0 43 8 59 25 16 16 24 35 24 58 0 23-8 43-24 59-16 17-36 25-59 25-23 0-42-8-59-25-16-16-24-36-24-59 0-23 8-42 24-58 17-17 36-25 59-25z m0-417c-112 96-195 184-250 265-56 82-83 158-83 227 0 104 33 187 100 249 67 62 145 93 233 93 88 0 166-31 233-93 67-62 100-145 100-249 0-69-27-145-82-227-56-81-139-169-251-265z" horiz-adv-x="1000" />

<glyph glyph-name="marker-location" unicode="&#xe833;" d="M501 359c19 0 35 7 48 20 13 14 20 30 20 48 0 19-7 35-20 49-13 13-29 20-48 20-19 0-35-7-48-20-14-14-20-30-20-49 0-18 6-34 20-48 13-13 29-20 48-20z m0-378c-100 85-174 164-224 237-49 73-74 140-74 202 0 93 30 167 90 222 60 55 129 83 208 83 79 0 148-28 208-83 60-55 90-129 90-222 0-62-25-129-74-202-50-73-124-152-224-237z" horiz-adv-x="1018" />

<glyph glyph-name="progress-completed" unicode="&#xe834;" d="M883 513c-20 49-50 95-87 133-38 37-84 67-133 87-52 22-107 34-163 34-56 0-111-12-162-34-50-20-95-50-134-87-37-38-67-84-87-133-22-52-34-107-34-163 0-56 12-111 34-162 20-50 50-95 87-134 39-37 84-67 134-87 51-22 106-34 162-34 56 0 111 12 163 34 49 20 95 50 133 87 37 39 67 84 87 134 22 51 34 106 34 162 0 56-12 111-34 163z m-450-334l-166 163 46 46 120-121 255 254 45-42-300-300z" horiz-adv-x="1000" />

<glyph glyph-name="menu-inbox" unicode="&#xe835;" d="M531 100l166 167-58 58-67-67v175h-83v-175l-67 67-58-58 167-167z m-292 417v-459h583v459h-583z m0-542c-23 0-43 8-59 24-16 17-24 36-24 59v520c0 10 1 19 4 28 3 9 8 18 14 25l52 64c8 10 18 17 29 22 12 5 24 8 36 8h479c13 0 25-3 36-8 12-5 21-12 29-22l52-64c6-7 11-16 14-25 3-9 5-18 5-28v-520c0-23-9-42-25-59-16-16-36-24-59-24h-583z m17 625h550l-36 42h-479l-35-42z" horiz-adv-x="1042" />

<glyph glyph-name="menu-dashboard" unicode="&#xe836;" d="M301 121l313 146 146 312-313-146-146-312z m230 187c-12 0-22 4-30 12-8 8-12 18-12 30 0 12 4 22 12 30 8 8 18 12 30 12 11 0 21-4 29-12 8-8 12-18 12-30 0-12-4-22-12-30-8-8-18-12-29-12z m0-375c-58 0-112 11-163 33-51 22-95 52-132 89-38 38-67 82-89 133-22 50-33 104-33 162 0 58 11 112 33 163 22 50 51 94 89 132 37 37 81 67 132 89 51 22 105 33 163 33 57 0 111-11 162-33 51-22 95-52 132-89 38-38 68-82 90-132 21-51 32-105 32-163 0-58-11-112-32-162-22-51-52-95-90-133-37-37-81-67-132-89-51-22-105-33-162-33z m0 84c93 0 172 32 236 97 65 64 97 143 97 236 0 93-32 172-97 237-64 64-143 96-236 96-93 0-172-32-237-96-64-65-97-144-97-237 0-93 33-172 97-236 65-65 144-97 237-97z" horiz-adv-x="1042" />

<glyph glyph-name="metro" unicode="&#xe837;" d="M250-25v42l63 41c-41 0-76 14-104 43-28 28-42 62-42 103v396c0 58 26 100 80 127 53 26 138 40 253 40 119 0 205-13 256-39 52-26 77-68 77-128v-396c0-41-14-75-42-103-28-29-62-43-103-43l62-41v-42h-500z m0 458h208v125h-208v-125z m292 0h208v125h-208v-125z m-188-250c18 0 32 6 44 19 13 12 19 27 19 44 0 17-6 32-19 44-12 12-26 18-44 18-17 0-32-6-44-18-12-12-18-27-18-44 0-17 6-32 18-44 12-13 27-19 44-19z m292 0c17 0 32 6 44 19 12 12 18 27 18 44 0 17-6 32-18 44-12 12-27 18-44 18-17 0-32-6-44-18-13-12-19-27-19-44 0-17 6-32 19-44 12-13 27-19 44-19z m-333-41h375c18 0 33 6 44 17 12 12 18 27 18 45v146h-500v-146c0-18 6-33 18-45 12-11 26-17 45-17z m187 541c-60 0-109-3-148-10-40-7-67-17-83-31h466c-12 14-38 24-77 31-39 7-92 10-158 10z" horiz-adv-x="1000" />

<glyph glyph-name="menu-inquiries" unicode="&#xe838;" d="M110-67v-10l7 7 165 166h603c18 0 33 7 47 20 13 13 20 29 20 47v541c0 18-7 34-20 47-14 13-29 20-47 20h-709c-17 0-33-7-46-20-13-13-20-29-20-47v-771z m144 234h-2l-1-2-70-75v610h700v-533h-627z m285 48c10 0 18 3 25 10 6 6 10 15 10 24 0 10-4 18-10 25-7 6-15 10-25 10-9 0-18-4-24-10-7-7-10-15-10-25 0-10 3-18 10-24 6-7 15-10 24-10z m-30 134h52c0 9 1 17 2 24 1 7 3 14 6 21 3 6 8 13 13 20 5 6 12 14 20 22 20 19 34 37 42 53 8 15 12 31 12 48 0 32-11 58-31 77-21 18-49 28-83 28-32 0-59-8-81-23-22-14-38-35-48-61l48-20c9 17 20 30 33 39 13 9 29 13 47 13 19 0 35-5 46-15 11-9 17-23 17-40 0-12-4-23-10-35-7-11-18-24-34-40-10-9-18-18-25-25-6-8-11-16-16-25-3-9-6-18-7-27-2-10-3-21-3-34z" horiz-adv-x="1042" />

<glyph glyph-name="browse-image" unicode="&#xe839;" d="M194-25c-17 0-31 6-43 18-12 13-18 27-18 45v625c0 17 6 31 18 44 12 12 26 18 43 18h419v-62h-419v-625h615v425h61v-425c0-18-6-32-18-45-12-12-26-18-43-18h-615z m533 519v84h-83v63h83v84h61v-84h83v-63h-83v-84h-61z m-471-350h491l-147 200-130-174-97 129-117-155z" horiz-adv-x="1000" />

<glyph glyph-name="browse-logo" unicode="&#xe83a;" d="M305 403h-99v-99h99v99z m492-99h-98l49 99 49-99z m-239 0l-25 50 25 49h51l26-49-26-50h-51z m-138 0c27 0 49 22 49 50 0 27-22 49-49 49-27 0-49-22-49-49 0-28 22-50 49-50z m-291 210v-320h752v320h-752z m727-109h-57v92h57v-92z m-648-3h97v-96h-97v96z m-2-96h-60v96h60v-96z m492 99h-62v92h62v-92z m2 92h97v-92h-97v92z m-328-95h97v-96h-97v96z m-2-96h-63v96h64v-96h-1z m101 96h61v-96h-61v96z m64 0h100v-96h-100v96z m101 0h62v-96h-62v96z m-2 3h-99v92h100v-92h-1z m-102 0h-61v92h61v-92z m-64 0h-96v92h97v-92h-1z m-98 0h-63v92h64v-92h-1z m-66 0h-96v92h97v-92h-1z m0-101v-94h-96v94h96z m3 0h64v-94h-64v94z m65 0h97v-94h-97v94z m99 0h61v-94h-61v94z m64 0h100v-94h-100v94z m101 0h62v-94h-62v94z m64 0h97v-94h-97v94z m0 2v96h97v-96h-97z m99 96h57v-96h-57v96z m-593 95v-92h-60v92h60z m-60-193h60v-94h-60v94z m653-94v94h57v-94h-57z m68 336h-732c-20 0-36-16-36-35v-304c0-20 16-36 36-36h732c20 0 36 16 36 36v304c0 19-16 35-36 35z" horiz-adv-x="1000" />

<glyph glyph-name="menu-add-property" unicode="&#xe83b;" d="M489 142h83v125h125v83h-125v125h-83v-125h-125v-83h125v-125z m-292-167v500l334 250 333-250v-500h-667z m84 83h500v375l-250 188-250-188v-375z" horiz-adv-x="1042" />

<glyph glyph-name="movie" unicode="&#xe83c;" d="M197 13c-15 0-28 6-39 17-11 11-16 24-16 39v560c0 15 5 28 16 39 11 12 24 18 39 18h626c15 0 27-6 38-18 11-11 16-24 16-39v-560c0-15-5-28-16-39-11-11-23-17-38-17h-626z m0 56h96v98h-96v-98z m529 0h97v98h-97v-98z m-529 153h96v98h-96v-98z m529 0h97v98h-97v-98z m-529 154h96v99h-96v-99z m529 0h97v99h-97v-99z m-529 155h96v98h-96v-98z m529 0h97v98h-97v-98z m-377-462h323v560h-323v-560z" horiz-adv-x="1000" />

<glyph glyph-name="menu-logout" unicode="&#xe83d;" d="M191 392h506v-84h-506l65-64-59-61-166 167 166 167 59-61-65-64z m215-167v-167h416v584h-416v-167h-84v167c0 23 8 42 25 59 16 16 36 24 59 24h416c23 0 43-8 59-24 16-17 25-36 25-59v-584c0-23-9-42-25-59-16-16-36-24-59-24h-416c-23 0-43 8-59 24-17 17-25 36-25 59v167h84z" horiz-adv-x="1042" />

<glyph glyph-name="progress-25-percent" unicode="&#xe83e;" d="M500-67c-58 0-112 11-162 33-51 22-95 52-133 89-37 38-67 82-89 133-22 50-33 104-33 162 0 58 11 112 33 163 22 50 52 94 89 132 38 37 82 67 133 89 50 22 104 33 162 33 58 0 112-11 163-33 50-22 94-52 132-89 37-38 67-82 89-132 22-51 33-105 33-163 0-58-11-112-33-162-22-51-52-95-89-133-38-37-82-67-132-89-51-22-105-33-163-33z m0 84c93 0 172 32 237 97 64 64 96 143 96 236h-333v333c-93 0-172-32-236-96-65-65-97-144-97-237 0-93 32-172 97-236 64-65 143-97 236-97z" horiz-adv-x="1000" />

<glyph glyph-name="photo-camera" unicode="&#xe83f;" d="M500 121c52 0 96 18 133 55 36 36 55 80 55 132 0 52-19 97-55 133-37 37-81 55-133 55-52 0-96-18-133-55-36-36-54-81-54-133 0-52 18-96 54-132 37-37 81-55 133-55z m0 83c-29 0-54 10-74 30-20 21-30 45-30 74 0 30 10 54 30 74 20 20 45 31 74 31 29 0 54-11 74-31 20-20 30-44 30-74 0-29-10-53-30-74-20-20-45-30-74-30z m-333-229c-23 0-43 8-59 24-16 17-25 36-25 59v500c0 23 9 43 25 59 16 17 36 25 59 25h131l77 83h250l77-83h131c23 0 43-8 59-25 17-16 25-36 25-59v-500c0-23-8-42-25-59-16-16-36-24-59-24h-666z" horiz-adv-x="1000" />

<glyph glyph-name="profile" unicode="&#xe840;" d="M251 130c35 26 74 47 116 62 42 15 86 23 133 23 47 0 92-8 133-23 42-15 81-36 116-62 26 28 47 61 62 98 15 38 22 78 22 122 0 92-32 171-97 236-65 65-144 97-236 97-92 0-171-32-236-97-65-65-97-144-97-236 0-44 7-84 22-122 16-37 36-70 62-98z m249 189c-38 0-70 13-96 39-26 26-39 58-39 96 0 38 13 70 39 96 26 27 58 40 96 40 38 0 70-13 96-40 26-26 39-58 39-96 0-38-13-70-39-96-26-26-58-39-96-39z m0-365c-55 0-106 10-155 31-48 21-90 49-125 85-36 35-64 77-85 125-20 49-31 100-31 155 0 55 11 107 31 155 21 48 49 90 85 125 35 36 77 64 125 85 49 21 100 31 155 31 55 0 107-10 155-31 48-21 90-49 125-85 36-35 64-77 85-125 21-48 31-100 31-155 0-55-10-106-31-155-21-48-49-90-85-125-35-36-77-64-125-85-48-21-100-31-155-31z m0 63c38 0 74 6 109 18 35 12 66 29 93 51-27 21-58 37-92 49-34 11-71 17-110 17-39 0-76-6-110-17-34-12-65-28-92-49 27-22 58-39 93-51 35-12 71-18 109-18z m0 364c21 0 38 7 52 21 14 14 21 31 21 52 0 21-7 38-21 52-14 14-31 21-52 21-21 0-38-7-52-21-14-14-21-31-21-52 0-21 7-38 21-52 14-14 31-21 52-21z" horiz-adv-x="1000" />

<glyph glyph-name="progress-10-percent" unicode="&#xe841;" d="M500-67c-58 0-112 11-162 33-51 22-95 52-133 89-37 38-67 82-89 133-22 50-33 104-33 162 0 58 11 112 33 163 22 50 52 94 89 132 38 37 82 67 133 89 50 22 104 33 162 33 58 0 112-11 163-33 50-22 94-52 132-89 37-38 67-82 89-132 22-51 33-105 33-163 0-58-11-112-33-162-22-51-52-95-89-133-38-37-82-67-132-89-51-22-105-33-163-33z m0 84c93 0 172 32 237 97 64 64 96 143 96 236 0 44-8 87-25 128-16 41-40 77-71 109l-237-237v333c-93 0-172-32-236-96-65-65-97-144-97-237 0-93 32-172 97-236 64-65 143-97 236-97z" horiz-adv-x="1000" />

<glyph glyph-name="progress-65-percent" unicode="&#xe842;" d="M500-67c-58 0-112 11-162 33-51 22-95 52-133 89-37 38-67 82-89 133-22 50-33 104-33 162 0 58 11 112 33 163 22 50 52 94 89 132 38 37 82 67 133 89 50 22 104 33 162 33 58 0 112-11 163-33 50-22 94-52 132-89 37-38 67-82 89-132 22-51 33-105 33-163 0-58-11-112-33-162-22-51-52-95-89-133-38-37-82-67-132-89-51-22-105-33-163-33z m-236 181l236 236v333c-93 0-172-32-236-96-65-65-97-144-97-237 0-44 8-87 25-128 16-41 40-77 72-108z" horiz-adv-x="1000" />

<glyph glyph-name="progress-45-percent" unicode="&#xe843;" d="M500-67c-58 0-112 11-162 33-51 22-95 52-133 89-37 38-67 82-89 133-22 50-33 104-33 162 0 58 11 112 33 163 22 50 52 94 89 132 38 37 82 67 133 89 50 22 104 33 162 33 58 0 112-11 163-33 50-22 94-52 132-89 37-38 67-82 89-132 22-51 33-105 33-163 0-58-11-112-33-162-22-51-52-95-89-133-38-37-82-67-132-89-51-22-105-33-163-33z m0 84c44 0 87 8 128 25 41 16 77 40 109 72l-237 236v333c-93 0-172-32-236-96-65-65-97-144-97-237 0-93 32-172 97-236 64-65 143-97 236-97z" horiz-adv-x="1000" />

<glyph glyph-name="plus" unicode="&#xe844;" d="M458 308h-250v84h250v250h84v-250h250v-84h-250v-250h-84v250z" horiz-adv-x="1000" />

<glyph glyph-name="menu" unicode="&#xe848;" d="M583 438v70c23 10 47 17 71 22 24 5 49 8 75 8 18 0 36-2 53-5 18-2 35-6 51-10v-67c-16 7-33 11-50 14-17 3-35 5-54 5-26 0-52-3-76-10-24-6-47-16-70-27z m0-230v71c23 10 47 17 71 22 24 5 49 7 75 7 18 0 36-1 53-4 18-3 35-6 51-10v-67c-16 6-33 11-50 14-17 3-35 5-54 5-26 0-52-3-76-9-24-7-47-16-70-29z m0 115v71c23 10 47 17 71 22 24 5 49 7 75 7 18 0 36-1 53-4 18-3 35-6 51-11v-66c-16 6-33 11-50 14-17 3-35 4-54 4-26 0-52-3-76-9-24-7-47-16-70-28z m-312-140c33 0 64-3 95-11 31-7 62-18 92-32v410c-28 17-58 29-90 38-32 8-64 12-97 12-25 0-50-2-75-7-24-5-48-12-71-22v-413c24 9 48 15 72 19 24 4 49 6 74 6z m271-43c30 14 61 25 92 32 31 8 63 11 95 11 25 0 50-2 74-6 24-4 48-10 72-19v413c-23 10-47 17-71 22-25 5-50 7-75 7-32 0-65-4-97-12-32-9-62-21-90-38v-410z m-42-123c-33 26-69 47-108 61-39 15-79 22-121 22-29 0-58-4-86-11-28-8-55-19-81-33-14-7-28-7-42 1-14 9-20 21-20 37v502c0 8 2 15 5 22 4 7 10 12 18 15 32 17 65 30 100 38 34 8 70 12 106 12 40 0 80-5 118-15 39-11 76-26 111-47 35 21 72 36 111 47 39 10 78 15 118 15 36 0 72-4 106-12 35-8 69-21 100-38 8-3 14-8 18-15 3-7 5-14 5-22v-502c0-16-6-28-20-37-13-8-28-8-42-1-26 14-53 25-81 33-28 7-57 11-86 11-41 0-82-7-121-22-39-14-75-35-108-61z" horiz-adv-x="1000" />

<glyph glyph-name="minus" unicode="&#xe849;" d="M208 308v84h584v-84h-584z" horiz-adv-x="1000" />

<glyph glyph-name="restaurant-2" unicode="&#xe84a;" d="M292-67v382c-36 9-65 29-89 58-24 29-36 63-36 102v292h83v-292h42v292h83v-292h42v292h83v-292c0-39-12-73-36-102-24-29-54-49-89-58v-382h-83z m416 0v334h-125v291c0 58 21 107 61 148 41 40 90 61 148 61v-834h-84z" horiz-adv-x="1000" />

<glyph glyph-name="progress-75-percent" unicode="&#xe84b;" d="M500-67c-58 0-112 11-162 33-51 22-95 52-133 89-37 38-67 82-89 133-22 50-33 104-33 162 0 58 11 112 33 163 22 50 52 94 89 132 38 37 82 67 133 89 50 22 104 33 162 33 58 0 112-11 163-33 50-22 94-52 132-89 37-38 67-82 89-132 22-51 33-105 33-163 0-58-11-112-33-162-22-51-52-95-89-133-38-37-82-67-132-89-51-22-105-33-163-33z m-333 417h333v333c-93 0-172-32-236-96-65-65-97-144-97-237z" horiz-adv-x="1000" />

<glyph glyph-name="safety" unicode="&#xe84c;" d="M456 202l236 236-60 59-176-176-87 87-60-59 147-147z m44-269c-96 25-176 80-239 167-63 86-94 182-94 288v254l333 125 333-125v-254c0-106-31-202-94-288-63-87-142-142-239-167z m0 88c72 23 132 69 179 137 47 69 71 146 71 230v196l-250 94-250-94v-196c0-84 24-161 71-230 47-68 107-114 179-137z" horiz-adv-x="1000" />

<glyph glyph-name="restaurant" unicode="&#xe84d;" d="M876 390v-332c0-23-8-42-24-59-17-16-36-24-59-24h-584c-22 0-42 8-58 24-17 17-25 36-25 59v332c-16 14-28 33-37 56-9 23-9 48 0 75l43 142c6 18 16 33 30 44 14 12 31 18 50 18h579c18 0 35-6 49-17 14-12 24-27 30-45l44-142c8-27 8-52-1-74-9-22-21-41-37-57z m-283 43c19 0 33 7 42 20 10 13 14 27 12 43l-23 146h-81v-154c0-15 5-28 14-38 10-11 22-17 36-17z m-188 0c16 0 29 6 39 17 10 10 15 23 15 38v154h-81l-23-146c-3-17 1-31 11-44 10-12 23-19 39-19z m-185 0c12 0 23 5 33 14 9 9 15 20 17 34l23 161h-81l-42-140c-4-14-2-29 7-45 8-16 23-24 43-24z m562 0c20 0 35 8 44 24 9 16 11 31 6 45l-43 140h-80l23-161c2-14 8-25 18-34 9-9 20-14 32-14z m-573-375h584v294c-4-1-6-2-7-2h-4c-18 0-35 3-49 9-14 7-28 17-42 31-13-13-27-23-43-30-16-6-33-10-51-10-19 0-36 4-53 10-16 7-30 17-43 30-12-13-25-23-41-30-16-6-33-10-51-10-20 0-38 4-54 10-17 7-31 17-43 30-15-15-29-25-44-31-14-6-30-9-48-9h-5c-2 0-3 1-6 2v-294z" horiz-adv-x="1000" />

<glyph glyph-name="info" unicode="&#xe84e;" d="M458 142h84v250h-84v-250z m42 333c12 0 22 4 30 12 8 8 12 18 12 30 0 12-4 21-12 29-8 8-18 12-30 12-12 0-22-4-30-12-8-8-12-17-12-29 0-12 4-22 12-30 8-8 18-12 30-12z m0-542c-58 0-112 11-162 33-51 22-95 52-133 89-37 38-67 82-89 133-22 50-33 104-33 162 0 58 11 112 33 163 22 50 52 94 89 132 38 37 82 67 133 89 50 22 104 33 162 33 58 0 112-11 163-33 50-22 94-52 132-89 37-38 67-82 89-132 22-51 33-105 33-163 0-58-11-112-33-162-22-51-52-95-89-133-38-37-82-67-132-89-51-22-105-33-163-33z m0 84c93 0 172 32 237 97 64 64 96 143 96 236 0 93-32 172-96 237-65 64-144 96-237 96-93 0-172-32-236-96-65-65-97-144-97-237 0-93 32-172 97-236 64-65 143-97 236-97z" horiz-adv-x="1000" />

<glyph glyph-name="social-facebook" unicode="&#xe850;" d="M587 292v-317h-146v317h-124v141h124v106c0 121 73 186 182 186 52 0 97-3 110-4v-128h-77c-58 0-69-28-69-69v-91h140l-18-141h-122z" horiz-adv-x="1042" />

<glyph glyph-name="single-user" unicode="&#xe851;" d="M528 350c-68 0-127 25-176 73-49 49-74 108-74 177 0 69 25 128 74 177 49 49 108 73 176 73 69 0 128-24 177-73 49-49 73-108 73-177 0-69-24-128-73-177-49-48-108-73-177-73z m-500-500v175c0 35 10 68 28 98 18 29 42 52 72 68 65 32 131 56 197 72 67 16 135 25 203 25 69 0 137-9 204-25 66-16 132-40 196-72 31-16 55-39 73-68 18-30 27-63 27-98v-175h-1000z" horiz-adv-x="1063" />

<glyph glyph-name="social-instagram" unicode="&#xe852;" d="M744 725h-437c-86 0-156-70-156-156v-438c0-86 70-156 156-156h437c87 0 157 70 157 156v438c0 86-70 156-157 156z m94-594c0-51-42-93-94-93h-437c-52 0-94 42-94 93v438c0 51 42 94 94 94h437c52 0 94-43 94-94v-438z m-312 438c-121 0-219-98-219-219 0-121 98-219 219-219 120 0 218 98 218 219 0 121-98 219-218 219z m0-375c-87 0-157 70-157 156 0 86 70 156 157 156 86 0 156-70 156-156 0-86-70-156-156-156z m250 375c0-17-14-31-32-31-17 0-31 14-31 31 0 17 14 31 31 31 18 0 32-14 32-31z" horiz-adv-x="1042" />

<glyph glyph-name="blinds" unicode="&#xe853;" d="M83-25v83h84v667h666v-667h84v-83h-834z m167 583h333v84h-333v-84z m0-166h333v83h-333v-83z m0-334h500v250h-83v-76c9-7 17-15 23-26 5-10 8-21 8-33 0-20-7-37-21-52-15-14-32-21-52-21-20 0-37 7-52 21-14 15-21 32-21 52 0 12 3 23 8 33 6 11 14 19 23 26v76h-333v-250z m417 500h83v84h-83v-84z m0-166h83v83h-83v-83z" horiz-adv-x="1000" />

<glyph glyph-name="reviews" unicode="&#xe854;" d="M88-64v768c0 17 6 31 19 43 12 13 26 19 43 19h708c16 0 31-6 43-19 12-12 19-26 19-43v-541c0-17-7-31-19-43-12-13-27-19-43-19h-604-1l0 0-165-165z m770 226h1v1 541 1h-1-708-1v-1-625-2l1 2 77 83h631z m-345 53c9 0 17 3 24 10 7 6 10 15 10 24 0 10-3 18-10 25-7 6-15 10-25 10-9 0-17-4-24-10-7-7-10-15-10-25 0-10 3-18 10-24 7-7 15-10 25-10z m-30 134h51c0 9 1 17 2 24 1 7 3 14 6 21 4 6 8 13 13 20 6 6 12 14 20 22 20 19 34 37 42 53 8 15 12 31 12 48 0 32-10 58-31 77-21 18-48 28-83 28-32 0-58-8-80-23-22-14-39-35-49-61l48-20c9 17 20 30 33 39 14 9 29 13 47 13 20 0 35-5 46-15 11-9 17-23 17-40 0-12-3-23-10-35-7-11-18-24-34-40-10-9-18-18-25-25-6-8-11-16-15-25-4-9-7-18-8-27-2-10-2-21-2-34z" horiz-adv-x="1042" />

<glyph glyph-name="social-facebook-bold" unicode="&#xe855;" d="M621 292v-317h-147v317h-123v141h123v106c0 121 74 186 182 186 52 0 97-3 110-4v-128h-76c-59 0-69-28-69-69v-91h139l-17-141h-122z" horiz-adv-x="1063" />

<glyph glyph-name="social-linkedin" unicode="&#xe856;" d="M241 725c-50 0-90-40-90-90 0-50 40-90 90-90 50 0 90 40 90 90 0 50-40 90-90 90z m474-240c-75 0-125-41-146-80h-3v69h-148v-499h154v246c0 65 13 128 94 128 79 0 80-73 80-131v-243h155v274c0 134-29 236-186 236z m-550-11v-499h156v499h-156z" horiz-adv-x="1042" />

<glyph glyph-name="layout-boardroom" unicode="&#xe857;" d="M300 817v-934h400v934h-400z m317-850h-234v766h234v-766z m-400 816h33v-133h-33c-37 0-67 30-67 67 0 37 30 66 67 66z m0-183h33v-133h-33c-37 0-67 30-67 66 0 37 30 67 67 67z m566 0h-33v-133h33c37 0 67 30 67 66 0 37-30 67-67 67z m-566-183h33v-134h-33c-37 0-67 30-67 67 0 37 30 67 67 67z m566 0h-33v-134h33c37 0 67 30 67 67 0 37-30 67-67 67z m-566-184h33v-133h-33c-37 0-67 30-67 67 0 37 30 66 67 66z m566 0h-33v-133h33c37 0 67 30 67 67 0 37-30 66-67 66z m-566-183h33v-133h-33c-37 0-67 29-67 66 0 37 30 67 67 67z m566 0h-33v-133h33c37 0 67 29 67 66 0 37-30 67-67 67z m-33 733v-133h33c37 0 67 30 67 67 0 37-30 66-67 66h-33z" horiz-adv-x="1000" />

<glyph glyph-name="flower" unicode="&#xe858;" d="M500-67c-51 7-101 20-151 41-50 22-95 52-134 92-39 39-71 89-95 150-24 60-37 133-37 217v42h42c35 0 72-4 109-13 38-10 73-23 106-41 8 60 27 121 56 184 30 63 64 117 104 162 40-45 74-99 104-162 29-63 48-124 56-184 33 18 68 31 106 41 37 9 74 13 109 13h42v-42c0-84-12-157-37-217-24-61-56-111-95-150-39-40-84-70-133-92-50-21-101-34-152-41z m-2 86c-8 115-42 202-103 261-60 59-136 96-226 110 7-119 43-208 106-266 62-58 137-93 223-105z m2 264c10 16 23 31 38 48 15 16 29 30 43 42-1 40-9 81-23 124-14 43-34 85-58 126-24-41-44-83-58-126-14-43-22-84-23-124 14-12 28-26 44-42 15-17 27-32 37-48z m81-245c26 8 53 20 81 36 27 16 53 38 77 65 24 28 45 62 62 103 17 41 27 90 30 148-65-10-122-32-172-65-49-34-87-77-113-129 8-22 15-47 21-73 6-26 11-55 14-85z" horiz-adv-x="1000" />

<glyph glyph-name="social-x" unicode="&#xe859;" d="M169 707l290-386-291-315h65l255 275 206-275h224l-306 409 271 292h-66l-235-253-189 253h-224z m97-48h102l453-605h-102l-453 605z" horiz-adv-x="1042" />

<glyph glyph-name="social-linkedin-bold" unicode="&#xe85a;" d="M254 725c-50 0-90-40-90-90 0-50 40-90 90-90 50 0 90 40 90 90 0 50-40 90-90 90z m474-240c-75 0-125-41-146-80h-3v69h-148v-499h154v246c0 65 13 128 94 128 79 0 80-73 80-131v-243h154v274c0 134-28 236-185 236z m-550-11v-499h156v499h-156z" horiz-adv-x="1063" />

<glyph glyph-name="browse-file" unicode="&#xe85b;" d="M266-20c-16 0-31 6-43 18-13 13-19 27-19 44v616c0 17 6 31 19 44 12 12 27 18 43 18h330l203-203v-475c0-17-6-31-19-44-12-12-27-18-44-18h-470z m298 508v170h-298v-616h470v446h-172z" horiz-adv-x="1000" />

<glyph glyph-name="attendees" unicode="&#xe85c;" d="M35 27v104c0 24 6 46 18 66 13 19 30 34 51 44 48 22 93 38 135 48 42 10 85 15 129 15 44 0 87-5 129-15 41-10 86-26 134-48 22-10 39-25 52-44 12-20 19-42 19-66v-104h-667z m736 0v107c0 39-10 73-31 101-20 28-48 51-82 69 44-5 85-12 123-23 39-11 72-23 98-37 24-13 42-29 56-48 13-19 19-39 19-62v-107h-183z m-403 334c-46 0-84 15-114 45-30 30-46 69-46 114 0 46 16 84 46 115 30 30 68 45 114 45 46 0 84-15 114-45 31-31 46-69 46-115 0-45-15-84-46-114-30-30-68-45-114-45z m389 159c0-45-15-84-45-114-31-30-69-45-115-45-7 0-16 0-26 2-11 1-19 3-27 5 17 19 31 42 40 68 9 26 13 54 13 84 0 31-4 59-13 84-9 25-23 48-40 68 8 3 17 5 27 6 9 1 18 2 26 2 46 0 84-15 115-45 30-31 45-69 45-115z m-653-424h528v35c0 10-3 19-8 28-6 9-13 16-22 20-46 21-86 35-122 44-35 8-72 12-112 12-39 0-77-4-112-12-36-9-77-23-123-44-8-4-15-11-21-20-5-9-8-18-8-28v-35z m264 334c26 0 47 9 65 26 17 17 25 39 25 64 0 26-8 48-25 65-18 17-39 26-65 26-25 0-47-9-64-26-17-17-26-39-26-65 0-25 9-47 26-64 17-17 39-26 64-26z" horiz-adv-x="1000" />

<glyph glyph-name="notifications" unicode="&#xe85d;" d="M188 58v84h83v291c0 58 17 109 52 154 35 45 80 74 135 88v29c0 18 6 32 19 44 12 13 27 19 44 19 17 0 32-6 44-19 12-12 18-26 18-44v-29c56-14 101-43 136-88 35-45 52-96 52-154v-291h83v-84h-666z m333-125c-23 0-43 8-59 25-16 16-24 36-24 59h166c0-23-8-43-24-59-17-17-36-25-59-25z m-167 209h334v291c0 46-17 85-49 118-33 33-72 49-118 49-46 0-85-16-118-49-32-33-49-72-49-118v-291z" horiz-adv-x="1042" />

<glyph glyph-name="layout-fashion-runaway" unicode="&#xe85e;" d="M250 833v-283h200v-683h100v683h200v283h-500z m417-83h-334v-117h334v117z m-334-250h34v-133h-34c-36 0-66 30-66 66 0 37 30 67 66 67z m0-167h34v-133h-34c-36 0-66 30-66 67 0 37 30 66 66 66z m334 0h-34v-133h34c37 0 66 30 66 67 0 37-29 66-66 66z m-334-166h34v-134h-34c-36 0-66 30-66 67 0 37 30 67 66 67z m334 0h-34v-134h34c37 0 66 30 66 67 0 37-29 67-66 67z m-334-167h34v-133h-34c-36 0-66 29-66 66 0 37 30 67 66 67z m334 0h-34v-133h34c37 0 66 29 66 66 0 37-29 67-66 67z m-34 500v-133h34c37 0 66 30 66 66 0 37-29 67-66 67h-34z" horiz-adv-x="1000" />

<glyph glyph-name="menu-my-properties" unicode="&#xe85f;" d="M337 348c0-37 20-76 59-118 40-41 85-85 135-130 50 45 95 89 134 130 40 42 59 81 59 118 0 31-10 56-31 76-21 20-46 30-75 30-18 0-34-3-49-11-15-7-28-17-38-28-11 11-24 21-39 28-16 8-32 11-49 11-29 0-54-10-75-30-21-20-31-45-31-76z m-140-373v500l334 250 333-250v-500h-667z m84 83h500v375l-250 188-250-188v-375z" horiz-adv-x="1042" />

<glyph glyph-name="progress-85-percent" unicode="&#xe860;" d="M500-67c-58 0-112 11-162 33-51 22-95 52-133 89-37 38-67 82-89 133-22 50-33 104-33 162 0 58 11 112 33 163 22 50 52 94 89 132 38 37 82 67 133 89 50 22 104 33 162 33 58 0 112-11 163-33 50-22 94-52 132-89 37-38 67-82 89-132 22-51 33-105 33-163 0-58-11-112-33-162-22-51-52-95-89-133-38-37-82-67-132-89-51-22-105-33-163-33z m-333 417h333v333c-93 0-172-32-236-96-65-65-97-144-97-237z m333-417c-58 0-112 11-162 33-51 22-95 52-133 89-37 38-67 82-89 133-22 50-33 104-33 162 0 58 11 112 33 163 22 50 52 94 89 132 38 37 82 67 133 89 50 22 104 33 162 33 58 0 112-11 163-33 50-22 94-52 132-89 37-38 67-82 89-132 22-51 33-105 33-163 0-58-11-112-33-162-22-51-52-95-89-133-38-37-82-67-132-89-51-22-105-33-163-33z m-236 654l236-237v333c-44 0-87-8-128-25-41-16-77-40-108-71z" horiz-adv-x="1000" />

<glyph glyph-name="progress" unicode="&#xe861;" d="M500-67c-57 0-111 11-161 33-51 22-95 52-133 90-38 38-68 82-90 133-22 50-33 104-33 161 0 58 11 112 33 162 22 50 52 94 90 132 38 38 82 68 133 90 50 22 104 33 161 33 12 0 22-4 30-12 8-8 12-18 12-30 0-12-4-22-12-30-8-8-18-12-30-12-92 0-171-32-236-97-65-65-97-144-97-236 0-92 32-171 97-236 65-65 144-97 236-97 92 0 171 32 236 97 65 65 97 144 97 236 0 12 4 22 12 30 8 8 18 12 30 12 12 0 22-4 30-12 8-8 12-18 12-30 0-57-11-111-33-161-22-51-52-95-90-133-38-38-82-68-132-90-50-22-104-33-162-33z" horiz-adv-x="1000" />

<glyph glyph-name="menu-profile" unicode="&#xe862;" d="M274 138c36 27 75 48 119 64 44 15 90 23 138 23 48 0 93-8 137-23 44-16 83-37 119-64 24 28 43 60 57 96 13 37 20 75 20 116 0 92-32 171-97 236-65 65-144 97-236 97-93 0-171-32-236-97-65-65-98-144-98-236 0-41 7-79 21-116 13-36 32-68 56-96z m257 170c-41 0-76 14-104 43-28 28-42 62-42 103 0 41 14 76 42 104 28 28 63 42 104 42 41 0 75-14 103-42 28-28 42-63 42-104 0-41-14-75-42-103-28-29-62-43-103-43z m0-375c-58 0-112 11-163 33-51 22-95 52-132 89-38 38-67 82-89 133-22 50-33 104-33 162 0 58 11 112 33 163 22 50 51 94 89 132 37 37 81 67 132 89 51 22 105 33 163 33 57 0 111-11 162-33 51-22 95-52 132-89 38-38 68-82 90-132 21-51 32-105 32-163 0-58-11-112-32-162-22-51-52-95-90-133-37-37-81-67-132-89-51-22-105-33-162-33z m0 84c36 0 71 5 104 16 32 11 62 26 89 46-27 20-57 36-89 47-33 10-68 16-104 16-37 0-72-6-105-16-32-11-62-27-89-47 27-20 57-35 89-46 33-11 68-16 105-16z m0 375c18 0 33 6 44 17 12 12 18 27 18 45 0 18-6 33-18 45-11 12-26 18-44 18-18 0-33-6-45-18-12-12-18-27-18-45 0-18 6-33 18-45 12-11 27-17 45-17z" horiz-adv-x="1042" />

<glyph glyph-name="arrow-up" unicode="&#xe863;" d="M500 518l-250-250 58-59 192 192 192-192 58 59-250 250z" horiz-adv-x="1000" />

<glyph glyph-name="sound" unicode="&#xe864;" d="M667 308v84h166v-84h-166z m50-291l-134 100 50 66 134-100-50-66z m-84 500l-50 66 134 100 50-66-134-100z m-508-292v250h167l208 208v-666l-208 208h-167z m292 256l-90-89h-119v-84h119l90-89v262z" horiz-adv-x="1000" />

<glyph glyph-name="starbox-bulk" unicode="&#xe865;" d="M224-25c-23 0-43 8-59 24-17 17-25 36-25 59v584c0 23 8 42 25 59 16 16 36 24 59 24h583c23 0 42-8 59-24 16-17 24-36 24-59v-584c0-23-8-42-24-59-17-16-36-24-59-24h-583z m0 83h583v584h-583v-584z" horiz-adv-x="1042" />

<glyph glyph-name="starbox-fill" unicode="&#xe866;" d="M165-1c16-16 36-24 59-24h583c23 0 42 8 59 24 16 17 24 36 24 59v584c0 23-8 42-24 59-17 16-36 24-59 24h-583c-23 0-43-8-59-24-17-17-25-36-25-59v-584c0-23 8-42 25-59z m200 150l40 170-133 115 175 15 68 161 68-161 175-15-132-115 39-170-150 90-150-90z" horiz-adv-x="1042" />

<glyph glyph-name="taxi" unicode="&#xe868;" d="M250 58v-41c0-12-4-22-12-30-8-8-18-12-30-12h-41c-12 0-22 4-30 12-8 8-12 18-12 30v333l88 250c4 13 11 23 22 30 11 8 23 12 36 12h104v83h250v-83h104c13 0 25-4 36-12 11-7 18-17 23-30l87-250v-333c0-12-4-22-12-30-8-8-18-12-30-12h-41c-12 0-22 4-30 12-8 8-12 18-12 30v41h-500z m-8 375h516l-43 125h-430l-43-125z m71-250c17 0 32 6 44 19 12 12 18 27 18 44 0 17-6 32-18 44-12 12-27 18-44 18-18 0-33-6-45-18-12-12-18-27-18-44 0-17 6-32 18-44 12-13 27-19 45-19z m375 0c17 0 32 6 44 19 12 12 18 27 18 44 0 17-6 32-18 44-12 12-27 18-44 18-18 0-33-6-45-18-12-12-18-27-18-44 0-17 6-32 18-44 12-13 27-19 45-19z m-480-41h584v208h-584v-208z" horiz-adv-x="1000" />

<glyph glyph-name="time" unicode="&#xe869;" d="M470-25c-52 0-101 10-147 29-45 20-85 46-119 80-34 34-61 74-80 120-20 45-29 94-29 146 0 52 9 101 29 146 19 46 46 86 80 120 34 34 74 60 119 80 46 19 95 29 147 29 14 0 28-1 42-3 14-1 27-4 41-7v-86c-14 4-27 8-41 10-14 2-28 3-42 3-82 0-151-28-208-85-56-56-84-125-84-207 0-82 28-151 84-207 57-56 126-85 208-85 82 0 151 29 207 85 56 56 84 125 84 207 0 8 0 15-1 21 0 6-1 13-3 21h86c1-8 2-15 2-21v-21c0-52-10-101-29-146-20-46-47-86-81-120-34-34-73-60-119-80-45-19-94-29-146-29z m116 200l-158 158v225h83v-191l134-134-59-58z m175 300v125h-125v83h125v125h84v-125h125v-83h-125v-125h-84z" horiz-adv-x="1042" />

<glyph glyph-name="trash-bulk" unicode="&#xe86a;" d="M292-25c-23 0-43 8-59 24-16 17-25 36-25 59v542h-41v83h208v42h250v-42h208v-83h-41v-542c0-23-8-42-25-59-16-16-36-24-59-24h-416z m83 167h83v375h-83v-375z m167 0h83v375h-83v-375z" horiz-adv-x="1000" />

<glyph glyph-name="trash-outline" unicode="&#xe86b;" d="M285-9c-23 0-42 8-59 24-16 17-24 36-24 59v542h-42v83h209v42h250v-42h208v-83h-42v-542c0-23-8-42-24-59-17-16-36-24-59-24h-417z m417 625h-417v-542h417v542z m-333-458h83v375h-83v-375z m166 0h84v375h-84v-375z" horiz-adv-x="1000" />

<glyph glyph-name="un-visibilty-off-2" unicode="&#xe86c;" d="M505 183c52 0 96 19 132 55 37 37 55 81 55 133 0 52-18 96-55 133-36 36-80 54-132 54-52 0-97-18-133-54-37-37-55-81-55-133 0-52 18-96 55-133 36-36 81-55 133-55z m0 75c-32 0-58 11-80 33-22 22-33 49-33 80 0 31 11 58 33 80 22 21 48 32 80 32 31 0 57-11 79-32 22-22 33-49 33-80 0-31-11-58-33-80-22-22-48-33-79-33z m0-200c-102 0-194 29-277 85-84 57-144 133-182 228 38 95 98 171 182 227 83 57 175 85 277 85 101 0 193-28 277-85 83-56 144-132 181-227-37-95-98-171-181-228-84-56-176-85-277-85z" horiz-adv-x="1042" />

<glyph glyph-name="un-visibilty-off" unicode="&#xe86d;" d="M505 183c52 0 96 19 132 55 37 37 55 81 55 133 0 52-18 96-55 133-36 36-80 54-132 54-52 0-97-18-133-54-37-37-55-81-55-133 0-52 18-96 55-133 36-36 81-55 133-55z m0 75c-32 0-58 11-80 33-22 22-33 49-33 80 0 31 11 58 33 80 22 21 48 32 80 32 31 0 57-11 79-32 22-22 33-49 33-80 0-31-11-58-33-80-22-22-48-33-79-33z m0-200c-102 0-194 29-277 85-84 57-144 133-182 228 38 95 98 171 182 227 83 57 175 85 277 85 101 0 193-28 277-85 83-56 144-132 181-227-37-95-98-171-181-228-84-56-176-85-277-85z m0 84c78 0 150 20 216 62 65 41 116 97 150 167-34 70-85 126-150 167-66 41-138 62-216 62-79 0-151-21-216-62-66-41-116-97-151-167 35-70 85-126 151-167 65-42 137-62 216-62z" horiz-adv-x="1042" />

<glyph glyph-name="lock" unicode="&#xe86e;" d="M250-67c-23 0-42 8-59 25-16 16-24 36-24 59v416c0 23 8 43 24 59 17 17 36 25 59 25h42v83c0 58 20 107 61 147 40 41 89 61 147 61 58 0 107-20 147-61 41-40 61-89 61-147v-83h42c23 0 43-8 59-25 16-16 24-36 24-59v-416c0-23-8-43-24-59-16-17-36-25-59-25h-500z m0 84h500v416h-500v-416z m250 125c23 0 43 8 59 24 16 17 24 36 24 59 0 23-8 43-24 59-16 16-36 24-59 24-23 0-42-8-59-24-16-16-24-36-24-59 0-23 8-42 24-59 17-16 36-24 59-24z m-125 375h250v83c0 35-12 64-36 89-25 24-54 36-89 36-35 0-64-12-88-36-25-25-37-54-37-89v-83z" horiz-adv-x="1000" />

<glyph glyph-name="views" unicode="&#xe86f;" d="M504-67l-111 167h-243c-17 0-32 6-44 19-13 12-19 27-19 44v541c0 17 6 31 19 44 12 12 27 19 44 19h708c17 0 31-7 44-19 12-13 19-27 19-44v-541c0-17-7-32-19-44-13-13-27-19-44-19h-244l-110-167z m-354 230h708v541h-708v-541z m354 187c26 0 48 9 66 27 19 19 28 41 28 67 0 26-9 48-28 66-18 18-40 28-66 28-26 0-48-10-67-28-18-18-27-40-27-66 0-26 9-48 27-67 19-18 41-27 67-27z m0 38c-16 0-29 5-40 16-11 11-16 24-16 40 0 15 5 29 16 40 11 11 24 16 40 16 15 0 29-5 40-16 11-11 16-25 16-40 0-16-5-29-16-40-11-11-25-16-40-16z m0-100c-51 0-97 14-139 42-41 28-72 66-90 114 18 47 49 85 90 114 42 28 88 42 139 42 51 0 97-14 138-42 42-29 72-67 91-114-19-48-49-86-91-114-41-28-87-42-138-42z" horiz-adv-x="1042" />

<glyph glyph-name="visibilty-off" unicode="&#xe870;" d="M676 296l-61 60c6 33-3 64-28 92-25 29-57 40-97 33l-60 61c11 5 23 10 36 12 12 3 25 5 39 5 52 0 96-19 132-55 37-37 55-81 55-133 0-14-1-27-4-39-3-12-7-24-12-36z m133-131l-61 58c27 20 50 42 71 66 20 24 38 51 52 82-34 70-84 126-149 167-65 42-137 62-217 62-20 0-40-1-60-4-19-3-38-7-57-12l-65 64c29 12 58 21 88 27 30 6 61 9 94 9 105 0 198-29 280-87 82-58 141-134 178-226-16-41-37-79-63-114-26-35-56-66-91-92z m21-257l-175 173c-25-7-49-13-74-17-24-4-50-5-76-5-105 0-199 29-281 86-81 58-141 134-178 226 15 37 33 71 56 103 22 31 47 60 76 85l-115 116 58 59 767-767-58-59z m-594 592c-20-18-39-38-55-59-17-22-31-45-43-70 35-70 85-126 150-167 64-41 137-62 217-62 14 0 27 1 40 2 14 2 27 4 41 6l-38 40c-7-2-14-4-21-5-7-1-15-1-22-1-52 0-97 18-133 54-37 37-55 81-55 133 0 8 1 15 2 22 1 7 2 14 4 22l-87 85z" horiz-adv-x="1042" />

<glyph glyph-name="visibilty-on" unicode="&#xe871;" d="M830-92l-175 173c-25-7-49-13-74-17-24-4-50-5-76-5-105 0-199 29-281 86-81 58-141 134-178 226 15 37 33 71 56 103 22 31 47 60 76 85l-115 116 58 59 767-767-58-59z m-325 276c7 0 14 0 21 1 7 0 14 2 21 4l-225 225c-2-8-3-15-4-22 0-6-1-13-1-21 0-52 18-96 55-133 36-36 81-54 133-54z m304-19l-132 131c4 12 8 24 11 36 3 12 4 25 4 39 0 52-18 96-55 133-36 36-80 55-132 55-14 0-27-2-39-5-13-2-25-7-36-12l-107 106c29 12 58 21 88 27 30 6 61 9 94 9 105 0 198-29 280-87 82-58 141-134 178-226-16-41-37-79-63-114-26-35-56-66-91-92z m-193 191l-125 125c20 4 37 2 54-4 16-7 30-16 42-29 12-12 20-27 25-43 6-16 7-33 4-49z" horiz-adv-x="1042" />

<glyph glyph-name="fav-outline" unicode="&#xe872;" d="M500-24l-49 44c-72 66-132 123-179 170-47 48-85 91-113 129-28 38-48 72-59 103-11 31-17 63-17 95 0 63 22 116 64 159 43 42 96 64 159 64 38 0 74-9 107-27 34-17 63-43 87-75 27 34 57 59 90 76 33 17 67 26 105 26 62 0 115-22 158-64 42-43 64-96 64-159 0-32-6-64-17-95-11-31-31-65-59-103-28-38-66-81-113-129-47-47-107-104-179-170l-49-44z m0 92c69 63 126 117 171 162 44 45 80 84 106 118 26 34 44 64 55 90 10 27 15 53 15 79 0 44-14 81-43 110-28 29-65 43-109 43-35 0-67-10-97-31-29-21-52-49-68-85h-60c-16 36-39 64-68 85-30 21-62 31-97 31-44 0-80-14-109-43-29-29-43-66-43-110 0-26 5-53 15-79 11-27 29-57 55-91 26-34 62-73 107-118 45-45 102-98 170-161z" horiz-adv-x="1000" />
</font>
</defs>
</svg>
